<svg width="18" height="18" viewBox="0 0 18 18" fill="none" xmlns="http://www.w3.org/2000/svg">
<g>
<path d="M7.39753 3H4.02438C3.45954 3 3 3.45954 3 4.02438V7.39753C3 7.96238 3.45954 8.42191 4.02438 8.42191H7.39753C7.96238 8.42191 8.42191 7.96238 8.42191 7.39753V4.02438C8.42191 3.45954 7.96238 3 7.39753 3Z" fill="black"/>
<path d="M13.9757 3H10.6025C10.0377 3 9.57812 3.45954 9.57812 4.02438V7.39753C9.57812 7.96238 10.0377 8.42191 10.6025 8.42191H13.9757C14.5405 8.42191 15 7.96238 15 7.39753V4.02438C15 3.45954 14.5405 3 13.9757 3Z" fill="black"/>
<path d="M7.39753 9.57812H4.02438C3.45954 9.57812 3 10.0377 3 10.6025V13.9757C3 14.5405 3.45954 15 4.02438 15H7.39753C7.96238 15 8.42191 14.5405 8.42191 13.9757V10.6025C8.42191 10.0377 7.96238 9.57812 7.39753 9.57812Z" fill="black"/>
<path d="M13.9757 9.57812H10.6025C10.0377 9.57812 9.57812 10.0377 9.57812 10.6025V13.9757C9.57812 14.5405 10.0377 15 10.6025 15H13.9757C14.5405 15 15 14.5405 15 13.9757V10.6025C15 10.0377 14.5405 9.57812 13.9757 9.57812Z" fill="black"/>
</g>
</svg>
