<svg width="100" height="100" viewBox="0 0 100 100" fill="none" xmlns="http://www.w3.org/2000/svg">
<path fill-rule="evenodd" clip-rule="evenodd" d="M54.1519 20.8586C55.154 19.8037 55.1111 18.1361 54.0562 17.134L50.1266 13.4013C49.0717 12.3992 47.4041 12.442 46.402 13.497C45.3999 14.5519 45.4427 16.2195 46.4977 17.2216L50.4272 20.9543C51.4822 21.9564 53.1497 21.9136 54.1519 20.8586ZM52.6787 18.5841C52.9328 18.8254 52.9432 19.2271 52.7018 19.4812C52.4604 19.7353 52.0587 19.7456 51.8046 19.5043L47.8751 15.7716C47.621 15.5302 47.6107 15.1285 47.852 14.8744C48.0934 14.6203 48.4951 14.61 48.7492 14.8514L52.6787 18.5841ZM23.0005 21.0002C20.2391 21.0002 18.0005 23.2388 18.0005 26.0002V72.0002C18.0005 74.5482 19.9065 76.6511 22.3706 76.9609V36.8147C22.3706 34.0532 24.6092 31.8147 27.3706 31.8147H65.704C68.4654 31.8147 70.704 34.0532 70.704 36.8147V38.1609H73.811V33.7681C73.811 31.0067 71.5724 28.7681 68.811 28.7681H54.0213C52.1212 28.7681 50.3027 27.9957 48.9835 26.6282L45.0285 22.5287C44.0862 21.552 42.7873 21.0002 41.4301 21.0002H23.0005ZM75.811 38.1609V33.7681C75.811 29.9021 72.677 26.7681 68.811 26.7681H54.0213C52.6641 26.7681 51.3652 26.2164 50.4229 25.2396L46.4679 21.1401C45.1487 19.7727 43.3302 19.0002 41.4301 19.0002H23.0005C19.1345 19.0002 16.0005 22.1342 16.0005 26.0002V72.0002C16.0005 75.8662 19.1345 79.0002 23.0005 79.0002H40.0357C40.5484 86.2654 46.6048 92.0001 54.0005 92.0001C61.3963 92.0001 67.4526 86.2654 67.9654 79.0001L76.519 79.0002C80.385 79.0002 83.519 75.8661 83.519 72.0002V45.1609C83.519 41.2949 80.385 38.1609 76.519 38.1609H75.811ZM67.9654 77.0002L76.519 77.0002C79.2805 77.0002 81.519 74.7616 81.519 72.0002V45.1609C81.519 42.3995 79.2805 40.1609 76.519 40.1609H32.1003C29.3389 40.1609 27.1003 42.3995 27.1003 45.1609V77.0002H40.0357C40.5484 69.7349 46.6048 64.0002 54.0005 64.0002C61.3963 64.0002 67.4526 69.7349 67.9654 77.0002ZM58.6222 19.0905C57.1673 19.1091 56.0029 20.3037 56.0216 21.7586C56.0402 23.2135 57.2348 24.3779 58.6897 24.3592L64.1091 24.2898C65.564 24.2711 66.7283 23.0766 66.7097 21.6217C66.6911 20.1667 65.4965 19.0024 64.0416 19.021L58.6222 19.0905ZM58.0214 21.733C58.0169 21.3826 58.2974 21.0948 58.6478 21.0903L64.0672 21.0209C64.4176 21.0164 64.7054 21.2968 64.7099 21.6473C64.7144 21.9977 64.4339 22.2855 64.0835 22.29L58.6641 22.3594C58.3136 22.3639 58.0259 22.0834 58.0214 21.733ZM42.0005 78.0002C42.0005 71.3727 47.3731 66.0002 54.0005 66.0002C60.6279 66.0002 66.0005 71.3727 66.0005 78.0002C66.0005 84.6276 60.6279 90.0001 54.0005 90.0001C47.3731 90.0001 42.0005 84.6276 42.0005 78.0002ZM51.5005 71.5002C51.5005 70.1195 52.6198 69.0002 54.0005 69.0002C55.3812 69.0002 56.5005 70.1195 56.5005 71.5002V77.5002C56.5005 78.8809 55.3812 80.0001 54.0005 80.0001C52.6198 80.0001 51.5005 78.8809 51.5005 77.5002V71.5002ZM54.0005 71.0002C53.7244 71.0002 53.5005 71.224 53.5005 71.5002V77.5002C53.5005 77.7763 53.7244 78.0002 54.0005 78.0002C54.2767 78.0002 54.5005 77.7763 54.5005 77.5002V71.5002C54.5005 71.224 54.2767 71.0002 54.0005 71.0002ZM54.0005 87.0001C52.6198 87.0001 51.5005 85.8809 51.5005 84.5001C51.5005 83.1194 52.6198 82.0001 54.0005 82.0001C55.3812 82.0001 56.5005 83.1194 56.5005 84.5001C56.5005 85.8809 55.3812 87.0001 54.0005 87.0001ZM53.5005 84.5001C53.5005 84.7763 53.7244 85.0001 54.0005 85.0001C54.2767 85.0001 54.5005 84.7763 54.5005 84.5001C54.5005 84.224 54.2767 84.0001 54.0005 84.0001C53.7244 84.0001 53.5005 84.224 53.5005 84.5001Z" fill="#7F56D9"/>
</svg>
