<svg width="72" height="72" viewBox="0 0 72 72" fill="none" xmlns="http://www.w3.org/2000/svg">
<g clip-path="url(#clip0_4324_51655)">
<path d="M36 72C55.8823 72 72 55.8823 72 36C72 16.1177 55.8823 0 36 0C16.1177 0 0 16.1177 0 36C0 55.8823 16.1177 72 36 72Z" fill="#0078CF"/>
<path d="M53.9772 9.5349C62.4392 15.2933 67.9974 25.0023 67.9974 36.0095C67.9973 47.0161 62.439 56.7239 53.9772 62.482V9.5349ZM3.99734 36.0095C3.99734 24.6736 9.89145 14.7135 18.7824 9.02873L18.7824 62.9883C9.8917 57.3036 3.99761 47.3448 3.99734 36.0095Z" fill="white"/>
<path d="M36.0075 64.0097C51.4709 64.0097 64.0065 51.4741 64.0065 36.0107C64.0065 20.5473 51.4709 8.01172 36.0075 8.01172C20.5441 8.01172 8.00851 20.5473 8.00851 36.0107C8.00851 51.4741 20.5441 64.0097 36.0075 64.0097Z" fill="#0078CF"/>
<path d="M50.3712 28.6324C49.9009 23.9242 45.8352 22.3578 40.7079 21.9239L40.6827 15.3912L36.712 15.4038L36.7367 21.7644C35.68 21.7712 34.6233 21.7884 33.567 21.8158L33.5429 15.4132L29.5733 15.4255L29.598 21.9561C28.7384 21.9764 27.8942 21.9949 27.071 21.998L27.0704 21.9778L21.5938 21.9928L21.6111 26.2397C21.6111 26.2397 24.5432 26.1747 24.4946 26.2289C26.103 26.2244 26.63 27.1579 26.7854 27.9643L26.8143 35.4065C26.9253 35.4067 27.0704 35.412 27.2342 35.4329L26.8147 35.4347L26.8538 45.8604C26.7851 46.3676 26.4907 47.1767 25.366 47.1824C25.418 47.227 22.4806 47.1902 22.4806 47.1902L21.7102 51.9426L26.8778 51.9275C27.8391 51.9246 28.7853 51.9381 29.7142 51.9411L29.7413 58.5482L33.7077 58.5366L33.6812 51.9986C34.7706 52.0188 35.8243 52.0232 36.8535 52.0201L36.8768 58.5273L40.8465 58.5149L40.8234 51.9193C47.4975 51.5152 52.1633 49.8166 52.7197 43.538C53.1687 38.4816 50.7855 36.2333 46.9923 35.3326C49.2897 34.1505 50.7211 32.0776 50.3712 28.6324ZM44.8689 42.7763C44.8901 47.7138 36.4459 47.1793 33.7546 47.189L33.722 38.435C36.4141 38.4284 44.8497 37.6274 44.8689 42.7763ZM42.9752 30.4334C42.991 34.9245 35.9483 34.4219 33.7067 34.429L33.6764 26.4895C35.918 26.4824 42.9567 25.748 42.9752 30.4334Z" fill="white"/>
</g>
<defs>
<clipPath id="clip0_4324_51655">
<rect width="72" height="72" fill="white"/>
</clipPath>
</defs>
</svg>
