<svg width="72" height="72" viewBox="0 0 72 72" fill="none" xmlns="http://www.w3.org/2000/svg">
<g clip-path="url(#clip0_4323_51204)">
<path d="M36.0003 72C55.8825 72 72.0003 55.8823 72.0003 36C72.0003 16.1177 55.8825 0 36.0003 0C16.118 0 0.000274658 16.1177 0.000274658 36C0.000274658 55.8823 16.118 72 36.0003 72Z" fill="#627EEA"/>
<path d="M53.9776 9.5349C62.4395 15.2933 67.9977 25.0023 67.9977 36.0095C67.9976 47.0161 62.4394 56.7239 53.9776 62.482V9.5349ZM3.99765 36.0095C3.99765 24.6736 9.89175 14.7135 18.7827 9.02873L18.7827 62.9883C9.892 57.3036 3.99792 47.3448 3.99765 36.0095Z" fill="white"/>
<path d="M36.0078 64.0058C51.4712 64.0058 64.0068 51.4702 64.0068 36.0068C64.0068 20.5434 51.4712 8.00781 36.0078 8.00781C20.5443 8.00781 8.00876 20.5434 8.00876 36.0068C8.00876 51.4702 20.5443 64.0058 36.0078 64.0058Z" fill="#627EEA"/>
<path d="M50.2546 36.2676L36.0623 29.665V12.1807L50.2546 36.2676Z" fill="white" stroke="#8198EE" stroke-width="0.128571"/>
<path d="M35.9251 29.665L21.7298 36.2676L35.9251 12.1797V29.665Z" fill="white" stroke="#8198EE" stroke-width="0.128571"/>
<path d="M36.0623 59.7959V47.9688L50.2 39.4297L36.0623 59.7959Z" fill="white" stroke="#8198EE" stroke-width="0.128571"/>
<path d="M35.9251 47.9668V59.7959L21.7923 39.4287L35.9251 47.9668Z" fill="white" stroke="#8198EE" stroke-width="0.128571"/>
<path d="M50.2781 36.4209L36.0623 45.0156V29.8115L50.2781 36.4209Z" fill="white" stroke="#8198EE" stroke-width="0.128571"/>
<path d="M35.9231 45.0156L21.7044 36.4209L35.9231 29.8115V45.0156Z" fill="white" stroke="#8198EE" stroke-width="0.128571"/>
</g>
<defs>
<clipPath id="clip0_4323_51204">
<rect width="72" height="72" fill="white"/>
</clipPath>
</defs>
</svg>
