<svg width="122" height="24" viewBox="0 0 122 24" fill="none" xmlns="http://www.w3.org/2000/svg">
<g filter="url(#filter0_d_4339_51722)">
<rect width="122" height="22" rx="11" fill="url(#paint0_linear_4339_51722)" shape-rendering="crispEdges"/>
<rect x="1.2" y="1.2" width="119.6" height="19.6" rx="9.8" stroke="black" stroke-opacity="0.24" stroke-width="2.4" shape-rendering="crispEdges"/>
<path d="M13.0025 14.3301C13.5202 14.3301 13.94 13.9104 13.94 13.3926C13.94 12.8748 13.5202 12.4551 13.0025 12.4551C12.4847 12.4551 12.065 12.8748 12.065 13.3926C12.065 13.9104 12.4847 14.3301 13.0025 14.3301Z" fill="white" fill-opacity="0.85"/>
<path d="M16.5355 7.46447C15.5912 6.52008 14.3355 6 13 6C11.6645 6 10.4088 6.52008 9.46445 7.46447C8.5201 8.40885 8 9.66445 8 11C8 12.3355 8.5201 13.5912 9.46445 14.5355C10.4088 15.4799 11.6645 16 13 16C14.3355 16 15.5912 15.4799 16.5355 14.5355C17.4799 13.5912 18 12.3355 18 11C18 9.66445 17.4799 8.40885 16.5355 7.46447ZM13.0025 7.64865C13.5203 7.64865 13.94 8.06838 13.94 8.58615C13.94 9.10393 13.5203 9.52365 13.0025 9.52365C12.4847 9.52365 12.065 9.10393 12.065 8.58615C12.065 8.06838 12.4847 7.64865 13.0025 7.64865ZM9.74068 14.2593C8.87008 13.3887 8.39062 12.2312 8.39062 11C8.39062 9.76879 8.87008 8.61127 9.74068 7.74068C10.3067 7.17465 10.9941 6.77418 11.7441 6.56309C11.0597 6.98846 10.5977 7.74074 10.5977 8.59766C10.5977 9.92443 11.683 11.0012 13.0098 11.0012C14.3365 11.0012 15.4219 12.078 15.4219 13.4048C15.4219 14.2446 14.9908 14.9837 14.338 15.4131C13.9097 15.5424 13.46 15.6094 13 15.6094C11.7688 15.6094 10.6113 15.1299 9.74068 14.2593Z" fill="white" fill-opacity="0.85"/>
<path d="M13 5.5C14.4681 5.5 15.8505 6.07317 16.8887 7.11133C17.9268 8.14947 18.5 9.53184 18.5 11C18.5 12.4682 17.9268 13.8505 16.8887 14.8887C15.8505 15.9268 14.4681 16.5 13 16.5C11.5319 16.5 10.1495 15.9268 9.11133 14.8887C8.07321 13.8505 7.5 12.4682 7.5 11C7.5 9.53184 8.07321 8.14947 9.11133 7.11133C10.1495 6.07317 11.5319 5.5 13 5.5ZM10.0947 8.09375L10.0938 8.09473C9.31723 8.87148 8.89062 9.90162 8.89062 11C8.89063 12.0984 9.31723 13.1285 10.0938 13.9053L10.0947 13.9062C10.8715 14.6828 11.9016 15.1094 13 15.1094C13.3842 15.1094 13.7587 15.0547 14.1172 14.9541C14.6037 14.6087 14.9217 14.0453 14.9219 13.4053C14.9219 12.3569 14.0627 11.501 13.0098 11.501C11.4092 11.501 10.0977 10.2029 10.0977 8.59766C10.0977 8.40607 10.1162 8.21894 10.1523 8.03809C10.1331 8.05658 10.1136 8.07484 10.0947 8.09375ZM13.0029 11.9551C13.7966 11.9553 14.4404 12.5988 14.4404 13.3926C14.4404 14.1863 13.7966 14.8298 13.0029 14.8301C12.209 14.8301 11.5654 14.1865 11.5654 13.3926C11.5655 12.5987 12.209 11.9551 13.0029 11.9551ZM13.0029 8.14844C12.7614 8.14844 12.5655 8.34441 12.5654 8.58594C12.5654 8.82757 12.7613 9.02344 13.0029 9.02344C13.2444 9.02319 13.4404 8.82742 13.4404 8.58594C13.4403 8.34455 13.2443 8.14868 13.0029 8.14844Z" stroke="black" stroke-opacity="0.18"/>
<mask id="path-5-outside-1_4339_51722" maskUnits="userSpaceOnUse" x="23" y="6.5" width="92" height="11" fill="black">
<rect fill="white" x="23" y="6.5" width="92" height="11"/>
<path d="M24.77 15.5V7.8H27.685C28.455 7.8 29.115 7.93933 29.665 8.218C30.215 8.49667 30.6367 8.911 30.93 9.461C31.2233 10.0037 31.37 10.6783 31.37 11.485V11.705C31.37 12.5263 31.2197 13.2193 30.919 13.784C30.6183 14.3487 30.182 14.7777 29.61 15.071C29.0453 15.357 28.367 15.5 27.575 15.5H24.77ZM26.75 13.872H27.465C27.8023 13.872 28.1067 13.8023 28.378 13.663C28.6567 13.5237 28.884 13.2963 29.06 12.981C29.236 12.6583 29.324 12.233 29.324 11.705V11.485C29.324 10.9863 29.2433 10.5867 29.082 10.286C28.928 9.98533 28.719 9.769 28.455 9.637C28.191 9.49767 27.8977 9.428 27.575 9.428H26.75V13.872ZM32.6333 15.5V7.8H38.2433V9.318H34.6133V10.825H37.9133V12.255H34.6133V13.982H38.2433V15.5H32.6333ZM39.4975 15.5V7.8H41.4775V13.872H44.7775V15.5H39.4975ZM46.7051 15.5V9.428H44.3401V7.8H51.0501V9.428H48.6851V15.5H46.7051ZM50.6 15.5L53.416 7.8H55.396L58.201 15.5H56.111L55.583 14.026H53.009L52.481 15.5H50.6ZM53.57 12.508H55.022L54.296 10.22L53.57 12.508ZM61.8305 15.5V7.8H63.5795L66.5605 12.09V7.8H68.6505V15.5H66.7805L63.8105 11.21V15.5H61.8305ZM70.188 15.5V7.8H75.798V9.318H72.168V10.825H75.468V12.255H72.168V13.982H75.798V15.5H70.188ZM80.2972 15.643C79.6152 15.643 79.0212 15.5257 78.5152 15.291C78.0166 15.049 77.6279 14.6897 77.3492 14.213C77.0779 13.729 76.9422 13.1313 76.9422 12.42V7.8H78.9222V12.189C78.9222 12.783 79.0249 13.234 79.2302 13.542C79.4356 13.8427 79.7912 13.993 80.2972 13.993C80.8179 13.993 81.1772 13.8427 81.3752 13.542C81.5732 13.234 81.6722 12.7867 81.6722 12.2V7.8H83.6522V12.42C83.6522 13.1313 83.5166 13.729 83.2452 14.213C82.9739 14.6897 82.5889 15.049 82.0902 15.291C81.5916 15.5257 80.9939 15.643 80.2972 15.643ZM86.9024 15.5V9.428H84.5374V7.8H91.2474V9.428H88.8824V15.5H86.9024ZM92.2417 15.5V7.8H95.5967C96.242 7.8 96.7773 7.90633 97.2027 8.119C97.6353 8.33167 97.9617 8.62867 98.1817 9.01C98.4017 9.39133 98.5117 9.846 98.5117 10.374C98.5117 10.924 98.3797 11.397 98.1157 11.793C97.859 12.1817 97.4703 12.4677 96.9497 12.651L98.7317 15.5H96.5317L95.0357 12.86H94.2217V15.5H92.2417ZM94.2217 11.32H95.1567C95.6847 11.32 96.044 11.243 96.2347 11.089C96.4327 10.9277 96.5317 10.6893 96.5317 10.374C96.5317 10.0587 96.4327 9.824 96.2347 9.67C96.044 9.50867 95.6847 9.428 95.1567 9.428H94.2217V11.32ZM99.2728 15.5L102.089 7.8H104.069L106.874 15.5H104.784L104.256 14.026H101.682L101.154 15.5H99.2728ZM102.243 12.508H103.695L102.969 10.22L102.243 12.508ZM107.753 15.5V7.8H109.733V13.872H113.033V15.5H107.753Z"/>
</mask>
<path d="M24.77 15.5V7.8H27.685C28.455 7.8 29.115 7.93933 29.665 8.218C30.215 8.49667 30.6367 8.911 30.93 9.461C31.2233 10.0037 31.37 10.6783 31.37 11.485V11.705C31.37 12.5263 31.2197 13.2193 30.919 13.784C30.6183 14.3487 30.182 14.7777 29.61 15.071C29.0453 15.357 28.367 15.5 27.575 15.5H24.77ZM26.75 13.872H27.465C27.8023 13.872 28.1067 13.8023 28.378 13.663C28.6567 13.5237 28.884 13.2963 29.06 12.981C29.236 12.6583 29.324 12.233 29.324 11.705V11.485C29.324 10.9863 29.2433 10.5867 29.082 10.286C28.928 9.98533 28.719 9.769 28.455 9.637C28.191 9.49767 27.8977 9.428 27.575 9.428H26.75V13.872ZM32.6333 15.5V7.8H38.2433V9.318H34.6133V10.825H37.9133V12.255H34.6133V13.982H38.2433V15.5H32.6333ZM39.4975 15.5V7.8H41.4775V13.872H44.7775V15.5H39.4975ZM46.7051 15.5V9.428H44.3401V7.8H51.0501V9.428H48.6851V15.5H46.7051ZM50.6 15.5L53.416 7.8H55.396L58.201 15.5H56.111L55.583 14.026H53.009L52.481 15.5H50.6ZM53.57 12.508H55.022L54.296 10.22L53.57 12.508ZM61.8305 15.5V7.8H63.5795L66.5605 12.09V7.8H68.6505V15.5H66.7805L63.8105 11.21V15.5H61.8305ZM70.188 15.5V7.8H75.798V9.318H72.168V10.825H75.468V12.255H72.168V13.982H75.798V15.5H70.188ZM80.2972 15.643C79.6152 15.643 79.0212 15.5257 78.5152 15.291C78.0166 15.049 77.6279 14.6897 77.3492 14.213C77.0779 13.729 76.9422 13.1313 76.9422 12.42V7.8H78.9222V12.189C78.9222 12.783 79.0249 13.234 79.2302 13.542C79.4356 13.8427 79.7912 13.993 80.2972 13.993C80.8179 13.993 81.1772 13.8427 81.3752 13.542C81.5732 13.234 81.6722 12.7867 81.6722 12.2V7.8H83.6522V12.42C83.6522 13.1313 83.5166 13.729 83.2452 14.213C82.9739 14.6897 82.5889 15.049 82.0902 15.291C81.5916 15.5257 80.9939 15.643 80.2972 15.643ZM86.9024 15.5V9.428H84.5374V7.8H91.2474V9.428H88.8824V15.5H86.9024ZM92.2417 15.5V7.8H95.5967C96.242 7.8 96.7773 7.90633 97.2027 8.119C97.6353 8.33167 97.9617 8.62867 98.1817 9.01C98.4017 9.39133 98.5117 9.846 98.5117 10.374C98.5117 10.924 98.3797 11.397 98.1157 11.793C97.859 12.1817 97.4703 12.4677 96.9497 12.651L98.7317 15.5H96.5317L95.0357 12.86H94.2217V15.5H92.2417ZM94.2217 11.32H95.1567C95.6847 11.32 96.044 11.243 96.2347 11.089C96.4327 10.9277 96.5317 10.6893 96.5317 10.374C96.5317 10.0587 96.4327 9.824 96.2347 9.67C96.044 9.50867 95.6847 9.428 95.1567 9.428H94.2217V11.32ZM99.2728 15.5L102.089 7.8H104.069L106.874 15.5H104.784L104.256 14.026H101.682L101.154 15.5H99.2728ZM102.243 12.508H103.695L102.969 10.22L102.243 12.508ZM107.753 15.5V7.8H109.733V13.872H113.033V15.5H107.753Z" fill="white" fill-opacity="0.85"/>
<path d="M24.77 15.5H23.77V16.5H24.77V15.5ZM24.77 7.8V6.8H23.77V7.8H24.77ZM29.665 8.218L30.117 7.32596L30.117 7.32596L29.665 8.218ZM30.93 9.461L30.0476 9.9316L30.0503 9.93652L30.93 9.461ZM30.919 13.784L31.8017 14.254V14.254L30.919 13.784ZM29.61 15.071L30.0618 15.9631L30.0663 15.9608L29.61 15.071ZM26.75 13.872H25.75V14.872H26.75V13.872ZM28.378 13.663L27.9308 12.7685L27.9212 12.7734L28.378 13.663ZM29.06 12.981L29.9332 13.4684L29.9379 13.4599L29.06 12.981ZM29.082 10.286L28.192 10.7419L28.1963 10.7504L28.2008 10.7588L29.082 10.286ZM28.455 9.637L27.9882 10.5214L27.998 10.5265L28.0078 10.5314L28.455 9.637ZM26.75 9.428V8.428H25.75V9.428H26.75ZM24.77 15.5H25.77V7.8H24.77H23.77V15.5H24.77ZM24.77 7.8V8.8H27.685V7.8V6.8H24.77V7.8ZM27.685 7.8V8.8C28.3362 8.8 28.8336 8.91781 29.213 9.11004L29.665 8.218L30.117 7.32596C29.3964 6.96085 28.5738 6.8 27.685 6.8V7.8ZM29.665 8.218L29.213 9.11003C29.5775 9.29471 29.8499 9.56083 30.0476 9.93159L30.93 9.461L31.8124 8.99041C31.4234 8.26116 30.8525 7.69862 30.117 7.32596L29.665 8.218ZM30.93 9.461L30.0503 9.93652C30.2441 10.2951 30.37 10.7949 30.37 11.485H31.37H32.37C32.37 10.5617 32.2026 9.71228 31.8097 8.98548L30.93 9.461ZM31.37 11.485H30.37V11.705H31.37H32.37V11.485H31.37ZM31.37 11.705H30.37C30.37 12.4077 30.2412 12.9293 30.0363 13.314L30.919 13.784L31.8017 14.254C32.1982 13.5094 32.37 12.645 32.37 11.705H31.37ZM30.919 13.784L30.0363 13.314C29.8321 13.6976 29.545 13.9805 29.1537 14.1812L29.61 15.071L30.0663 15.9608C30.819 15.5748 31.4046 14.9998 31.8017 14.254L30.919 13.784ZM29.61 15.071L29.1582 14.1789C28.7643 14.3784 28.2486 14.5 27.575 14.5V15.5V16.5C28.4854 16.5 29.3264 16.3356 30.0618 15.9631L29.61 15.071ZM27.575 15.5V14.5H24.77V15.5V16.5H27.575V15.5ZM26.75 13.872V14.872H27.465V13.872V12.872H26.75V13.872ZM27.465 13.872V14.872C27.9441 14.872 28.4077 14.7719 28.8348 14.5526L28.378 13.663L27.9212 12.7734C27.8057 12.8328 27.6606 12.872 27.465 12.872V13.872ZM28.378 13.663L28.8252 14.5574C29.3108 14.3146 29.6753 13.9304 29.9332 13.4684L29.06 12.981L28.1868 12.4936C28.0927 12.6623 28.0025 12.7327 27.9308 12.7686L28.378 13.663ZM29.06 12.981L29.9379 13.4599C30.2214 12.9401 30.324 12.3319 30.324 11.705H29.324H28.324C28.324 12.1341 28.2506 12.3766 28.1821 12.5021L29.06 12.981ZM29.324 11.705H30.324V11.485H29.324H28.324V11.705H29.324ZM29.324 11.485H30.324C30.324 10.8921 30.2302 10.3109 29.9632 9.81318L29.082 10.286L28.2008 10.7588C28.2564 10.8624 28.324 11.0806 28.324 11.485H29.324ZM29.082 10.286L29.972 9.83012C29.7355 9.36835 29.3836 8.98325 28.9022 8.74257L28.455 9.637L28.0078 10.5314C28.0544 10.5548 28.1205 10.6023 28.192 10.7419L29.082 10.286ZM28.455 9.637L28.9218 8.75261C28.5024 8.5313 28.0469 8.428 27.575 8.428V9.428V10.428C27.7485 10.428 27.8796 10.464 27.9882 10.5214L28.455 9.637ZM27.575 9.428V8.428H26.75V9.428V10.428H27.575V9.428ZM26.75 9.428H25.75V13.872H26.75H27.75V9.428H26.75ZM32.6333 15.5H31.6333V16.5H32.6333V15.5ZM32.6333 7.8V6.8H31.6333V7.8H32.6333ZM38.2433 7.8H39.2433V6.8H38.2433V7.8ZM38.2433 9.318V10.318H39.2433V9.318H38.2433ZM34.6133 9.318V8.318H33.6133V9.318H34.6133ZM34.6133 10.825H33.6133V11.825H34.6133V10.825ZM37.9133 10.825H38.9133V9.825H37.9133V10.825ZM37.9133 12.255V13.255H38.9133V12.255H37.9133ZM34.6133 12.255V11.255H33.6133V12.255H34.6133ZM34.6133 13.982H33.6133V14.982H34.6133V13.982ZM38.2433 13.982H39.2433V12.982H38.2433V13.982ZM38.2433 15.5V16.5H39.2433V15.5H38.2433ZM32.6333 15.5H33.6333V7.8H32.6333H31.6333V15.5H32.6333ZM32.6333 7.8V8.8H38.2433V7.8V6.8H32.6333V7.8ZM38.2433 7.8H37.2433V9.318H38.2433H39.2433V7.8H38.2433ZM38.2433 9.318V8.318H34.6133V9.318V10.318H38.2433V9.318ZM34.6133 9.318H33.6133V10.825H34.6133H35.6133V9.318H34.6133ZM34.6133 10.825V11.825H37.9133V10.825V9.825H34.6133V10.825ZM37.9133 10.825H36.9133V12.255H37.9133H38.9133V10.825H37.9133ZM37.9133 12.255V11.255H34.6133V12.255V13.255H37.9133V12.255ZM34.6133 12.255H33.6133V13.982H34.6133H35.6133V12.255H34.6133ZM34.6133 13.982V14.982H38.2433V13.982V12.982H34.6133V13.982ZM38.2433 13.982H37.2433V15.5H38.2433H39.2433V13.982H38.2433ZM38.2433 15.5V14.5H32.6333V15.5V16.5H38.2433V15.5ZM39.4975 15.5H38.4975V16.5H39.4975V15.5ZM39.4975 7.8V6.8H38.4975V7.8H39.4975ZM41.4775 7.8H42.4775V6.8H41.4775V7.8ZM41.4775 13.872H40.4775V14.872H41.4775V13.872ZM44.7775 13.872H45.7775V12.872H44.7775V13.872ZM44.7775 15.5V16.5H45.7775V15.5H44.7775ZM39.4975 15.5H40.4975V7.8H39.4975H38.4975V15.5H39.4975ZM39.4975 7.8V8.8H41.4775V7.8V6.8H39.4975V7.8ZM41.4775 7.8H40.4775V13.872H41.4775H42.4775V7.8H41.4775ZM41.4775 13.872V14.872H44.7775V13.872V12.872H41.4775V13.872ZM44.7775 13.872H43.7775V15.5H44.7775H45.7775V13.872H44.7775ZM44.7775 15.5V14.5H39.4975V15.5V16.5H44.7775V15.5ZM46.7051 15.5H45.7051V16.5H46.7051V15.5ZM46.7051 9.428H47.7051V8.428H46.7051V9.428ZM44.3401 9.428H43.3401V10.428H44.3401V9.428ZM44.3401 7.8V6.8H43.3401V7.8H44.3401ZM51.0501 7.8H52.0501V6.8H51.0501V7.8ZM51.0501 9.428V10.428H52.0501V9.428H51.0501ZM48.6851 9.428V8.428H47.6851V9.428H48.6851ZM48.6851 15.5V16.5H49.6851V15.5H48.6851ZM46.7051 15.5H47.7051V9.428H46.7051H45.7051V15.5H46.7051ZM46.7051 9.428V8.428H44.3401V9.428V10.428H46.7051V9.428ZM44.3401 9.428H45.3401V7.8H44.3401H43.3401V9.428H44.3401ZM44.3401 7.8V8.8H51.0501V7.8V6.8H44.3401V7.8ZM51.0501 7.8H50.0501V9.428H51.0501H52.0501V7.8H51.0501ZM51.0501 9.428V8.428H48.6851V9.428V10.428H51.0501V9.428ZM48.6851 9.428H47.6851V15.5H48.6851H49.6851V9.428H48.6851ZM48.6851 15.5V14.5H46.7051V15.5V16.5H48.6851V15.5ZM50.6 15.5L49.6608 15.1565L49.1695 16.5H50.6V15.5ZM53.416 7.8V6.8H52.7169L52.4768 7.45653L53.416 7.8ZM55.396 7.8L56.3356 7.45772L56.096 6.8H55.396V7.8ZM58.201 15.5V16.5H59.6295L59.1406 15.1577L58.201 15.5ZM56.111 15.5L55.1696 15.8372L55.407 16.5H56.111V15.5ZM55.583 14.026L56.5244 13.6888L56.287 13.026H55.583V14.026ZM53.009 14.026V13.026H52.305L52.0676 13.6888L53.009 14.026ZM52.481 15.5V16.5H53.185L53.4224 15.8372L52.481 15.5ZM53.57 12.508L52.6168 12.2056L52.2035 13.508H53.57V12.508ZM55.022 12.508V13.508H56.3884L55.9751 12.2056L55.022 12.508ZM54.296 10.22L55.2491 9.91755L54.296 6.91364L53.3428 9.91755L54.296 10.22ZM50.6 15.5L51.5391 15.8435L54.3551 8.14347L53.416 7.8L52.4768 7.45653L49.6608 15.1565L50.6 15.5ZM53.416 7.8V8.8H55.396V7.8V6.8H53.416V7.8ZM55.396 7.8L54.4564 8.14228L57.2614 15.8423L58.201 15.5L59.1406 15.1577L56.3356 7.45772L55.396 7.8ZM58.201 15.5V14.5H56.111V15.5V16.5H58.201V15.5ZM56.111 15.5L57.0524 15.1628L56.5244 13.6888L55.583 14.026L54.6416 14.3632L55.1696 15.8372L56.111 15.5ZM55.583 14.026V13.026H53.009V14.026V15.026H55.583V14.026ZM53.009 14.026L52.0676 13.6888L51.5396 15.1628L52.481 15.5L53.4224 15.8372L53.9504 14.3632L53.009 14.026ZM52.481 15.5V14.5H50.6V15.5V16.5H52.481V15.5ZM53.57 12.508V13.508H55.022V12.508V11.508H53.57V12.508ZM55.022 12.508L55.9751 12.2056L55.2491 9.91755L54.296 10.22L53.3428 10.5224L54.0688 12.8104L55.022 12.508ZM54.296 10.22L53.3428 9.91755L52.6168 12.2056L53.57 12.508L54.5231 12.8104L55.2491 10.5224L54.296 10.22ZM61.8305 15.5H60.8305V16.5H61.8305V15.5ZM61.8305 7.8V6.8H60.8305V7.8H61.8305ZM63.5795 7.8L64.4008 7.22937L64.1024 6.8H63.5795V7.8ZM66.5605 12.09L65.7393 12.6606L67.5605 15.2816V12.09H66.5605ZM66.5605 7.8V6.8H65.5605V7.8H66.5605ZM68.6505 7.8H69.6505V6.8H68.6505V7.8ZM68.6505 15.5V16.5H69.6505V15.5H68.6505ZM66.7805 15.5L65.9584 16.0692L66.2566 16.5H66.7805V15.5ZM63.8105 11.21L64.6327 10.6408L62.8105 8.00873V11.21H63.8105ZM63.8105 15.5V16.5H64.8105V15.5H63.8105ZM61.8305 15.5H62.8305V7.8H61.8305H60.8305V15.5H61.8305ZM61.8305 7.8V8.8H63.5795V7.8V6.8H61.8305V7.8ZM63.5795 7.8L62.7583 8.37063L65.7393 12.6606L66.5605 12.09L67.3818 11.5194L64.4008 7.22937L63.5795 7.8ZM66.5605 12.09H67.5605V7.8H66.5605H65.5605V12.09H66.5605ZM66.5605 7.8V8.8H68.6505V7.8V6.8H66.5605V7.8ZM68.6505 7.8H67.6505V15.5H68.6505H69.6505V7.8H68.6505ZM68.6505 15.5V14.5H66.7805V15.5V16.5H68.6505V15.5ZM66.7805 15.5L67.6027 14.9308L64.6327 10.6408L63.8105 11.21L62.9884 11.7792L65.9584 16.0692L66.7805 15.5ZM63.8105 11.21H62.8105V15.5H63.8105H64.8105V11.21H63.8105ZM63.8105 15.5V14.5H61.8305V15.5V16.5H63.8105V15.5ZM70.188 15.5H69.188V16.5H70.188V15.5ZM70.188 7.8V6.8H69.188V7.8H70.188ZM75.798 7.8H76.798V6.8H75.798V7.8ZM75.798 9.318V10.318H76.798V9.318H75.798ZM72.168 9.318V8.318H71.168V9.318H72.168ZM72.168 10.825H71.168V11.825H72.168V10.825ZM75.468 10.825H76.468V9.825H75.468V10.825ZM75.468 12.255V13.255H76.468V12.255H75.468ZM72.168 12.255V11.255H71.168V12.255H72.168ZM72.168 13.982H71.168V14.982H72.168V13.982ZM75.798 13.982H76.798V12.982H75.798V13.982ZM75.798 15.5V16.5H76.798V15.5H75.798ZM70.188 15.5H71.188V7.8H70.188H69.188V15.5H70.188ZM70.188 7.8V8.8H75.798V7.8V6.8H70.188V7.8ZM75.798 7.8H74.798V9.318H75.798H76.798V7.8H75.798ZM75.798 9.318V8.318H72.168V9.318V10.318H75.798V9.318ZM72.168 9.318H71.168V10.825H72.168H73.168V9.318H72.168ZM72.168 10.825V11.825H75.468V10.825V9.825H72.168V10.825ZM75.468 10.825H74.468V12.255H75.468H76.468V10.825H75.468ZM75.468 12.255V11.255H72.168V12.255V13.255H75.468V12.255ZM72.168 12.255H71.168V13.982H72.168H73.168V12.255H72.168ZM72.168 13.982V14.982H75.798V13.982V12.982H72.168V13.982ZM75.798 13.982H74.798V15.5H75.798H76.798V13.982H75.798ZM75.798 15.5V14.5H70.188V15.5V16.5H75.798V15.5ZM78.5152 15.291L78.0786 16.1907L78.0865 16.1945L78.0945 16.1982L78.5152 15.291ZM77.3492 14.213L76.4769 14.702L76.4814 14.7099L76.4859 14.7177L77.3492 14.213ZM76.9422 7.8V6.8H75.9422V7.8H76.9422ZM78.9222 7.8H79.9222V6.8H78.9222V7.8ZM79.2302 13.542L78.3981 14.0967L78.4044 14.106L79.2302 13.542ZM81.3752 13.542L82.2104 14.092L82.2164 14.0828L81.3752 13.542ZM81.6722 7.8V6.8H80.6722V7.8H81.6722ZM83.6522 7.8H84.6522V6.8H83.6522V7.8ZM83.2452 14.213L84.1143 14.7077L84.1175 14.702L83.2452 14.213ZM82.0902 15.291L82.5161 16.1959L82.5268 16.1907L82.0902 15.291ZM80.2972 15.643V14.643C79.7289 14.643 79.2841 14.5453 78.936 14.3838L78.5152 15.291L78.0945 16.1982C78.7583 16.5061 79.5016 16.643 80.2972 16.643V15.643ZM78.5152 15.291L78.9518 14.3913C78.6306 14.2355 78.3908 14.0133 78.2125 13.7083L77.3492 14.213L76.4859 14.7177C76.865 15.3661 77.4025 15.8625 78.0786 16.1907L78.5152 15.291ZM77.3492 14.213L78.2215 13.724C78.0543 13.4258 77.9422 13.0073 77.9422 12.42H76.9422H75.9422C75.9422 13.2554 76.1015 14.0322 76.4769 14.702L77.3492 14.213ZM76.9422 12.42H77.9422V7.8H76.9422H75.9422V12.42H76.9422ZM76.9422 7.8V8.8H78.9222V7.8V6.8H76.9422V7.8ZM78.9222 7.8H77.9222V12.189H78.9222H79.9222V7.8H78.9222ZM78.9222 12.189H77.9222C77.9222 12.8714 78.0354 13.5526 78.3982 14.0967L79.2302 13.542L80.0623 12.9873C80.0144 12.9154 79.9222 12.6946 79.9222 12.189H78.9222ZM79.2302 13.542L78.4044 14.106C78.8631 14.7776 79.6007 14.993 80.2972 14.993V13.993V12.993C80.1385 12.993 80.0631 12.9688 80.0403 12.9592C80.0305 12.955 80.0319 12.9543 80.039 12.9599C80.0464 12.9659 80.0526 12.973 80.056 12.978L79.2302 13.542ZM80.2972 13.993V14.993C80.9926 14.993 81.7533 14.7861 82.2104 14.092L81.3752 13.542L80.5401 12.992C80.5469 12.9816 80.5568 12.9706 80.5674 12.9619C80.5776 12.9537 80.5811 12.9536 80.5713 12.9577C80.5475 12.9677 80.4672 12.993 80.2972 12.993V13.993ZM81.3752 13.542L82.2164 14.0828C82.5632 13.5433 82.6722 12.8733 82.6722 12.2H81.6722H80.6722C80.6722 12.7 80.5833 12.9247 80.534 13.0012L81.3752 13.542ZM81.6722 12.2H82.6722V7.8H81.6722H80.6722V12.2H81.6722ZM81.6722 7.8V8.8H83.6522V7.8V6.8H81.6722V7.8ZM83.6522 7.8H82.6522V12.42H83.6522H84.6522V7.8H83.6522ZM83.6522 12.42H82.6522C82.6522 13.0073 82.5401 13.4258 82.3729 13.724L83.2452 14.213L84.1175 14.702C84.493 14.0322 84.6522 13.2554 84.6522 12.42H83.6522ZM83.2452 14.213L82.3762 13.7183C82.2059 14.0174 81.9726 14.2365 81.6536 14.3913L82.0902 15.291L82.5268 16.1907C83.2052 15.8615 83.7419 15.3619 84.1143 14.7077L83.2452 14.213ZM82.0902 15.291L81.6644 14.3862C81.3293 14.5439 80.8844 14.643 80.2972 14.643V15.643V16.643C81.1034 16.643 81.8538 16.5074 82.516 16.1958L82.0902 15.291ZM86.9024 15.5H85.9024V16.5H86.9024V15.5ZM86.9024 9.428H87.9024V8.428H86.9024V9.428ZM84.5374 9.428H83.5374V10.428H84.5374V9.428ZM84.5374 7.8V6.8H83.5374V7.8H84.5374ZM91.2474 7.8H92.2474V6.8H91.2474V7.8ZM91.2474 9.428V10.428H92.2474V9.428H91.2474ZM88.8824 9.428V8.428H87.8824V9.428H88.8824ZM88.8824 15.5V16.5H89.8824V15.5H88.8824ZM86.9024 15.5H87.9024V9.428H86.9024H85.9024V15.5H86.9024ZM86.9024 9.428V8.428H84.5374V9.428V10.428H86.9024V9.428ZM84.5374 9.428H85.5374V7.8H84.5374H83.5374V9.428H84.5374ZM84.5374 7.8V8.8H91.2474V7.8V6.8H84.5374V7.8ZM91.2474 7.8H90.2474V9.428H91.2474H92.2474V7.8H91.2474ZM91.2474 9.428V8.428H88.8824V9.428V10.428H91.2474V9.428ZM88.8824 9.428H87.8824V15.5H88.8824H89.8824V9.428H88.8824ZM88.8824 15.5V14.5H86.9024V15.5V16.5H88.8824V15.5ZM92.2417 15.5H91.2417V16.5H92.2417V15.5ZM92.2417 7.8V6.8H91.2417V7.8H92.2417ZM97.2027 8.119L96.7555 9.01345L96.7616 9.01645L97.2027 8.119ZM98.1817 9.01L97.3155 9.50972V9.50972L98.1817 9.01ZM98.1157 11.793L97.2836 11.2383L97.2812 11.2419L98.1157 11.793ZM96.9497 12.651L96.6176 11.7078L95.4396 12.1225L96.1019 13.1813L96.9497 12.651ZM98.7317 15.5V16.5H100.537L99.5795 14.9697L98.7317 15.5ZM96.5317 15.5L95.6617 15.993L95.949 16.5H96.5317V15.5ZM95.0357 12.86L95.9057 12.367L95.6184 11.86H95.0357V12.86ZM94.2217 12.86V11.86H93.2217V12.86H94.2217ZM94.2217 15.5V16.5H95.2217V15.5H94.2217ZM94.2217 11.32H93.2217V12.32H94.2217V11.32ZM96.2347 11.089L96.863 11.8669L96.8664 11.8642L96.2347 11.089ZM96.2347 9.67L95.5887 10.4334L95.6045 10.4467L95.6207 10.4594L96.2347 9.67ZM94.2217 9.428V8.428H93.2217V9.428H94.2217ZM92.2417 15.5H93.2417V7.8H92.2417H91.2417V15.5H92.2417ZM92.2417 7.8V8.8H95.5967V7.8V6.8H92.2417V7.8ZM95.5967 7.8V8.8C96.1394 8.8 96.5095 8.89043 96.7555 9.01343L97.2027 8.119L97.6499 7.22457C97.0452 6.92224 96.3446 6.8 95.5967 6.8V7.8ZM97.2027 8.119L96.7616 9.01645C97.0339 9.15031 97.204 9.31647 97.3155 9.50972L98.1817 9.01L99.0479 8.51028C98.7194 7.94086 98.2368 7.51303 97.6438 7.22155L97.2027 8.119ZM98.1817 9.01L97.3155 9.50972C97.4319 9.71141 97.5117 9.98642 97.5117 10.374H98.5117H99.5117C99.5117 9.70558 99.3715 9.07126 99.0479 8.51028L98.1817 9.01ZM98.5117 10.374H97.5117C97.5117 10.7581 97.4218 11.031 97.2836 11.2383L98.1157 11.793L98.9477 12.3477C99.3375 11.763 99.5117 11.0899 99.5117 10.374H98.5117ZM98.1157 11.793L97.2812 11.2419C97.1659 11.4166 96.9719 11.583 96.6176 11.7078L96.9497 12.651L97.2818 13.5942C97.9688 13.3523 98.5521 12.9467 98.9501 12.3441L98.1157 11.793ZM96.9497 12.651L96.1019 13.1813L97.8839 16.0303L98.7317 15.5L99.5795 14.9697L97.7975 12.1207L96.9497 12.651ZM98.7317 15.5V14.5H96.5317V15.5V16.5H98.7317V15.5ZM96.5317 15.5L97.4017 15.007L95.9057 12.367L95.0357 12.86L94.1657 13.353L95.6617 15.993L96.5317 15.5ZM95.0357 12.86V11.86H94.2217V12.86V13.86H95.0357V12.86ZM94.2217 12.86H93.2217V15.5H94.2217H95.2217V12.86H94.2217ZM94.2217 15.5V14.5H92.2417V15.5V16.5H94.2217V15.5ZM94.2217 11.32V12.32H95.1567V11.32V10.32H94.2217V11.32ZM95.1567 11.32V12.32C95.4634 12.32 95.7605 12.2982 96.0317 12.2401C96.2945 12.1837 96.6 12.0794 96.863 11.8669L96.2347 11.089L95.6063 10.3111C95.6787 10.2526 95.7092 10.2638 95.6126 10.2844C95.5245 10.3033 95.378 10.32 95.1567 10.32V11.32ZM96.2347 11.089L96.8664 11.8642C97.3514 11.469 97.5317 10.9126 97.5317 10.374H96.5317H95.5317C95.5317 10.4284 95.5231 10.4318 95.5339 10.4056C95.5394 10.3924 95.5485 10.3752 95.562 10.3571C95.5755 10.3389 95.59 10.3244 95.603 10.3138L96.2347 11.089ZM96.5317 10.374H97.5317C97.5317 9.83734 97.3517 9.27191 96.8486 8.88065L96.2347 9.67L95.6207 10.4594C95.6042 10.4465 95.5864 10.4292 95.57 10.4078C95.5538 10.3865 95.5428 10.3662 95.5361 10.3502C95.5229 10.319 95.5317 10.319 95.5317 10.374H96.5317ZM96.2347 9.67L96.8806 8.90661C96.6176 8.68408 96.3092 8.57294 96.0412 8.51278C95.7661 8.45102 95.4655 8.428 95.1567 8.428V9.428V10.428C95.3759 10.428 95.5189 10.4453 95.6031 10.4642C95.6945 10.4847 95.6611 10.4946 95.5887 10.4334L96.2347 9.67ZM95.1567 9.428V8.428H94.2217V9.428V10.428H95.1567V9.428ZM94.2217 9.428H93.2217V11.32H94.2217H95.2217V9.428H94.2217ZM99.2728 15.5L98.3337 15.1565L97.8423 16.5H99.2728V15.5ZM102.089 7.8V6.8H101.39L101.15 7.45653L102.089 7.8ZM104.069 7.8L105.008 7.45772L104.769 6.8H104.069V7.8ZM106.874 15.5V16.5H108.302L107.813 15.1577L106.874 15.5ZM104.784 15.5L103.842 15.8372L104.08 16.5H104.784V15.5ZM104.256 14.026L105.197 13.6888L104.96 13.026H104.256V14.026ZM101.682 14.026V13.026H100.978L100.74 13.6888L101.682 14.026ZM101.154 15.5V16.5H101.858L102.095 15.8372L101.154 15.5ZM102.243 12.508L101.29 12.2056L100.876 13.508H102.243V12.508ZM103.695 12.508V13.508H105.061L104.648 12.2056L103.695 12.508ZM102.969 10.22L103.922 9.91755L102.969 6.91364L102.016 9.91755L102.969 10.22ZM99.2728 15.5L100.212 15.8435L103.028 8.14347L102.089 7.8L101.15 7.45653L98.3337 15.1565L99.2728 15.5ZM102.089 7.8V8.8H104.069V7.8V6.8H102.089V7.8ZM104.069 7.8L103.129 8.14228L105.934 15.8423L106.874 15.5L107.813 15.1577L105.008 7.45772L104.069 7.8ZM106.874 15.5V14.5H104.784V15.5V16.5H106.874V15.5ZM104.784 15.5L105.725 15.1628L105.197 13.6888L104.256 14.026L103.314 14.3632L103.842 15.8372L104.784 15.5ZM104.256 14.026V13.026H101.682V14.026V15.026H104.256V14.026ZM101.682 14.026L100.74 13.6888L100.212 15.1628L101.154 15.5L102.095 15.8372L102.623 14.3632L101.682 14.026ZM101.154 15.5V14.5H99.2728V15.5V16.5H101.154V15.5ZM102.243 12.508V13.508H103.695V12.508V11.508H102.243V12.508ZM103.695 12.508L104.648 12.2056L103.922 9.91755L102.969 10.22L102.016 10.5224L102.742 12.8104L103.695 12.508ZM102.969 10.22L102.016 9.91755L101.29 12.2056L102.243 12.508L103.196 12.8104L103.922 10.5224L102.969 10.22ZM107.753 15.5H106.753V16.5H107.753V15.5ZM107.753 7.8V6.8H106.753V7.8H107.753ZM109.733 7.8H110.733V6.8H109.733V7.8ZM109.733 13.872H108.733V14.872H109.733V13.872ZM113.033 13.872H114.033V12.872H113.033V13.872ZM113.033 15.5V16.5H114.033V15.5H113.033ZM107.753 15.5H108.753V7.8H107.753H106.753V15.5H107.753ZM107.753 7.8V8.8H109.733V7.8V6.8H107.753V7.8ZM109.733 7.8H108.733V13.872H109.733H110.733V7.8H109.733ZM109.733 13.872V14.872H113.033V13.872V12.872H109.733V13.872ZM113.033 13.872H112.033V15.5H113.033H114.033V13.872H113.033ZM113.033 15.5V14.5H107.753V15.5V16.5H113.033V15.5Z" fill="black" fill-opacity="0.2" mask="url(#path-5-outside-1_4339_51722)"/>
</g>
<defs>
<filter id="filter0_d_4339_51722" x="0" y="0" width="122" height="23.14" filterUnits="userSpaceOnUse" color-interpolation-filters="sRGB">
<feFlood flood-opacity="0" result="BackgroundImageFix"/>
<feColorMatrix in="SourceAlpha" type="matrix" values="0 0 0 0 0 0 0 0 0 0 0 0 0 0 0 0 0 0 127 0" result="hardAlpha"/>
<feOffset dy="1.14"/>
<feComposite in2="hardAlpha" operator="out"/>
<feColorMatrix type="matrix" values="0 0 0 0 0.24 0 0 0 0 0.0758824 0 0 0 0 0 0 0 0 1 0"/>
<feBlend mode="normal" in2="BackgroundImageFix" result="effect1_dropShadow_4339_51722"/>
<feBlend mode="normal" in="SourceGraphic" in2="effect1_dropShadow_4339_51722" result="shape"/>
</filter>
<linearGradient id="paint0_linear_4339_51722" x1="61" y1="22" x2="61" y2="0" gradientUnits="userSpaceOnUse">
<stop stop-color="#E26C36"/>
<stop offset="1" stop-color="#93390F"/>
</linearGradient>
</defs>
</svg>
