<svg width="18" height="18" viewBox="0 0 18 18" fill="none" xmlns="http://www.w3.org/2000/svg">
<g>
<path d="M9.00347 13.6622C9.72835 13.6622 10.316 13.0745 10.316 12.3497C10.316 11.6248 9.72835 11.0372 9.00347 11.0372C8.2786 11.0372 7.69097 11.6248 7.69097 12.3497C7.69097 13.0745 8.2786 13.6622 9.00347 13.6622Z" fill="black"/>
<path d="M13.9498 4.05026C12.6276 2.72811 10.8698 2 9 2C7.13023 2 5.37239 2.72811 4.05023 4.05026C2.72814 5.37239 2 7.13023 2 9C2 10.8698 2.72814 12.6276 4.05023 13.9497C5.37239 15.2719 7.13023 16 9 16C10.8698 16 12.6276 15.2719 13.9498 13.9497C15.2719 12.6276 16 10.8698 16 9C16 7.13023 15.2719 5.37239 13.9498 4.05026ZM9.00347 4.30811C9.72836 4.30811 10.316 4.89573 10.316 5.62061C10.316 6.3455 9.72836 6.93311 9.00347 6.93311C8.27859 6.93311 7.69097 6.3455 7.69097 5.62061C7.69097 4.89573 8.27859 4.30811 9.00347 4.30811ZM4.43696 13.563C3.21811 12.3442 2.54687 10.7237 2.54687 9C2.54687 7.2763 3.21811 5.65578 4.43696 4.43696C5.22938 3.64451 6.19171 3.08385 7.24169 2.78832C6.28354 3.38384 5.63672 4.43704 5.63672 5.63672C5.63672 7.49421 7.15618 9.00172 9.01367 9.00172C10.8712 9.00172 12.3906 10.5093 12.3906 12.3668C12.3906 13.5425 11.7872 14.5772 10.8732 15.1784C10.2736 15.3593 9.644 15.4531 9 15.4531C7.2763 15.4531 5.65578 14.7819 4.43696 13.563Z" fill="black"/>
</g>
</svg>
