<svg width="90" height="24" viewBox="0 0 90 24" fill="none" xmlns="http://www.w3.org/2000/svg">
<g filter="url(#filter0_d_51_1573)">
<rect width="90" height="22" rx="11" fill="url(#paint0_linear_51_1573)"/>
<rect x="1.2" y="1.2" width="87.6" height="19.6" rx="9.8" stroke="black" stroke-opacity="0.24" stroke-width="2.4"/>
</g>
<path d="M17.0124 9.88813V10.725C16.3995 11.9458 14.6536 11.5242 14.6536 10.25L15.6433 8.77011L14 7L12.3565 8.77011L13.3464 10.25C13.3464 11.5242 11.6005 11.9458 10.9876 10.725V9.88813L8 8.60683L10.0985 13.6639H17.9016L20 8.60683L17.0124 9.88813ZM10.164 15H17.836V14.1094H10.164V15Z" fill="white" fill-opacity="0.85"/>
<path d="M11.4873 10.5889C11.8859 11.2198 12.7207 10.9612 12.833 10.3818L11.9414 9.04785L11.7207 8.71973L11.9902 8.42969L13.6338 6.66016L14 6.26465L14.3662 6.66016L16.0098 8.42969L16.2783 8.71973L16.0586 9.04785L15.166 10.3818C15.2782 10.9613 16.114 11.2199 16.5127 10.5889V9.55859L16.8154 9.42871L19.8027 8.14746L20.9336 7.66211L20.4619 8.79883L18.3633 13.8555L18.3359 13.9209V15.5H9.66406V13.9209L9.63672 13.8555L7.53809 8.79883L7.06641 7.66211L8.19727 8.14746L11.1846 9.42871L11.4873 9.55859V10.5889Z" stroke="black" stroke-opacity="0.16"/>
<mask id="path-5-outside-1_51_1573" maskUnits="userSpaceOnUse" x="25.77" y="6.15698" width="57" height="10" fill="black">
<rect fill="white" x="25.77" y="6.15698" width="57" height="10"/>
<path d="M26.77 15V7.29998H32.215V8.81798H28.75V10.6H31.885V12.03H28.75V15H26.77Z"/>
<path d="M33.312 15V7.29998H35.292V13.372H38.592V15H33.312Z"/>
<path d="M39.1293 15L41.9453 7.29998H43.9253L46.7303 15H44.6403L44.1123 13.526H41.5383L41.0103 15H39.1293ZM42.0993 12.008H43.5513L42.8253 9.71998L42.0993 12.008Z"/>
<path d="M50.805 15.143C50.1084 15.143 49.4814 15.011 48.924 14.747C48.3667 14.4756 47.9267 14.0503 47.604 13.471C47.2814 12.8916 47.12 12.1363 47.12 11.205V10.985C47.12 10.3176 47.2154 9.74565 47.406 9.26898C47.5967 8.78498 47.857 8.38898 48.187 8.08098C48.5244 7.76565 48.9094 7.53465 49.342 7.38798C49.782 7.23398 50.2514 7.15698 50.75 7.15698C51.19 7.15698 51.6007 7.20832 51.982 7.31098C52.3634 7.41365 52.7007 7.57498 52.994 7.79498C53.2947 8.00765 53.5404 8.28265 53.731 8.61998C53.929 8.95732 54.0537 9.36065 54.105 9.82998H52.048C51.9894 9.55132 51.8867 9.33865 51.74 9.19198C51.6007 9.04532 51.443 8.94632 51.267 8.89498C51.0984 8.83632 50.926 8.80698 50.75 8.80698C50.442 8.80698 50.167 8.87665 49.925 9.01598C49.6904 9.14798 49.5034 9.37165 49.364 9.68698C49.232 10.0023 49.166 10.435 49.166 10.985V11.205C49.166 11.6156 49.2064 11.9676 49.287 12.261C49.3677 12.547 49.4777 12.7816 49.617 12.965C49.7637 13.1483 49.936 13.284 50.134 13.372C50.3394 13.4526 50.563 13.493 50.805 13.493C51.0764 13.493 51.333 13.449 51.575 13.361C51.817 13.2656 52.0187 13.119 52.18 12.921C52.3414 12.723 52.4257 12.47 52.433 12.162H51.025V10.908H54.27V11.425C54.27 12.085 54.182 12.6496 54.006 13.119C53.8374 13.5883 53.599 13.9733 53.291 14.274C52.983 14.5746 52.6164 14.7946 52.191 14.934C51.773 15.0733 51.311 15.143 50.805 15.143Z"/>
<path d="M58.3989 15.143C57.6802 15.143 57.0826 15.0476 56.6059 14.857C56.1292 14.6663 55.7699 14.3986 55.5279 14.054C55.2932 13.702 55.1686 13.284 55.1539 12.8H57.1339C57.1926 13.0786 57.3209 13.284 57.5189 13.416C57.7169 13.5406 58.0102 13.603 58.3989 13.603C58.8169 13.603 59.1286 13.5443 59.3339 13.427C59.5466 13.3096 59.6529 13.13 59.6529 12.888C59.6529 12.69 59.5832 12.5323 59.4439 12.415C59.3119 12.2976 59.1066 12.1986 58.8279 12.118C58.5492 12.0373 58.2156 11.953 57.8269 11.865C57.3209 11.7476 56.8846 11.5973 56.5179 11.414C56.1512 11.2233 55.8689 10.9703 55.6709 10.655C55.4729 10.3396 55.3739 9.93265 55.3739 9.43398C55.3739 8.94998 55.4949 8.53932 55.7369 8.20198C55.9862 7.86465 56.3382 7.60798 56.7929 7.43198C57.2476 7.24865 57.7829 7.15698 58.3989 7.15698C59.0736 7.15698 59.6309 7.24498 60.0709 7.42098C60.5182 7.59698 60.8556 7.84998 61.0829 8.17998C61.3176 8.50998 61.4496 8.91332 61.4789 9.38998H59.4989C59.4549 9.15532 59.3486 8.98298 59.1799 8.87298C59.0112 8.75565 58.7509 8.69698 58.3989 8.69698C58.0102 8.69698 57.7389 8.75932 57.5849 8.88398C57.4309 9.00865 57.3539 9.16998 57.3539 9.36798C57.3539 9.63932 57.4932 9.83732 57.7719 9.96198C58.0579 10.0866 58.4686 10.2003 59.0039 10.303C59.3999 10.3836 59.7592 10.4826 60.0819 10.6C60.4119 10.7173 60.6906 10.8676 60.9179 11.051C61.1526 11.2343 61.3322 11.4616 61.4569 11.733C61.5816 11.997 61.6439 12.3233 61.6439 12.712C61.6439 13.218 61.5156 13.6543 61.2589 14.021C61.0022 14.3803 60.6319 14.659 60.1479 14.857C59.6639 15.0476 59.0809 15.143 58.3989 15.143Z"/>
<path d="M62.853 15V7.29998H64.833V10.226H67.693V7.29998H69.673V15H67.693V11.854H64.833V15H62.853Z"/>
<path d="M71.3204 15V7.29998H73.3004V15H71.3204Z"/>
<path d="M74.9487 15V7.29998H78.0837C78.8024 7.29998 79.3927 7.40632 79.8547 7.61898C80.3167 7.82432 80.6577 8.12498 80.8777 8.52098C81.1051 8.90965 81.2187 9.37898 81.2187 9.92898C81.2187 10.4716 81.1051 10.941 80.8777 11.337C80.6577 11.733 80.3167 12.0373 79.8547 12.25C79.3927 12.4553 78.8024 12.558 78.0837 12.558H76.9287V15H74.9487ZM76.9287 10.93H77.8637C78.3697 10.93 78.7254 10.8456 78.9307 10.677C79.1361 10.5083 79.2387 10.259 79.2387 9.92898C79.2387 9.59898 79.1361 9.34965 78.9307 9.18098C78.7254 9.01232 78.3697 8.92798 77.8637 8.92798H76.9287V10.93Z"/>
</mask>
<path d="M26.77 15V7.29998H32.215V8.81798H28.75V10.6H31.885V12.03H28.75V15H26.77Z" fill="white" fill-opacity="0.85"/>
<path d="M33.312 15V7.29998H35.292V13.372H38.592V15H33.312Z" fill="white" fill-opacity="0.85"/>
<path d="M39.1293 15L41.9453 7.29998H43.9253L46.7303 15H44.6403L44.1123 13.526H41.5383L41.0103 15H39.1293ZM42.0993 12.008H43.5513L42.8253 9.71998L42.0993 12.008Z" fill="white" fill-opacity="0.85"/>
<path d="M50.805 15.143C50.1084 15.143 49.4814 15.011 48.924 14.747C48.3667 14.4756 47.9267 14.0503 47.604 13.471C47.2814 12.8916 47.12 12.1363 47.12 11.205V10.985C47.12 10.3176 47.2154 9.74565 47.406 9.26898C47.5967 8.78498 47.857 8.38898 48.187 8.08098C48.5244 7.76565 48.9094 7.53465 49.342 7.38798C49.782 7.23398 50.2514 7.15698 50.75 7.15698C51.19 7.15698 51.6007 7.20832 51.982 7.31098C52.3634 7.41365 52.7007 7.57498 52.994 7.79498C53.2947 8.00765 53.5404 8.28265 53.731 8.61998C53.929 8.95732 54.0537 9.36065 54.105 9.82998H52.048C51.9894 9.55132 51.8867 9.33865 51.74 9.19198C51.6007 9.04532 51.443 8.94632 51.267 8.89498C51.0984 8.83632 50.926 8.80698 50.75 8.80698C50.442 8.80698 50.167 8.87665 49.925 9.01598C49.6904 9.14798 49.5034 9.37165 49.364 9.68698C49.232 10.0023 49.166 10.435 49.166 10.985V11.205C49.166 11.6156 49.2064 11.9676 49.287 12.261C49.3677 12.547 49.4777 12.7816 49.617 12.965C49.7637 13.1483 49.936 13.284 50.134 13.372C50.3394 13.4526 50.563 13.493 50.805 13.493C51.0764 13.493 51.333 13.449 51.575 13.361C51.817 13.2656 52.0187 13.119 52.18 12.921C52.3414 12.723 52.4257 12.47 52.433 12.162H51.025V10.908H54.27V11.425C54.27 12.085 54.182 12.6496 54.006 13.119C53.8374 13.5883 53.599 13.9733 53.291 14.274C52.983 14.5746 52.6164 14.7946 52.191 14.934C51.773 15.0733 51.311 15.143 50.805 15.143Z" fill="white" fill-opacity="0.85"/>
<path d="M58.3989 15.143C57.6802 15.143 57.0826 15.0476 56.6059 14.857C56.1292 14.6663 55.7699 14.3986 55.5279 14.054C55.2932 13.702 55.1686 13.284 55.1539 12.8H57.1339C57.1926 13.0786 57.3209 13.284 57.5189 13.416C57.7169 13.5406 58.0102 13.603 58.3989 13.603C58.8169 13.603 59.1286 13.5443 59.3339 13.427C59.5466 13.3096 59.6529 13.13 59.6529 12.888C59.6529 12.69 59.5832 12.5323 59.4439 12.415C59.3119 12.2976 59.1066 12.1986 58.8279 12.118C58.5492 12.0373 58.2156 11.953 57.8269 11.865C57.3209 11.7476 56.8846 11.5973 56.5179 11.414C56.1512 11.2233 55.8689 10.9703 55.6709 10.655C55.4729 10.3396 55.3739 9.93265 55.3739 9.43398C55.3739 8.94998 55.4949 8.53932 55.7369 8.20198C55.9862 7.86465 56.3382 7.60798 56.7929 7.43198C57.2476 7.24865 57.7829 7.15698 58.3989 7.15698C59.0736 7.15698 59.6309 7.24498 60.0709 7.42098C60.5182 7.59698 60.8556 7.84998 61.0829 8.17998C61.3176 8.50998 61.4496 8.91332 61.4789 9.38998H59.4989C59.4549 9.15532 59.3486 8.98298 59.1799 8.87298C59.0112 8.75565 58.7509 8.69698 58.3989 8.69698C58.0102 8.69698 57.7389 8.75932 57.5849 8.88398C57.4309 9.00865 57.3539 9.16998 57.3539 9.36798C57.3539 9.63932 57.4932 9.83732 57.7719 9.96198C58.0579 10.0866 58.4686 10.2003 59.0039 10.303C59.3999 10.3836 59.7592 10.4826 60.0819 10.6C60.4119 10.7173 60.6906 10.8676 60.9179 11.051C61.1526 11.2343 61.3322 11.4616 61.4569 11.733C61.5816 11.997 61.6439 12.3233 61.6439 12.712C61.6439 13.218 61.5156 13.6543 61.2589 14.021C61.0022 14.3803 60.6319 14.659 60.1479 14.857C59.6639 15.0476 59.0809 15.143 58.3989 15.143Z" fill="white" fill-opacity="0.85"/>
<path d="M62.853 15V7.29998H64.833V10.226H67.693V7.29998H69.673V15H67.693V11.854H64.833V15H62.853Z" fill="white" fill-opacity="0.85"/>
<path d="M71.3204 15V7.29998H73.3004V15H71.3204Z" fill="white" fill-opacity="0.85"/>
<path d="M74.9487 15V7.29998H78.0837C78.8024 7.29998 79.3927 7.40632 79.8547 7.61898C80.3167 7.82432 80.6577 8.12498 80.8777 8.52098C81.1051 8.90965 81.2187 9.37898 81.2187 9.92898C81.2187 10.4716 81.1051 10.941 80.8777 11.337C80.6577 11.733 80.3167 12.0373 79.8547 12.25C79.3927 12.4553 78.8024 12.558 78.0837 12.558H76.9287V15H74.9487ZM76.9287 10.93H77.8637C78.3697 10.93 78.7254 10.8456 78.9307 10.677C79.1361 10.5083 79.2387 10.259 79.2387 9.92898C79.2387 9.59898 79.1361 9.34965 78.9307 9.18098C78.7254 9.01232 78.3697 8.92798 77.8637 8.92798H76.9287V10.93Z" fill="white" fill-opacity="0.85"/>
<path d="M26.77 15V7.29998H32.215V8.81798H28.75V10.6H31.885V12.03H28.75V15H26.77Z" stroke="black" stroke-opacity="0.2" stroke-width="2" mask="url(#path-5-outside-1_51_1573)"/>
<path d="M33.312 15V7.29998H35.292V13.372H38.592V15H33.312Z" stroke="black" stroke-opacity="0.2" stroke-width="2" mask="url(#path-5-outside-1_51_1573)"/>
<path d="M39.1293 15L41.9453 7.29998H43.9253L46.7303 15H44.6403L44.1123 13.526H41.5383L41.0103 15H39.1293ZM42.0993 12.008H43.5513L42.8253 9.71998L42.0993 12.008Z" stroke="black" stroke-opacity="0.2" stroke-width="2" mask="url(#path-5-outside-1_51_1573)"/>
<path d="M50.805 15.143C50.1084 15.143 49.4814 15.011 48.924 14.747C48.3667 14.4756 47.9267 14.0503 47.604 13.471C47.2814 12.8916 47.12 12.1363 47.12 11.205V10.985C47.12 10.3176 47.2154 9.74565 47.406 9.26898C47.5967 8.78498 47.857 8.38898 48.187 8.08098C48.5244 7.76565 48.9094 7.53465 49.342 7.38798C49.782 7.23398 50.2514 7.15698 50.75 7.15698C51.19 7.15698 51.6007 7.20832 51.982 7.31098C52.3634 7.41365 52.7007 7.57498 52.994 7.79498C53.2947 8.00765 53.5404 8.28265 53.731 8.61998C53.929 8.95732 54.0537 9.36065 54.105 9.82998H52.048C51.9894 9.55132 51.8867 9.33865 51.74 9.19198C51.6007 9.04532 51.443 8.94632 51.267 8.89498C51.0984 8.83632 50.926 8.80698 50.75 8.80698C50.442 8.80698 50.167 8.87665 49.925 9.01598C49.6904 9.14798 49.5034 9.37165 49.364 9.68698C49.232 10.0023 49.166 10.435 49.166 10.985V11.205C49.166 11.6156 49.2064 11.9676 49.287 12.261C49.3677 12.547 49.4777 12.7816 49.617 12.965C49.7637 13.1483 49.936 13.284 50.134 13.372C50.3394 13.4526 50.563 13.493 50.805 13.493C51.0764 13.493 51.333 13.449 51.575 13.361C51.817 13.2656 52.0187 13.119 52.18 12.921C52.3414 12.723 52.4257 12.47 52.433 12.162H51.025V10.908H54.27V11.425C54.27 12.085 54.182 12.6496 54.006 13.119C53.8374 13.5883 53.599 13.9733 53.291 14.274C52.983 14.5746 52.6164 14.7946 52.191 14.934C51.773 15.0733 51.311 15.143 50.805 15.143Z" stroke="black" stroke-opacity="0.2" stroke-width="2" mask="url(#path-5-outside-1_51_1573)"/>
<path d="M58.3989 15.143C57.6802 15.143 57.0826 15.0476 56.6059 14.857C56.1292 14.6663 55.7699 14.3986 55.5279 14.054C55.2932 13.702 55.1686 13.284 55.1539 12.8H57.1339C57.1926 13.0786 57.3209 13.284 57.5189 13.416C57.7169 13.5406 58.0102 13.603 58.3989 13.603C58.8169 13.603 59.1286 13.5443 59.3339 13.427C59.5466 13.3096 59.6529 13.13 59.6529 12.888C59.6529 12.69 59.5832 12.5323 59.4439 12.415C59.3119 12.2976 59.1066 12.1986 58.8279 12.118C58.5492 12.0373 58.2156 11.953 57.8269 11.865C57.3209 11.7476 56.8846 11.5973 56.5179 11.414C56.1512 11.2233 55.8689 10.9703 55.6709 10.655C55.4729 10.3396 55.3739 9.93265 55.3739 9.43398C55.3739 8.94998 55.4949 8.53932 55.7369 8.20198C55.9862 7.86465 56.3382 7.60798 56.7929 7.43198C57.2476 7.24865 57.7829 7.15698 58.3989 7.15698C59.0736 7.15698 59.6309 7.24498 60.0709 7.42098C60.5182 7.59698 60.8556 7.84998 61.0829 8.17998C61.3176 8.50998 61.4496 8.91332 61.4789 9.38998H59.4989C59.4549 9.15532 59.3486 8.98298 59.1799 8.87298C59.0112 8.75565 58.7509 8.69698 58.3989 8.69698C58.0102 8.69698 57.7389 8.75932 57.5849 8.88398C57.4309 9.00865 57.3539 9.16998 57.3539 9.36798C57.3539 9.63932 57.4932 9.83732 57.7719 9.96198C58.0579 10.0866 58.4686 10.2003 59.0039 10.303C59.3999 10.3836 59.7592 10.4826 60.0819 10.6C60.4119 10.7173 60.6906 10.8676 60.9179 11.051C61.1526 11.2343 61.3322 11.4616 61.4569 11.733C61.5816 11.997 61.6439 12.3233 61.6439 12.712C61.6439 13.218 61.5156 13.6543 61.2589 14.021C61.0022 14.3803 60.6319 14.659 60.1479 14.857C59.6639 15.0476 59.0809 15.143 58.3989 15.143Z" stroke="black" stroke-opacity="0.2" stroke-width="2" mask="url(#path-5-outside-1_51_1573)"/>
<path d="M62.853 15V7.29998H64.833V10.226H67.693V7.29998H69.673V15H67.693V11.854H64.833V15H62.853Z" stroke="black" stroke-opacity="0.2" stroke-width="2" mask="url(#path-5-outside-1_51_1573)"/>
<path d="M71.3204 15V7.29998H73.3004V15H71.3204Z" stroke="black" stroke-opacity="0.2" stroke-width="2" mask="url(#path-5-outside-1_51_1573)"/>
<path d="M74.9487 15V7.29998H78.0837C78.8024 7.29998 79.3927 7.40632 79.8547 7.61898C80.3167 7.82432 80.6577 8.12498 80.8777 8.52098C81.1051 8.90965 81.2187 9.37898 81.2187 9.92898C81.2187 10.4716 81.1051 10.941 80.8777 11.337C80.6577 11.733 80.3167 12.0373 79.8547 12.25C79.3927 12.4553 78.8024 12.558 78.0837 12.558H76.9287V15H74.9487ZM76.9287 10.93H77.8637C78.3697 10.93 78.7254 10.8456 78.9307 10.677C79.1361 10.5083 79.2387 10.259 79.2387 9.92898C79.2387 9.59898 79.1361 9.34965 78.9307 9.18098C78.7254 9.01232 78.3697 8.92798 77.8637 8.92798H76.9287V10.93Z" stroke="black" stroke-opacity="0.2" stroke-width="2" mask="url(#path-5-outside-1_51_1573)"/>
<defs>
<filter id="filter0_d_51_1573" x="0" y="0" width="90" height="23.14" filterUnits="userSpaceOnUse" color-interpolation-filters="sRGB">
<feFlood flood-opacity="0" result="BackgroundImageFix"/>
<feColorMatrix in="SourceAlpha" type="matrix" values="0 0 0 0 0 0 0 0 0 0 0 0 0 0 0 0 0 0 127 0" result="hardAlpha"/>
<feOffset dy="1.14"/>
<feComposite in2="hardAlpha" operator="out"/>
<feColorMatrix type="matrix" values="0 0 0 0 0.0540541 0 0 0 0 0 0 0 0 0 0.24 0 0 0 1 0"/>
<feBlend mode="normal" in2="BackgroundImageFix" result="effect1_dropShadow_51_1573"/>
<feBlend mode="normal" in="SourceGraphic" in2="effect1_dropShadow_51_1573" result="shape"/>
</filter>
<linearGradient id="paint0_linear_51_1573" x1="45" y1="22" x2="45" y2="0" gradientUnits="userSpaceOnUse">
<stop stop-color="#8E70F9"/>
<stop offset="1" stop-color="#5837C9"/>
</linearGradient>
</defs>
</svg>
