<svg width="179" height="143" viewBox="0 0 179 143" fill="none" xmlns="http://www.w3.org/2000/svg">
<g filter="url(#filter0_dddi_4324_51621)">
<rect x="8" y="8" width="163" height="127" rx="16" fill="url(#paint0_linear_4324_51621)" shape-rendering="crispEdges"/>
<g clip-path="url(#clip0_4324_51621)">
<g clip-path="url(#clip1_4324_51621)">
<path d="M26 66C45.8823 66 62 49.8823 62 30C62 10.1177 45.8823 -6 26 -6C6.11775 -6 -10 10.1177 -10 30C-10 49.8823 6.11775 66 26 66Z" fill="#248670"/>
<path d="M26.0008 62.004C43.6739 62.004 58.0008 47.6771 58.0008 30.0039C58.0008 12.3308 43.6739 -1.99609 26.0008 -1.99609C8.32764 -1.99609 -5.99927 12.3308 -5.99927 30.0039C-5.99927 47.6771 8.32764 62.004 26.0008 62.004Z" fill="#248670"/>
<path d="M48.3499 7.10318C55.6683 14.259 59.4337 24.7937 57.4994 35.6296C55.5649 46.4649 48.3872 55.0448 39.0452 59.2263L48.3499 7.10318ZM-5.5047 24.3825C-3.51257 13.223 4.04015 4.45371 13.7917 0.419883L4.30909 53.5397C-3.44423 46.3811 -7.49646 35.5414 -5.5047 24.3825Z" fill="#F2F3E7"/>
<path d="M26.0075 58.0097C41.471 58.0097 54.0065 45.4741 54.0065 30.0107C54.0065 14.5473 41.471 2.01172 26.0075 2.01172C10.5441 2.01172 -1.99146 14.5473 -1.99146 30.0107C-1.99146 45.4741 10.5441 58.0097 26.0075 58.0097Z" fill="#248670"/>
<path d="M10.2605 14.2596C11.6914 14.2576 13.1223 14.2561 14.5531 14.2553C14.723 14.2552 14.8929 14.255 15.0627 14.2549C15.0966 14.2549 15.1304 14.2549 15.1652 14.2549C15.7089 14.2545 16.2525 14.2538 16.7962 14.2531C17.3563 14.2523 17.9163 14.2518 18.4764 14.2516C18.79 14.2515 19.1036 14.2513 19.4173 14.2507C20.9998 14.2476 22.579 14.248 24.1533 14.4198C24.1867 14.4233 24.2201 14.4268 24.2545 14.4305C26.1176 14.6285 28.0315 14.9796 29.7232 15.7725C29.7579 15.7885 29.7926 15.8046 29.8283 15.8211C30.3157 16.0479 30.7632 16.2993 31.193 16.613C31.2343 16.6427 31.2756 16.6723 31.3182 16.7028C32.4337 17.5306 33.1862 18.5964 33.5534 19.8911C33.5684 19.9439 33.5684 19.9439 33.5837 19.9979C33.7324 20.556 33.7486 21.1155 33.7511 21.6877C33.7513 21.7219 33.7516 21.7561 33.7519 21.7913C33.7612 23.5958 33.0328 25.1828 31.7274 26.4893C31.6975 26.5202 31.6676 26.5511 31.6368 26.583C29.3864 28.8256 25.4211 29.0119 22.3746 29.1369C22.5783 29.2025 22.782 29.2679 22.9857 29.3334C23.1688 29.3922 23.3517 29.4511 23.5347 29.51C24.0547 29.6773 24.575 29.8435 25.096 30.0079C25.2766 30.065 25.4572 30.1222 25.6378 30.1795C25.8148 30.2356 25.992 30.2913 26.1692 30.3469C26.3067 30.3901 26.444 30.4338 26.5813 30.4774C26.6565 30.5008 26.6565 30.5008 26.7333 30.5246C26.8021 30.5466 26.8021 30.5466 26.8724 30.5691C26.9125 30.5817 26.9525 30.5943 26.9938 30.6073C27.1728 30.6822 27.2548 30.8052 27.3567 30.958C27.3812 30.9946 27.4057 31.0311 27.4309 31.0688C27.4571 31.1082 27.4833 31.1477 27.5103 31.1884C27.5667 31.2727 27.6231 31.357 27.6796 31.4413C27.7084 31.4845 27.7372 31.5277 27.7668 31.5721C27.8987 31.7694 28.0316 31.9661 28.1644 32.1629C28.2164 32.2399 28.2684 32.3169 28.3203 32.394C28.346 32.4321 28.3718 32.4703 28.3983 32.5096C32.9967 39.3284 32.9967 39.3284 33.0746 39.4439C33.1267 39.5211 33.1787 39.5982 33.2307 39.6754C33.3596 39.8664 33.4884 40.0574 33.6171 40.2485C33.8921 40.6567 34.1677 41.0644 34.4442 41.4717C34.7461 41.9167 35.0471 42.3622 35.3475 42.8081C35.5028 43.0386 35.6582 43.269 35.8136 43.4994C35.9442 43.6929 36.0747 43.8866 36.2049 44.0803C36.2573 44.1581 36.3097 44.236 36.362 44.3138C36.4001 44.3704 36.4001 44.3704 36.439 44.4282C36.5706 44.6237 36.7036 44.8181 36.8389 45.0113C36.8793 45.0692 36.8793 45.0692 36.9206 45.1283C36.9721 45.2018 37.0238 45.2752 37.0759 45.3484C37.0988 45.3812 37.1217 45.4139 37.1453 45.4477C37.1656 45.4763 37.1858 45.505 37.2067 45.5345C37.25 45.6113 37.25 45.6113 37.25 45.7374C36.5135 45.798 35.9655 45.6343 35.2904 45.3697C35.1893 45.3314 35.0882 45.2932 34.987 45.2551C34.7771 45.1761 34.5674 45.0964 34.3579 45.0162C33.9077 44.8446 33.4539 44.6819 33.0002 44.5187C32.8552 44.4663 32.7105 44.4134 32.5659 44.3603C32.1532 44.209 31.7406 44.0591 31.3227 43.9211C31.1534 43.865 30.9848 43.8074 30.8161 43.7495C30.7386 43.7235 30.6608 43.6982 30.5827 43.6739C30.0623 43.5116 29.799 43.3329 29.5413 42.8704C29.5266 42.8427 29.5118 42.815 29.4966 42.7864C29.4474 42.6955 29.3907 42.6111 29.3304 42.5265C29.3134 42.5019 29.2964 42.4772 29.2789 42.4518C29.262 42.4274 29.2452 42.4031 29.2278 42.3779C29.0221 42.0794 28.8185 41.7797 28.6154 41.4796C28.3257 41.052 28.0336 40.6259 27.7399 40.2006C27.4044 39.7144 27.0724 39.226 26.7412 38.7371C26.5332 38.4303 26.3236 38.1246 26.1128 37.8196C25.8882 37.4941 25.6666 37.1668 25.4451 36.8395C25.2616 36.5686 25.077 36.2985 24.891 36.0293C24.6429 35.6703 24.398 35.3094 24.1535 34.9483C23.97 34.6774 23.7854 34.4073 23.5994 34.1381C23.3823 33.824 23.1675 33.5085 22.9536 33.1925C22.6658 32.7674 22.3755 32.344 22.0837 31.9214C21.7487 31.4359 21.4171 30.9483 21.0865 30.46C20.8629 30.1302 20.6375 29.8015 20.4104 29.4738C20.3881 29.4416 20.3658 29.4094 20.3428 29.3761C20.3233 29.348 20.3038 29.32 20.2837 29.291C20.2368 29.221 20.2368 29.221 20.1923 29.1369C19.722 29.1231 19.2517 29.1092 18.7671 29.0949C18.7607 30.5505 18.7568 32.006 18.7569 33.4615C18.7569 33.6336 18.7568 33.8057 18.7568 33.9778C18.7568 34.0121 18.7568 34.0464 18.7568 34.0817C18.7566 34.6353 18.7546 35.189 18.7518 35.7427C18.749 36.3114 18.7483 36.8802 18.7494 37.4489C18.75 37.7995 18.7491 38.15 18.7461 38.5005C18.7442 38.7414 18.7443 38.9822 18.7459 39.2231C18.7468 39.3618 18.7466 39.5003 18.7445 39.639C18.7354 40.2974 18.7818 40.7308 19.2793 41.2146C19.388 41.3253 19.4751 41.4474 19.566 41.5715C19.6022 41.6199 19.6385 41.6681 19.6749 41.7163C19.6936 41.7412 19.7123 41.766 19.7315 41.7916C19.8445 41.9411 19.9586 42.0899 20.0726 42.2387C20.1091 42.2863 20.1091 42.2863 20.1463 42.3349C20.221 42.4324 20.2957 42.5299 20.3705 42.6275C20.4204 42.6927 20.4704 42.7579 20.5204 42.8231C20.545 42.8551 20.5695 42.8871 20.5948 42.9201C20.6435 42.9838 20.692 43.0475 20.7404 43.1113C20.8525 43.2589 20.9658 43.4048 21.0848 43.5474C21.1057 43.5732 21.1266 43.5989 21.1482 43.6254C21.204 43.6938 21.2608 43.7615 21.3177 43.8292C21.3948 43.9723 21.3948 43.9723 21.3948 44.3926C17.7646 44.3926 14.1344 44.3926 10.3942 44.3926C10.3942 43.958 10.3966 43.8613 10.6697 43.5704C10.7277 43.5046 10.7855 43.4388 10.8432 43.3728C10.8872 43.3232 10.8872 43.3232 10.9322 43.2725C11.0631 43.1213 11.1823 42.9629 11.3016 42.8034C11.5125 42.5245 11.7293 42.2506 11.9502 41.9787C12.1896 41.6838 12.4266 41.3874 12.66 41.0882C12.6862 41.0546 12.7124 41.021 12.7395 40.9864C12.9412 40.727 13.035 40.5732 13.0343 40.244C13.0346 40.2059 13.0348 40.1679 13.0351 40.1286C13.0359 39.9999 13.036 39.8712 13.0362 39.7425C13.0366 39.6497 13.037 39.557 13.0375 39.4642C13.0388 39.2084 13.0394 38.9526 13.04 38.6968C13.0407 38.4495 13.0417 38.2022 13.0427 37.955C13.0456 37.2607 13.0473 36.5664 13.0489 35.8721C13.0493 35.684 13.0498 35.4959 13.0502 35.3078C13.053 34.1402 13.0554 32.9725 13.0569 31.8049C13.0572 31.5343 13.0576 31.2637 13.0579 30.9931C13.058 30.9595 13.058 30.9259 13.0581 30.8912C13.0595 29.8019 13.0629 28.7125 13.0675 27.6232C13.0721 26.5031 13.0751 25.3831 13.0757 24.263C13.0758 24.1047 13.0759 23.9464 13.076 23.7881C13.076 23.757 13.0761 23.7258 13.0761 23.6937C13.0765 23.1929 13.0787 22.6921 13.0816 22.1913C13.0845 21.6875 13.0854 21.1838 13.0842 20.68C13.0837 20.4072 13.0841 20.1344 13.0868 19.8616C13.0892 19.6116 13.0891 19.3617 13.0872 19.1117C13.0869 19.0215 13.0875 18.9313 13.0891 18.8411C13.0985 18.2855 13.0322 17.9442 12.6167 17.5349C12.5942 17.5137 12.5718 17.4925 12.5486 17.4707C12.4696 17.3944 12.403 17.3116 12.3371 17.225C12.3175 17.2 12.2978 17.1749 12.2776 17.1491C12.2586 17.1248 12.2397 17.1004 12.2202 17.0753C12.0466 16.8545 11.8689 16.6377 11.6857 16.4239C11.4785 16.182 11.279 15.9354 11.0822 15.6858C10.8911 15.4437 10.6942 15.2061 10.4956 14.9694C10.4621 14.9293 10.4286 14.8892 10.3942 14.8479C10.3702 14.8222 10.3462 14.7965 10.3215 14.7701C10.2458 14.658 10.2467 14.5908 10.2522 14.4592C10.2534 14.4217 10.2546 14.3842 10.2559 14.3456C10.2574 14.3172 10.259 14.2888 10.2605 14.2596ZM18.7671 15.7725C18.7671 19.6696 18.7671 23.5667 18.7671 27.582C23.0854 27.687 23.0854 27.687 26.8144 25.8484C28.074 24.6474 28.4103 22.9392 28.4428 21.3095C28.4172 20.0657 28.1129 18.8307 27.2292 17.8738C27.2079 17.8482 27.1866 17.8226 27.1646 17.7962C26.0263 16.4451 23.8954 16.026 22.1907 15.8388C21.0377 15.7317 19.9541 15.7725 18.7671 15.7725Z" fill="#F2F3E7"/>
<path d="M36.386 37.362C36.182 37.362 35.96 37.338 35.72 37.29C35.48 37.254 35.24 37.2 35 37.128V35.796C35.192 35.856 35.36 35.898 35.504 35.922C35.648 35.946 35.762 35.958 35.846 35.958C36.134 35.958 36.35 35.874 36.494 35.706C36.65 35.55 36.728 35.268 36.728 34.86V24.672H38.24V35.256C38.24 35.988 38.072 36.522 37.736 36.858C37.4 37.194 36.95 37.362 36.386 37.362ZM36.602 23.07V21H38.402V23.07H36.602Z" fill="#F2F3E7"/>
<path d="M40.8065 33.546V24.672H42.3365V27.048L41.9405 27.138C42.0245 26.61 42.2225 26.154 42.5345 25.77C42.8585 25.374 43.2305 25.068 43.6505 24.852C44.0825 24.636 44.5025 24.528 44.9105 24.528C45.1865 24.528 45.4505 24.558 45.7025 24.618C45.9545 24.678 46.2125 24.78 46.4765 24.924L45.7205 26.292C45.5765 26.22 45.4025 26.16 45.1985 26.112C45.0065 26.064 44.8205 26.04 44.6405 26.04C44.3525 26.04 44.0645 26.094 43.7765 26.202C43.5005 26.31 43.2485 26.478 43.0205 26.706C42.7925 26.934 42.6185 27.24 42.4985 27.624C42.4505 27.792 42.4085 28.014 42.3725 28.29C42.3485 28.554 42.3365 28.92 42.3365 29.388V33.546H40.8065Z" fill="#F2F3E7"/>
</g>
</g>
</g>
<defs>
<filter id="filter0_dddi_4324_51621" x="0" y="0" width="179" height="143" filterUnits="userSpaceOnUse" color-interpolation-filters="sRGB">
<feFlood flood-opacity="0" result="BackgroundImageFix"/>
<feColorMatrix in="SourceAlpha" type="matrix" values="0 0 0 0 0 0 0 0 0 0 0 0 0 0 0 0 0 0 127 0" result="hardAlpha"/>
<feOffset dx="2" dy="2"/>
<feGaussianBlur stdDeviation="2"/>
<feComposite in2="hardAlpha" operator="out"/>
<feColorMatrix type="matrix" values="0 0 0 0 0.498039 0 0 0 0 0.337255 0 0 0 0 0.85098 0 0 0 0.15 0"/>
<feBlend mode="normal" in2="BackgroundImageFix" result="effect1_dropShadow_4324_51621"/>
<feColorMatrix in="SourceAlpha" type="matrix" values="0 0 0 0 0 0 0 0 0 0 0 0 0 0 0 0 0 0 127 0" result="hardAlpha"/>
<feOffset dx="-4" dy="-4"/>
<feGaussianBlur stdDeviation="2"/>
<feComposite in2="hardAlpha" operator="out"/>
<feColorMatrix type="matrix" values="0 0 0 0 1 0 0 0 0 1 0 0 0 0 1 0 0 0 1 0"/>
<feBlend mode="normal" in2="effect1_dropShadow_4324_51621" result="effect2_dropShadow_4324_51621"/>
<feColorMatrix in="SourceAlpha" type="matrix" values="0 0 0 0 0 0 0 0 0 0 0 0 0 0 0 0 0 0 127 0" result="hardAlpha"/>
<feOffset dx="4" dy="4"/>
<feGaussianBlur stdDeviation="2"/>
<feComposite in2="hardAlpha" operator="out"/>
<feColorMatrix type="matrix" values="0 0 0 0 0.498039 0 0 0 0 0.337255 0 0 0 0 0.85098 0 0 0 0.15 0"/>
<feBlend mode="normal" in2="effect2_dropShadow_4324_51621" result="effect3_dropShadow_4324_51621"/>
<feBlend mode="normal" in="SourceGraphic" in2="effect3_dropShadow_4324_51621" result="shape"/>
<feColorMatrix in="SourceAlpha" type="matrix" values="0 0 0 0 0 0 0 0 0 0 0 0 0 0 0 0 0 0 127 0" result="hardAlpha"/>
<feOffset dx="-2" dy="-2"/>
<feGaussianBlur stdDeviation="2"/>
<feComposite in2="hardAlpha" operator="arithmetic" k2="-1" k3="1"/>
<feColorMatrix type="matrix" values="0 0 0 0 1 0 0 0 0 1 0 0 0 0 1 0 0 0 1 0"/>
<feBlend mode="normal" in2="shape" result="effect4_innerShadow_4324_51621"/>
</filter>
<linearGradient id="paint0_linear_4324_51621" x1="89.5" y1="8" x2="89.5" y2="135" gradientUnits="userSpaceOnUse">
<stop stop-color="#D7F7F0"/>
<stop offset="1" stop-color="#B4E6DE"/>
</linearGradient>
<clipPath id="clip0_4324_51621">
<path d="M8 24C8 15.1634 15.1634 8 24 8H62V66H8V24Z" fill="white"/>
</clipPath>
<clipPath id="clip1_4324_51621">
<rect width="72" height="72" fill="white" transform="translate(-10 -6)"/>
</clipPath>
</defs>
</svg>
