<svg width="72" height="72" viewBox="0 0 72 72" fill="none" xmlns="http://www.w3.org/2000/svg">
<g clip-path="url(#clip0_4323_51197)">
<path d="M35.9997 72C55.882 72 71.9997 55.8823 71.9997 36C71.9997 16.1177 55.882 0 35.9997 0C16.1175 0 -0.000274658 16.1177 -0.000274658 36C-0.000274658 55.8823 16.1175 72 35.9997 72Z" fill="#248670"/>
<path d="M58.3496 13.1071C65.6679 20.2629 69.4334 30.7976 67.499 41.6335C65.5646 52.4688 58.3869 61.0487 49.0448 65.2302L58.3496 13.1071ZM4.49494 30.3864C6.48706 19.2269 14.0398 10.4576 23.7914 6.42379L14.3087 59.5436C6.55541 52.385 2.50318 41.5453 4.49494 30.3864Z" fill="#F2F3E7"/>
<path d="M36.0072 64.0058C51.4707 64.0058 64.0062 51.4702 64.0062 36.0068C64.0062 20.5434 51.4707 8.00781 36.0072 8.00781C20.5438 8.00781 8.00824 20.5434 8.00824 36.0068C8.00824 51.4702 20.5438 64.0058 36.0072 64.0058Z" fill="#248670"/>
<path d="M20.2603 20.2596C21.6911 20.2576 23.122 20.2561 24.5529 20.2553C24.7227 20.2552 24.8926 20.255 25.0625 20.2549C25.0963 20.2549 25.1301 20.2549 25.1649 20.2549C25.7086 20.2545 26.2523 20.2538 26.7959 20.2531C27.356 20.2523 27.916 20.2518 28.4761 20.2516C28.7897 20.2515 29.1034 20.2513 29.417 20.2507C30.9995 20.2476 32.5787 20.248 34.153 20.4198C34.1864 20.4233 34.2198 20.4268 34.2542 20.4305C36.1173 20.6285 38.0312 20.9796 39.723 21.7725C39.7576 21.7885 39.7923 21.8046 39.8281 21.8211C40.3154 22.0479 40.7629 22.2993 41.1927 22.613C41.234 22.6427 41.2754 22.6723 41.3179 22.7028C42.4335 23.5306 43.186 24.5964 43.5531 25.8911C43.5681 25.9439 43.5681 25.9439 43.5834 25.9979C43.7322 26.556 43.7484 27.1155 43.7508 27.6877C43.7511 27.7219 43.7513 27.7561 43.7516 27.7913C43.7609 29.5958 43.0325 31.1828 41.7271 32.4893C41.6972 32.5202 41.6673 32.5511 41.6365 32.583C39.3861 34.8256 35.4209 35.0119 32.3744 35.1369C32.5781 35.2025 32.7818 35.2679 32.9855 35.3334C33.1685 35.3922 33.3515 35.4511 33.5344 35.51C34.0544 35.6773 34.5747 35.8435 35.0957 36.0079C35.2764 36.065 35.4569 36.1222 35.6375 36.1795C35.8146 36.2356 35.9917 36.2913 36.1689 36.3469C36.3064 36.3901 36.4437 36.4338 36.581 36.4774C36.6562 36.5008 36.6562 36.5008 36.733 36.5246C36.8019 36.5466 36.8019 36.5466 36.8721 36.5691C36.9122 36.5817 36.9523 36.5943 36.9935 36.6073C37.1725 36.6822 37.2545 36.8052 37.3564 36.958C37.3809 36.9946 37.4054 37.0311 37.4306 37.0688C37.4568 37.1082 37.483 37.1477 37.51 37.1884C37.5664 37.2727 37.6229 37.357 37.6793 37.4413C37.7081 37.4845 37.7369 37.5277 37.7666 37.5721C37.8984 37.7694 38.0313 37.9661 38.1642 38.1629C38.2161 38.2399 38.2681 38.3169 38.32 38.394C38.3458 38.4321 38.3715 38.4703 38.398 38.5096C42.9964 45.3284 42.9964 45.3284 43.0744 45.4439C43.1264 45.5211 43.1784 45.5982 43.2305 45.6754C43.3593 45.8664 43.4881 46.0574 43.6168 46.2485C43.8918 46.6567 44.1675 47.0644 44.4439 47.4717C44.7459 47.9167 45.0468 48.3622 45.3472 48.8081C45.5025 49.0386 45.6579 49.269 45.8133 49.4994C45.9439 49.6929 46.0744 49.8866 46.2047 50.0803C46.257 50.1581 46.3094 50.236 46.3618 50.3138C46.3998 50.3704 46.3998 50.3704 46.4387 50.4282C46.5703 50.6237 46.7033 50.8181 46.8386 51.0113C46.8791 51.0692 46.8791 51.0692 46.9203 51.1283C46.9718 51.2018 47.0235 51.2752 47.0756 51.3484C47.0985 51.3812 47.1214 51.4139 47.145 51.4477C47.1653 51.4763 47.1856 51.505 47.2065 51.5345C47.2497 51.6113 47.2497 51.6113 47.2497 51.7374C46.5133 51.798 45.9653 51.6343 45.2901 51.3697C45.189 51.3314 45.0879 51.2932 44.9867 51.2551C44.7768 51.1761 44.5671 51.0964 44.3577 51.0162C43.9074 50.8446 43.4536 50.6819 42.9999 50.5187C42.855 50.4663 42.7103 50.4134 42.5656 50.3603C42.1529 50.209 41.7403 50.0591 41.3224 49.9211C41.1531 49.865 40.9845 49.8074 40.8159 49.7495C40.7384 49.7235 40.6606 49.6982 40.5824 49.6739C40.062 49.5116 39.7987 49.3329 39.5411 48.8704C39.5263 48.8427 39.5115 48.815 39.4963 48.7864C39.4471 48.6955 39.3904 48.6111 39.3301 48.5265C39.3131 48.5019 39.2962 48.4772 39.2787 48.4518C39.2618 48.4274 39.2449 48.4031 39.2275 48.3779C39.0218 48.0794 38.8182 47.7797 38.6151 47.4796C38.3254 47.052 38.0333 46.6259 37.7397 46.2006C37.4041 45.7144 37.0721 45.226 36.7409 44.7371C36.533 44.4303 36.3233 44.1246 36.1125 43.8196C35.8879 43.4941 35.6664 43.1668 35.4448 42.8395C35.2613 42.5686 35.0767 42.2985 34.8907 42.0293C34.6426 41.6703 34.3977 41.3094 34.1532 40.9483C33.9698 40.6774 33.7852 40.4073 33.5991 40.1381C33.3821 39.824 33.1673 39.5085 32.9533 39.1925C32.6656 38.7674 32.3753 38.344 32.0835 37.9214C31.7484 37.4359 31.4168 36.9483 31.0862 36.46C30.8627 36.1302 30.6373 35.8015 30.4101 35.4738C30.3878 35.4416 30.3655 35.4094 30.3425 35.3761C30.323 35.348 30.3035 35.32 30.2835 35.291C30.2366 35.221 30.2366 35.221 30.192 35.1369C29.7217 35.1231 29.2514 35.1092 28.7668 35.0949C28.7604 36.5505 28.7566 38.006 28.7566 39.4615C28.7566 39.6336 28.7566 39.8057 28.7565 39.9778C28.7565 40.0121 28.7565 40.0464 28.7565 40.0817C28.7563 40.6353 28.7543 41.189 28.7515 41.7427C28.7487 42.3114 28.748 42.8802 28.7491 43.4489C28.7497 43.7995 28.7488 44.15 28.7458 44.5005C28.7439 44.7414 28.744 44.9822 28.7457 45.2231C28.7465 45.3618 28.7463 45.5003 28.7442 45.639C28.7351 46.2974 28.7815 46.7308 29.279 47.2146C29.3877 47.3253 29.4748 47.4474 29.5657 47.5715C29.602 47.6199 29.6383 47.6681 29.6746 47.7163C29.6933 47.7412 29.712 47.766 29.7312 47.7916C29.8442 47.9411 29.9583 48.0899 30.0723 48.2387C30.1088 48.2863 30.1088 48.2863 30.146 48.3349C30.2207 48.4324 30.2954 48.5299 30.3702 48.6275C30.4202 48.6927 30.4702 48.7579 30.5201 48.8231C30.5447 48.8551 30.5692 48.8871 30.5945 48.9201C30.6432 48.9838 30.6917 49.0475 30.7401 49.1113C30.8522 49.2589 30.9655 49.4048 31.0845 49.5474C31.1054 49.5732 31.1263 49.5989 31.1479 49.6254C31.2037 49.6938 31.2605 49.7615 31.3175 49.8292C31.3945 49.9723 31.3945 49.9723 31.3945 50.3926C27.7643 50.3926 24.1341 50.3926 20.3939 50.3926C20.3939 49.958 20.3963 49.8613 20.6695 49.5704C20.7274 49.5046 20.7852 49.4388 20.8429 49.3728C20.887 49.3232 20.887 49.3232 20.9319 49.2725C21.0628 49.1213 21.182 48.9629 21.3013 48.8034C21.5122 48.5245 21.7291 48.2506 21.9499 47.9787C22.1894 47.6838 22.4263 47.3874 22.6597 47.0882C22.6859 47.0546 22.7122 47.021 22.7392 46.9864C22.941 46.727 23.0348 46.5732 23.034 46.244C23.0343 46.2059 23.0345 46.1679 23.0348 46.1286C23.0356 45.9999 23.0357 45.8712 23.0359 45.7425C23.0363 45.6497 23.0368 45.557 23.0373 45.4642C23.0385 45.2084 23.0392 44.9526 23.0397 44.6968C23.0404 44.4495 23.0414 44.2022 23.0425 43.955C23.0453 43.2607 23.0471 42.5664 23.0486 41.8721C23.0491 41.684 23.0495 41.4959 23.0499 41.3078C23.0527 40.1402 23.0551 38.9725 23.0566 37.8049C23.0569 37.5343 23.0573 37.2637 23.0576 36.9931C23.0577 36.9595 23.0577 36.9259 23.0578 36.8912C23.0592 35.8019 23.0627 34.7125 23.0672 33.6232C23.0719 32.5031 23.0748 31.3831 23.0754 30.263C23.0755 30.1047 23.0756 29.9464 23.0757 29.7881C23.0758 29.757 23.0758 29.7258 23.0758 29.6937C23.0762 29.1929 23.0785 28.6921 23.0813 28.1913C23.0842 27.6875 23.0851 27.1838 23.084 26.68C23.0835 26.4072 23.0838 26.1344 23.0865 25.8616C23.0889 25.6116 23.0889 25.3617 23.0869 25.1117C23.0866 25.0215 23.0872 24.9313 23.0888 24.8411C23.0982 24.2855 23.0319 23.9442 22.6164 23.5349C22.594 23.5137 22.5715 23.4925 22.5484 23.4707C22.4694 23.3944 22.4027 23.3116 22.3368 23.225C22.3172 23.2 22.2975 23.1749 22.2773 23.1491C22.2584 23.1248 22.2394 23.1004 22.2199 23.0753C22.0463 22.8545 21.8686 22.6377 21.6855 22.4239C21.4782 22.182 21.2787 21.9354 21.082 21.6858C20.8908 21.4437 20.694 21.2061 20.4953 20.9694C20.4618 20.9293 20.4284 20.8892 20.3939 20.8479C20.3699 20.8222 20.346 20.7965 20.3213 20.7701C20.2455 20.658 20.2464 20.5908 20.2519 20.4592C20.2531 20.4217 20.2543 20.3842 20.2556 20.3456C20.2571 20.3172 20.2587 20.2888 20.2603 20.2596ZM28.7668 21.7725C28.7668 25.6696 28.7668 29.5667 28.7668 33.582C33.0851 33.687 33.0851 33.687 36.8141 31.8484C38.0737 30.6474 38.4101 28.9392 38.4425 27.3095C38.4169 26.0657 38.1126 24.8307 37.2289 23.8738C37.2076 23.8482 37.1863 23.8226 37.1643 23.7962C36.0261 22.4451 33.8951 22.026 32.1905 21.8388C31.0374 21.7317 29.9538 21.7725 28.7668 21.7725Z" fill="#F2F3E7"/>
<path d="M46.3857 43.362C46.1817 43.362 45.9597 43.338 45.7197 43.29C45.4797 43.254 45.2397 43.2 44.9997 43.128V41.796C45.1917 41.856 45.3597 41.898 45.5037 41.922C45.6477 41.946 45.7617 41.958 45.8457 41.958C46.1337 41.958 46.3497 41.874 46.4937 41.706C46.6497 41.55 46.7277 41.268 46.7277 40.86V30.672H48.2397V41.256C48.2397 41.988 48.0717 42.522 47.7357 42.858C47.3997 43.194 46.9497 43.362 46.3857 43.362ZM46.6017 29.07V27H48.4017V29.07H46.6017Z" fill="#F2F3E7"/>
<path d="M50.8063 39.546V30.672H52.3363V33.048L51.9403 33.138C52.0243 32.61 52.2223 32.154 52.5343 31.77C52.8583 31.374 53.2303 31.068 53.6503 30.852C54.0823 30.636 54.5023 30.528 54.9103 30.528C55.1863 30.528 55.4503 30.558 55.7023 30.618C55.9543 30.678 56.2123 30.78 56.4763 30.924L55.7203 32.292C55.5763 32.22 55.4023 32.16 55.1983 32.112C55.0063 32.064 54.8203 32.04 54.6403 32.04C54.3523 32.04 54.0643 32.094 53.7763 32.202C53.5003 32.31 53.2483 32.478 53.0203 32.706C52.7923 32.934 52.6183 33.24 52.4983 33.624C52.4503 33.792 52.4083 34.014 52.3723 34.29C52.3483 34.554 52.3363 34.92 52.3363 35.388V39.546H50.8063Z" fill="#F2F3E7"/>
</g>
<defs>
<clipPath id="clip0_4323_51197">
<rect width="72" height="72" fill="white"/>
</clipPath>
</defs>
</svg>
