<svg width="18" height="18" viewBox="0 0 18 18" fill="none" xmlns="http://www.w3.org/2000/svg">
<g>
<path d="M13.9564 7.39091C13.9272 7.34582 13.8848 7.30831 13.8335 7.28221C13.7823 7.25611 13.724 7.24236 13.6647 7.24236H9.2726L10.0089 2.32545C10.0169 2.25964 9.99918 2.19343 9.95879 2.13747C9.91839 2.0815 9.85762 2.03905 9.78627 2.01694C9.71491 1.99483 9.63711 1.99435 9.5654 2.01558C9.49369 2.03681 9.43224 2.07851 9.39095 2.13397L4.04966 10.312C4.01843 10.3564 4.00131 10.4073 4.00007 10.4594C3.99883 10.5115 4.01352 10.5629 4.04262 10.6084C4.07172 10.6539 4.11417 10.6918 4.16561 10.7182C4.21704 10.7446 4.2756 10.7585 4.33524 10.7585H8.66173L8.07818 15.6828C8.07244 15.7484 8.09197 15.8137 8.13365 15.8685C8.17533 15.9232 8.23677 15.9643 8.30819 15.985C8.37961 16.0057 8.45691 16.005 8.52779 15.9829C8.59868 15.9608 8.65907 15.9186 8.69936 15.863L13.9524 7.6859C13.9828 7.64143 13.9993 7.5907 14 7.53888C14.0007 7.48706 13.9856 7.436 13.9564 7.39091Z" fill="black"/>
</g>
</svg>
