<svg width="140" height="24" viewBox="0 0 140 24" fill="none" xmlns="http://www.w3.org/2000/svg">
<g filter="url(#filter0_d_4339_51726)">
<rect width="140" height="22" rx="11" fill="url(#paint0_linear_4339_51726)" shape-rendering="crispEdges"/>
<rect x="1.2" y="1.2" width="137.6" height="19.6" rx="9.8" stroke="black" stroke-opacity="0.24" stroke-width="2.4" shape-rendering="crispEdges"/>
<path d="M13.9738 9.85065C13.9563 9.81844 13.9309 9.79165 13.9001 9.77301C13.8694 9.75436 13.8344 9.74454 13.7988 9.74454H11.1636L11.6054 6.23246C11.6101 6.18546 11.5995 6.13816 11.5753 6.09819C11.551 6.05822 11.5146 6.02789 11.4718 6.0121C11.4289 5.99631 11.3823 5.99596 11.3392 6.01113C11.2962 6.02629 11.2593 6.05608 11.2346 6.09569L8.0298 11.9371C8.01106 11.9689 8.00079 12.0052 8.00004 12.0424C7.9993 12.0796 8.00811 12.1164 8.02557 12.1489C8.04303 12.1814 8.0685 12.2084 8.09937 12.2273C8.13023 12.2461 8.16536 12.256 8.20114 12.256H10.797L10.4469 15.7734C10.4435 15.8203 10.4552 15.8669 10.4802 15.9061C10.5052 15.9452 10.5421 15.9745 10.5849 15.9893C10.6278 16.0041 10.6741 16.0035 10.7167 15.9878C10.7592 15.972 10.7954 15.9419 10.8196 15.9022L13.9714 10.0614C13.9897 10.0296 13.9996 9.99336 14 9.95634C14.0004 9.91933 13.9914 9.88286 13.9738 9.85065Z" fill="white" fill-opacity="0.85"/>
<path d="M11.5283 5.51074L11.6445 5.54297L11.7529 5.59375C11.8217 5.63355 11.8825 5.68473 11.9336 5.74414L12.0029 5.83887L12.0547 5.94336C12.0978 6.05077 12.1141 6.16708 12.1025 6.28223L12.1016 6.29492L11.7305 9.24414H13.7988C13.8947 9.24414 13.9887 9.26425 14.0752 9.30176L14.1592 9.3457L14.2363 9.39941C14.2846 9.43842 14.3271 9.48357 14.3633 9.5332L14.4131 9.61133L14.4512 9.69434C14.4843 9.7797 14.501 9.87055 14.5 9.96191C14.4987 10.079 14.4672 10.1942 14.4102 10.2979L14.4111 10.2988L11.2598 16.1396L11.2539 16.1514L11.2471 16.1621C11.166 16.2952 11.0412 16.4001 10.8906 16.4561C10.7397 16.5121 10.5742 16.5145 10.4219 16.4619C10.2699 16.4094 10.1427 16.3072 10.0586 16.1758C9.97471 16.0446 9.93699 15.8895 9.94824 15.7363L9.94922 15.7236L10.2451 12.7559H8.20117C8.07253 12.7558 7.94727 12.7204 7.83887 12.6543C7.73065 12.5882 7.64356 12.4948 7.58496 12.3857C7.52642 12.2768 7.49756 12.1546 7.5 12.0322L7.50781 11.9414C7.52054 11.8557 7.54969 11.7728 7.59277 11.6963H7.5918L10.7959 5.85547L10.8027 5.84277L10.8105 5.83008C10.8937 5.69721 11.0205 5.59381 11.1729 5.54004C11.2875 5.49963 11.4102 5.48929 11.5283 5.51074Z" stroke="black" stroke-opacity="0.16"/>
<mask id="path-5-outside-1_4339_51726" maskUnits="userSpaceOnUse" x="19" y="6.5" width="114" height="11" fill="black">
<rect fill="white" x="19" y="6.5" width="114" height="11"/>
<path d="M20.77 15.5V7.8H22.75V13.872H26.05V15.5H20.77ZM27.0434 15.5V7.8H32.6534V9.318H29.0234V10.825H32.3234V12.255H29.0234V13.982H32.6534V15.5H27.0434ZM36.2151 15.5L33.3441 7.8H35.5551L37.2931 12.97L38.9651 7.8H40.9451L38.1951 15.5H36.2151ZM41.8247 15.5V7.8H47.4347V9.318H43.8047V10.825H47.1047V12.255H43.8047V13.982H47.4347V15.5H41.8247ZM48.6889 15.5V7.8H52.0439C52.6893 7.8 53.2246 7.90633 53.6499 8.119C54.0826 8.33167 54.4089 8.62867 54.6289 9.01C54.8489 9.39133 54.9589 9.846 54.9589 10.374C54.9589 10.924 54.8269 11.397 54.5629 11.793C54.3063 12.1817 53.9176 12.4677 53.3969 12.651L55.1789 15.5H52.9789L51.4829 12.86H50.6689V15.5H48.6889ZM50.6689 11.32H51.6039C52.1319 11.32 52.4913 11.243 52.6819 11.089C52.8799 10.9277 52.9789 10.6893 52.9789 10.374C52.9789 10.0587 52.8799 9.824 52.6819 9.67C52.4913 9.50867 52.1319 9.428 51.6039 9.428H50.6689V11.32ZM55.7201 15.5L58.5361 7.8H60.5161L63.3211 15.5H61.2311L60.7031 14.026H58.1291L57.6011 15.5H55.7201ZM58.6901 12.508H60.1421L59.4161 10.22L58.6901 12.508ZM67.3958 15.643C66.6992 15.643 66.0722 15.511 65.5148 15.247C64.9575 14.9757 64.5175 14.5503 64.1948 13.971C63.8722 13.3917 63.7108 12.6363 63.7108 11.705V11.485C63.7108 10.8177 63.8062 10.2457 63.9968 9.769C64.1875 9.285 64.4478 8.889 64.7778 8.581C65.1152 8.26567 65.5002 8.03467 65.9328 7.888C66.3728 7.734 66.8422 7.657 67.3408 7.657C67.7808 7.657 68.1915 7.70833 68.5728 7.811C68.9542 7.91367 69.2915 8.075 69.5848 8.295C69.8855 8.50767 70.1312 8.78267 70.3218 9.12C70.5198 9.45733 70.6445 9.86067 70.6958 10.33H68.6388C68.5802 10.0513 68.4775 9.83867 68.3308 9.692C68.1915 9.54533 68.0338 9.44633 67.8578 9.395C67.6892 9.33633 67.5168 9.307 67.3408 9.307C67.0328 9.307 66.7578 9.37667 66.5158 9.516C66.2812 9.648 66.0942 9.87167 65.9548 10.187C65.8228 10.5023 65.7568 10.935 65.7568 11.485V11.705C65.7568 12.1157 65.7972 12.4677 65.8778 12.761C65.9585 13.047 66.0685 13.2817 66.2078 13.465C66.3545 13.6483 66.5268 13.784 66.7248 13.872C66.9302 13.9527 67.1538 13.993 67.3958 13.993C67.6672 13.993 67.9238 13.949 68.1658 13.861C68.4078 13.7657 68.6095 13.619 68.7708 13.421C68.9322 13.223 69.0165 12.97 69.0238 12.662H67.6158V11.408H70.8608V11.925C70.8608 12.585 70.7728 13.1497 70.5968 13.619C70.4282 14.0883 70.1898 14.4733 69.8818 14.774C69.5738 15.0747 69.2072 15.2947 68.7818 15.434C68.3638 15.5733 67.9018 15.643 67.3958 15.643ZM72.0747 15.5V7.8H77.6847V9.318H74.0547V10.825H77.3547V12.255H74.0547V13.982H77.6847V15.5H72.0747ZM81.6889 15.5V7.8H83.6689V13.872H86.9689V15.5H81.6889ZM91.32 15.643C90.814 15.643 90.3336 15.5697 89.879 15.423C89.4316 15.2763 89.0356 15.0453 88.691 14.73C88.3463 14.4147 88.075 14.0077 87.877 13.509C87.679 13.003 87.58 12.4017 87.58 11.705V11.485C87.58 10.8103 87.679 10.231 87.877 9.747C88.075 9.263 88.3463 8.867 88.691 8.559C89.0356 8.251 89.4316 8.02367 89.879 7.877C90.3336 7.73033 90.814 7.657 91.32 7.657C91.8333 7.657 92.3136 7.73033 92.761 7.877C93.2083 8.02367 93.6043 8.251 93.949 8.559C94.2936 8.867 94.565 9.263 94.763 9.747C94.961 10.231 95.06 10.8103 95.06 11.485V11.705C95.06 12.4017 94.961 13.003 94.763 13.509C94.565 14.0077 94.2936 14.4147 93.949 14.73C93.6043 15.0453 93.2083 15.2763 92.761 15.423C92.3136 15.5697 91.8333 15.643 91.32 15.643ZM91.309 13.993C91.6096 13.993 91.8883 13.927 92.145 13.795C92.4016 13.6557 92.607 13.4247 92.761 13.102C92.9223 12.772 93.003 12.3063 93.003 11.705V11.485C93.003 10.913 92.9223 10.4693 92.761 10.154C92.607 9.83867 92.4016 9.61867 92.145 9.494C91.8883 9.36933 91.6096 9.307 91.309 9.307C91.023 9.307 90.7516 9.36933 90.495 9.494C90.2383 9.61867 90.0293 9.83867 89.868 10.154C89.7066 10.4693 89.626 10.913 89.626 11.485V11.705C89.626 12.3063 89.7066 12.772 89.868 13.102C90.0293 13.4247 90.2383 13.6557 90.495 13.795C90.7516 13.927 91.023 13.993 91.309 13.993ZM99.7848 15.643C99.2788 15.643 98.7985 15.5697 98.3438 15.423C97.8965 15.2763 97.5005 15.0453 97.1558 14.73C96.8111 14.4147 96.5398 14.0077 96.3418 13.509C96.1438 13.003 96.0448 12.4017 96.0448 11.705V11.485C96.0448 10.8103 96.1438 10.231 96.3418 9.747C96.5398 9.263 96.8111 8.867 97.1558 8.559C97.5005 8.251 97.8965 8.02367 98.3438 7.877C98.7985 7.73033 99.2788 7.657 99.7848 7.657C100.298 7.657 100.778 7.73033 101.226 7.877C101.673 8.02367 102.069 8.251 102.414 8.559C102.758 8.867 103.03 9.263 103.228 9.747C103.426 10.231 103.525 10.8103 103.525 11.485V11.705C103.525 12.4017 103.426 13.003 103.228 13.509C103.03 14.0077 102.758 14.4147 102.414 14.73C102.069 15.0453 101.673 15.2763 101.226 15.423C100.778 15.5697 100.298 15.643 99.7848 15.643ZM99.7738 13.993C100.074 13.993 100.353 13.927 100.61 13.795C100.866 13.6557 101.072 13.4247 101.226 13.102C101.387 12.772 101.468 12.3063 101.468 11.705V11.485C101.468 10.913 101.387 10.4693 101.226 10.154C101.072 9.83867 100.866 9.61867 100.61 9.494C100.353 9.36933 100.074 9.307 99.7738 9.307C99.4878 9.307 99.2165 9.36933 98.9598 9.494C98.7031 9.61867 98.4941 9.83867 98.3328 10.154C98.1715 10.4693 98.0908 10.913 98.0908 11.485V11.705C98.0908 12.3063 98.1715 12.772 98.3328 13.102C98.4941 13.4247 98.7031 13.6557 98.9598 13.795C99.2165 13.927 99.4878 13.993 99.7738 13.993ZM104.785 15.5V7.8H107.92C108.638 7.8 109.229 7.90633 109.691 8.119C110.153 8.32433 110.494 8.625 110.714 9.021C110.941 9.40967 111.055 9.879 111.055 10.429C111.055 10.9717 110.941 11.441 110.714 11.837C110.494 12.233 110.153 12.5373 109.691 12.75C109.229 12.9553 108.638 13.058 107.92 13.058H106.765V15.5H104.785ZM106.765 11.43H107.7C108.206 11.43 108.561 11.3457 108.767 11.177C108.972 11.0083 109.075 10.759 109.075 10.429C109.075 10.099 108.972 9.84967 108.767 9.681C108.561 9.51233 108.206 9.428 107.7 9.428H106.765V11.43ZM112.264 15.5V7.8H114.244V15.5H112.264ZM115.892 15.5V7.8H117.641L120.622 12.09V7.8H122.712V15.5H120.842L117.872 11.21V15.5H115.892ZM127.659 15.643C126.963 15.643 126.336 15.511 125.778 15.247C125.221 14.9757 124.781 14.5503 124.458 13.971C124.136 13.3917 123.974 12.6363 123.974 11.705V11.485C123.974 10.8177 124.07 10.2457 124.26 9.769C124.451 9.285 124.711 8.889 125.041 8.581C125.379 8.26567 125.764 8.03467 126.196 7.888C126.636 7.734 127.106 7.657 127.604 7.657C128.044 7.657 128.455 7.70833 128.836 7.811C129.218 7.91367 129.555 8.075 129.848 8.295C130.149 8.50767 130.395 8.78267 130.585 9.12C130.783 9.45733 130.908 9.86067 130.959 10.33H128.902C128.844 10.0513 128.741 9.83867 128.594 9.692C128.455 9.54533 128.297 9.44633 128.121 9.395C127.953 9.33633 127.78 9.307 127.604 9.307C127.296 9.307 127.021 9.37667 126.779 9.516C126.545 9.648 126.358 9.87167 126.218 10.187C126.086 10.5023 126.02 10.935 126.02 11.485V11.705C126.02 12.1157 126.061 12.4677 126.141 12.761C126.222 13.047 126.332 13.2817 126.471 13.465C126.618 13.6483 126.79 13.784 126.988 13.872C127.194 13.9527 127.417 13.993 127.659 13.993C127.931 13.993 128.187 13.949 128.429 13.861C128.671 13.7657 128.873 13.619 129.034 13.421C129.196 13.223 129.28 12.97 129.287 12.662H127.879V11.408H131.124V11.925C131.124 12.585 131.036 13.1497 130.86 13.619C130.692 14.0883 130.453 14.4733 130.145 14.774C129.837 15.0747 129.471 15.2947 129.045 15.434C128.627 15.5733 128.165 15.643 127.659 15.643Z"/>
</mask>
<path d="M20.77 15.5V7.8H22.75V13.872H26.05V15.5H20.77ZM27.0434 15.5V7.8H32.6534V9.318H29.0234V10.825H32.3234V12.255H29.0234V13.982H32.6534V15.5H27.0434ZM36.2151 15.5L33.3441 7.8H35.5551L37.2931 12.97L38.9651 7.8H40.9451L38.1951 15.5H36.2151ZM41.8247 15.5V7.8H47.4347V9.318H43.8047V10.825H47.1047V12.255H43.8047V13.982H47.4347V15.5H41.8247ZM48.6889 15.5V7.8H52.0439C52.6893 7.8 53.2246 7.90633 53.6499 8.119C54.0826 8.33167 54.4089 8.62867 54.6289 9.01C54.8489 9.39133 54.9589 9.846 54.9589 10.374C54.9589 10.924 54.8269 11.397 54.5629 11.793C54.3063 12.1817 53.9176 12.4677 53.3969 12.651L55.1789 15.5H52.9789L51.4829 12.86H50.6689V15.5H48.6889ZM50.6689 11.32H51.6039C52.1319 11.32 52.4913 11.243 52.6819 11.089C52.8799 10.9277 52.9789 10.6893 52.9789 10.374C52.9789 10.0587 52.8799 9.824 52.6819 9.67C52.4913 9.50867 52.1319 9.428 51.6039 9.428H50.6689V11.32ZM55.7201 15.5L58.5361 7.8H60.5161L63.3211 15.5H61.2311L60.7031 14.026H58.1291L57.6011 15.5H55.7201ZM58.6901 12.508H60.1421L59.4161 10.22L58.6901 12.508ZM67.3958 15.643C66.6992 15.643 66.0722 15.511 65.5148 15.247C64.9575 14.9757 64.5175 14.5503 64.1948 13.971C63.8722 13.3917 63.7108 12.6363 63.7108 11.705V11.485C63.7108 10.8177 63.8062 10.2457 63.9968 9.769C64.1875 9.285 64.4478 8.889 64.7778 8.581C65.1152 8.26567 65.5002 8.03467 65.9328 7.888C66.3728 7.734 66.8422 7.657 67.3408 7.657C67.7808 7.657 68.1915 7.70833 68.5728 7.811C68.9542 7.91367 69.2915 8.075 69.5848 8.295C69.8855 8.50767 70.1312 8.78267 70.3218 9.12C70.5198 9.45733 70.6445 9.86067 70.6958 10.33H68.6388C68.5802 10.0513 68.4775 9.83867 68.3308 9.692C68.1915 9.54533 68.0338 9.44633 67.8578 9.395C67.6892 9.33633 67.5168 9.307 67.3408 9.307C67.0328 9.307 66.7578 9.37667 66.5158 9.516C66.2812 9.648 66.0942 9.87167 65.9548 10.187C65.8228 10.5023 65.7568 10.935 65.7568 11.485V11.705C65.7568 12.1157 65.7972 12.4677 65.8778 12.761C65.9585 13.047 66.0685 13.2817 66.2078 13.465C66.3545 13.6483 66.5268 13.784 66.7248 13.872C66.9302 13.9527 67.1538 13.993 67.3958 13.993C67.6672 13.993 67.9238 13.949 68.1658 13.861C68.4078 13.7657 68.6095 13.619 68.7708 13.421C68.9322 13.223 69.0165 12.97 69.0238 12.662H67.6158V11.408H70.8608V11.925C70.8608 12.585 70.7728 13.1497 70.5968 13.619C70.4282 14.0883 70.1898 14.4733 69.8818 14.774C69.5738 15.0747 69.2072 15.2947 68.7818 15.434C68.3638 15.5733 67.9018 15.643 67.3958 15.643ZM72.0747 15.5V7.8H77.6847V9.318H74.0547V10.825H77.3547V12.255H74.0547V13.982H77.6847V15.5H72.0747ZM81.6889 15.5V7.8H83.6689V13.872H86.9689V15.5H81.6889ZM91.32 15.643C90.814 15.643 90.3336 15.5697 89.879 15.423C89.4316 15.2763 89.0356 15.0453 88.691 14.73C88.3463 14.4147 88.075 14.0077 87.877 13.509C87.679 13.003 87.58 12.4017 87.58 11.705V11.485C87.58 10.8103 87.679 10.231 87.877 9.747C88.075 9.263 88.3463 8.867 88.691 8.559C89.0356 8.251 89.4316 8.02367 89.879 7.877C90.3336 7.73033 90.814 7.657 91.32 7.657C91.8333 7.657 92.3136 7.73033 92.761 7.877C93.2083 8.02367 93.6043 8.251 93.949 8.559C94.2936 8.867 94.565 9.263 94.763 9.747C94.961 10.231 95.06 10.8103 95.06 11.485V11.705C95.06 12.4017 94.961 13.003 94.763 13.509C94.565 14.0077 94.2936 14.4147 93.949 14.73C93.6043 15.0453 93.2083 15.2763 92.761 15.423C92.3136 15.5697 91.8333 15.643 91.32 15.643ZM91.309 13.993C91.6096 13.993 91.8883 13.927 92.145 13.795C92.4016 13.6557 92.607 13.4247 92.761 13.102C92.9223 12.772 93.003 12.3063 93.003 11.705V11.485C93.003 10.913 92.9223 10.4693 92.761 10.154C92.607 9.83867 92.4016 9.61867 92.145 9.494C91.8883 9.36933 91.6096 9.307 91.309 9.307C91.023 9.307 90.7516 9.36933 90.495 9.494C90.2383 9.61867 90.0293 9.83867 89.868 10.154C89.7066 10.4693 89.626 10.913 89.626 11.485V11.705C89.626 12.3063 89.7066 12.772 89.868 13.102C90.0293 13.4247 90.2383 13.6557 90.495 13.795C90.7516 13.927 91.023 13.993 91.309 13.993ZM99.7848 15.643C99.2788 15.643 98.7985 15.5697 98.3438 15.423C97.8965 15.2763 97.5005 15.0453 97.1558 14.73C96.8111 14.4147 96.5398 14.0077 96.3418 13.509C96.1438 13.003 96.0448 12.4017 96.0448 11.705V11.485C96.0448 10.8103 96.1438 10.231 96.3418 9.747C96.5398 9.263 96.8111 8.867 97.1558 8.559C97.5005 8.251 97.8965 8.02367 98.3438 7.877C98.7985 7.73033 99.2788 7.657 99.7848 7.657C100.298 7.657 100.778 7.73033 101.226 7.877C101.673 8.02367 102.069 8.251 102.414 8.559C102.758 8.867 103.03 9.263 103.228 9.747C103.426 10.231 103.525 10.8103 103.525 11.485V11.705C103.525 12.4017 103.426 13.003 103.228 13.509C103.03 14.0077 102.758 14.4147 102.414 14.73C102.069 15.0453 101.673 15.2763 101.226 15.423C100.778 15.5697 100.298 15.643 99.7848 15.643ZM99.7738 13.993C100.074 13.993 100.353 13.927 100.61 13.795C100.866 13.6557 101.072 13.4247 101.226 13.102C101.387 12.772 101.468 12.3063 101.468 11.705V11.485C101.468 10.913 101.387 10.4693 101.226 10.154C101.072 9.83867 100.866 9.61867 100.61 9.494C100.353 9.36933 100.074 9.307 99.7738 9.307C99.4878 9.307 99.2165 9.36933 98.9598 9.494C98.7031 9.61867 98.4941 9.83867 98.3328 10.154C98.1715 10.4693 98.0908 10.913 98.0908 11.485V11.705C98.0908 12.3063 98.1715 12.772 98.3328 13.102C98.4941 13.4247 98.7031 13.6557 98.9598 13.795C99.2165 13.927 99.4878 13.993 99.7738 13.993ZM104.785 15.5V7.8H107.92C108.638 7.8 109.229 7.90633 109.691 8.119C110.153 8.32433 110.494 8.625 110.714 9.021C110.941 9.40967 111.055 9.879 111.055 10.429C111.055 10.9717 110.941 11.441 110.714 11.837C110.494 12.233 110.153 12.5373 109.691 12.75C109.229 12.9553 108.638 13.058 107.92 13.058H106.765V15.5H104.785ZM106.765 11.43H107.7C108.206 11.43 108.561 11.3457 108.767 11.177C108.972 11.0083 109.075 10.759 109.075 10.429C109.075 10.099 108.972 9.84967 108.767 9.681C108.561 9.51233 108.206 9.428 107.7 9.428H106.765V11.43ZM112.264 15.5V7.8H114.244V15.5H112.264ZM115.892 15.5V7.8H117.641L120.622 12.09V7.8H122.712V15.5H120.842L117.872 11.21V15.5H115.892ZM127.659 15.643C126.963 15.643 126.336 15.511 125.778 15.247C125.221 14.9757 124.781 14.5503 124.458 13.971C124.136 13.3917 123.974 12.6363 123.974 11.705V11.485C123.974 10.8177 124.07 10.2457 124.26 9.769C124.451 9.285 124.711 8.889 125.041 8.581C125.379 8.26567 125.764 8.03467 126.196 7.888C126.636 7.734 127.106 7.657 127.604 7.657C128.044 7.657 128.455 7.70833 128.836 7.811C129.218 7.91367 129.555 8.075 129.848 8.295C130.149 8.50767 130.395 8.78267 130.585 9.12C130.783 9.45733 130.908 9.86067 130.959 10.33H128.902C128.844 10.0513 128.741 9.83867 128.594 9.692C128.455 9.54533 128.297 9.44633 128.121 9.395C127.953 9.33633 127.78 9.307 127.604 9.307C127.296 9.307 127.021 9.37667 126.779 9.516C126.545 9.648 126.358 9.87167 126.218 10.187C126.086 10.5023 126.02 10.935 126.02 11.485V11.705C126.02 12.1157 126.061 12.4677 126.141 12.761C126.222 13.047 126.332 13.2817 126.471 13.465C126.618 13.6483 126.79 13.784 126.988 13.872C127.194 13.9527 127.417 13.993 127.659 13.993C127.931 13.993 128.187 13.949 128.429 13.861C128.671 13.7657 128.873 13.619 129.034 13.421C129.196 13.223 129.28 12.97 129.287 12.662H127.879V11.408H131.124V11.925C131.124 12.585 131.036 13.1497 130.86 13.619C130.692 14.0883 130.453 14.4733 130.145 14.774C129.837 15.0747 129.471 15.2947 129.045 15.434C128.627 15.5733 128.165 15.643 127.659 15.643Z" fill="white" fill-opacity="0.85"/>
<path d="M20.77 15.5H19.77V16.5H20.77V15.5ZM20.77 7.8V6.8H19.77V7.8H20.77ZM22.75 7.8H23.75V6.8H22.75V7.8ZM22.75 13.872H21.75V14.872H22.75V13.872ZM26.05 13.872H27.05V12.872H26.05V13.872ZM26.05 15.5V16.5H27.05V15.5H26.05ZM20.77 15.5H21.77V7.8H20.77H19.77V15.5H20.77ZM20.77 7.8V8.8H22.75V7.8V6.8H20.77V7.8ZM22.75 7.8H21.75V13.872H22.75H23.75V7.8H22.75ZM22.75 13.872V14.872H26.05V13.872V12.872H22.75V13.872ZM26.05 13.872H25.05V15.5H26.05H27.05V13.872H26.05ZM26.05 15.5V14.5H20.77V15.5V16.5H26.05V15.5ZM27.0434 15.5H26.0434V16.5H27.0434V15.5ZM27.0434 7.8V6.8H26.0434V7.8H27.0434ZM32.6534 7.8H33.6534V6.8H32.6534V7.8ZM32.6534 9.318V10.318H33.6534V9.318H32.6534ZM29.0234 9.318V8.318H28.0234V9.318H29.0234ZM29.0234 10.825H28.0234V11.825H29.0234V10.825ZM32.3234 10.825H33.3234V9.825H32.3234V10.825ZM32.3234 12.255V13.255H33.3234V12.255H32.3234ZM29.0234 12.255V11.255H28.0234V12.255H29.0234ZM29.0234 13.982H28.0234V14.982H29.0234V13.982ZM32.6534 13.982H33.6534V12.982H32.6534V13.982ZM32.6534 15.5V16.5H33.6534V15.5H32.6534ZM27.0434 15.5H28.0434V7.8H27.0434H26.0434V15.5H27.0434ZM27.0434 7.8V8.8H32.6534V7.8V6.8H27.0434V7.8ZM32.6534 7.8H31.6534V9.318H32.6534H33.6534V7.8H32.6534ZM32.6534 9.318V8.318H29.0234V9.318V10.318H32.6534V9.318ZM29.0234 9.318H28.0234V10.825H29.0234H30.0234V9.318H29.0234ZM29.0234 10.825V11.825H32.3234V10.825V9.825H29.0234V10.825ZM32.3234 10.825H31.3234V12.255H32.3234H33.3234V10.825H32.3234ZM32.3234 12.255V11.255H29.0234V12.255V13.255H32.3234V12.255ZM29.0234 12.255H28.0234V13.982H29.0234H30.0234V12.255H29.0234ZM29.0234 13.982V14.982H32.6534V13.982V12.982H29.0234V13.982ZM32.6534 13.982H31.6534V15.5H32.6534H33.6534V13.982H32.6534ZM32.6534 15.5V14.5H27.0434V15.5V16.5H32.6534V15.5ZM36.2151 15.5L35.2781 15.8494L35.5207 16.5H36.2151V15.5ZM33.3441 7.8V6.8H31.904L32.4071 8.14936L33.3441 7.8ZM35.5551 7.8L36.503 7.48135L36.2739 6.8H35.5551V7.8ZM37.2931 12.97L36.3452 13.2886L37.3115 16.1629L38.2446 13.2777L37.2931 12.97ZM38.9651 7.8V6.8H38.2375L38.0136 7.49229L38.9651 7.8ZM40.9451 7.8L41.8869 8.13634L42.3641 6.8H40.9451V7.8ZM38.1951 15.5V16.5H38.8998L39.1369 15.8363L38.1951 15.5ZM36.2151 15.5L37.1521 15.1506L34.2811 7.45064L33.3441 7.8L32.4071 8.14936L35.2781 15.8494L36.2151 15.5ZM33.3441 7.8V8.8H35.5551V7.8V6.8H33.3441V7.8ZM35.5551 7.8L34.6072 8.11865L36.3452 13.2886L37.2931 12.97L38.241 12.6514L36.503 7.48135L35.5551 7.8ZM37.2931 12.97L38.2446 13.2777L39.9166 8.10771L38.9651 7.8L38.0136 7.49229L36.3416 12.6623L37.2931 12.97ZM38.9651 7.8V8.8H40.9451V7.8V6.8H38.9651V7.8ZM40.9451 7.8L40.0034 7.46366L37.2534 15.1637L38.1951 15.5L39.1369 15.8363L41.8869 8.13634L40.9451 7.8ZM38.1951 15.5V14.5H36.2151V15.5V16.5H38.1951V15.5ZM41.8247 15.5H40.8247V16.5H41.8247V15.5ZM41.8247 7.8V6.8H40.8247V7.8H41.8247ZM47.4347 7.8H48.4347V6.8H47.4347V7.8ZM47.4347 9.318V10.318H48.4347V9.318H47.4347ZM43.8047 9.318V8.318H42.8047V9.318H43.8047ZM43.8047 10.825H42.8047V11.825H43.8047V10.825ZM47.1047 10.825H48.1047V9.825H47.1047V10.825ZM47.1047 12.255V13.255H48.1047V12.255H47.1047ZM43.8047 12.255V11.255H42.8047V12.255H43.8047ZM43.8047 13.982H42.8047V14.982H43.8047V13.982ZM47.4347 13.982H48.4347V12.982H47.4347V13.982ZM47.4347 15.5V16.5H48.4347V15.5H47.4347ZM41.8247 15.5H42.8247V7.8H41.8247H40.8247V15.5H41.8247ZM41.8247 7.8V8.8H47.4347V7.8V6.8H41.8247V7.8ZM47.4347 7.8H46.4347V9.318H47.4347H48.4347V7.8H47.4347ZM47.4347 9.318V8.318H43.8047V9.318V10.318H47.4347V9.318ZM43.8047 9.318H42.8047V10.825H43.8047H44.8047V9.318H43.8047ZM43.8047 10.825V11.825H47.1047V10.825V9.825H43.8047V10.825ZM47.1047 10.825H46.1047V12.255H47.1047H48.1047V10.825H47.1047ZM47.1047 12.255V11.255H43.8047V12.255V13.255H47.1047V12.255ZM43.8047 12.255H42.8047V13.982H43.8047H44.8047V12.255H43.8047ZM43.8047 13.982V14.982H47.4347V13.982V12.982H43.8047V13.982ZM47.4347 13.982H46.4347V15.5H47.4347H48.4347V13.982H47.4347ZM47.4347 15.5V14.5H41.8247V15.5V16.5H47.4347V15.5ZM48.6889 15.5H47.6889V16.5H48.6889V15.5ZM48.6889 7.8V6.8H47.6889V7.8H48.6889ZM53.6499 8.119L53.2027 9.01345L53.2088 9.01645L53.6499 8.119ZM54.6289 9.01L53.7628 9.50972V9.50972L54.6289 9.01ZM54.5629 11.793L53.7309 11.2383L53.7285 11.2419L54.5629 11.793ZM53.3969 12.651L53.0648 11.7078L51.8869 12.1225L52.5491 13.1813L53.3969 12.651ZM55.1789 15.5V16.5H56.9839L56.0268 14.9697L55.1789 15.5ZM52.9789 15.5L52.1089 15.993L52.3962 16.5H52.9789V15.5ZM51.4829 12.86L52.353 12.367L52.0657 11.86H51.4829V12.86ZM50.6689 12.86V11.86H49.6689V12.86H50.6689ZM50.6689 15.5V16.5H51.6689V15.5H50.6689ZM50.6689 11.32H49.6689V12.32H50.6689V11.32ZM52.6819 11.089L53.3103 11.8669L53.3136 11.8642L52.6819 11.089ZM52.6819 9.67L52.036 10.4334L52.0517 10.4467L52.068 10.4594L52.6819 9.67ZM50.6689 9.428V8.428H49.6689V9.428H50.6689ZM48.6889 15.5H49.6889V7.8H48.6889H47.6889V15.5H48.6889ZM48.6889 7.8V8.8H52.0439V7.8V6.8H48.6889V7.8ZM52.0439 7.8V8.8C52.5867 8.8 52.9567 8.89043 53.2027 9.01343L53.6499 8.119L54.0972 7.22457C53.4925 6.92224 52.7919 6.8 52.0439 6.8V7.8ZM53.6499 8.119L53.2088 9.01645C53.4812 9.15031 53.6513 9.31647 53.7628 9.50972L54.6289 9.01L55.4951 8.51028C55.1666 7.94086 54.6841 7.51303 54.0911 7.22155L53.6499 8.119ZM54.6289 9.01L53.7628 9.50972C53.8791 9.71141 53.9589 9.98642 53.9589 10.374H54.9589H55.9589C55.9589 9.70558 55.8188 9.07126 55.4951 8.51028L54.6289 9.01ZM54.9589 10.374H53.9589C53.9589 10.7581 53.8691 11.031 53.7309 11.2383L54.5629 11.793L55.395 12.3477C55.7848 11.763 55.9589 11.0899 55.9589 10.374H54.9589ZM54.5629 11.793L53.7285 11.2419C53.6131 11.4166 53.4191 11.583 53.0648 11.7078L53.3969 12.651L53.7291 13.5942C54.4161 13.3523 54.9994 12.9467 55.3974 12.3441L54.5629 11.793ZM53.3969 12.651L52.5491 13.1813L54.3311 16.0303L55.1789 15.5L56.0268 14.9697L54.2448 12.1207L53.3969 12.651ZM55.1789 15.5V14.5H52.9789V15.5V16.5H55.1789V15.5ZM52.9789 15.5L53.849 15.007L52.353 12.367L51.4829 12.86L50.6129 13.353L52.1089 15.993L52.9789 15.5ZM51.4829 12.86V11.86H50.6689V12.86V13.86H51.4829V12.86ZM50.6689 12.86H49.6689V15.5H50.6689H51.6689V12.86H50.6689ZM50.6689 15.5V14.5H48.6889V15.5V16.5H50.6689V15.5ZM50.6689 11.32V12.32H51.6039V11.32V10.32H50.6689V11.32ZM51.6039 11.32V12.32C51.9106 12.32 52.2078 12.2982 52.479 12.2401C52.7418 12.1837 53.0473 12.0794 53.3103 11.8669L52.6819 11.089L52.0536 10.3111C52.126 10.2526 52.1564 10.2638 52.0599 10.2844C51.9718 10.3033 51.8253 10.32 51.6039 10.32V11.32ZM52.6819 11.089L53.3136 11.8642C53.7987 11.469 53.9789 10.9126 53.9789 10.374H52.9789H51.9789C51.9789 10.4284 51.9703 10.4318 51.9812 10.4056C51.9867 10.3924 51.9958 10.3752 52.0092 10.3571C52.0228 10.3389 52.0373 10.3244 52.0503 10.3138L52.6819 11.089ZM52.9789 10.374H53.9789C53.9789 9.83734 53.7989 9.27191 53.2959 8.88065L52.6819 9.67L52.068 10.4594C52.0515 10.4465 52.0337 10.4292 52.0173 10.4078C52.001 10.3865 51.9901 10.3662 51.9833 10.3502C51.9702 10.319 51.9789 10.319 51.9789 10.374H52.9789ZM52.6819 9.67L53.3279 8.90661C53.0649 8.68408 52.7565 8.57294 52.4885 8.51278C52.2134 8.45102 51.9128 8.428 51.6039 8.428V9.428V10.428C51.8231 10.428 51.9662 10.4453 52.0504 10.4642C52.1418 10.4847 52.1083 10.4946 52.036 10.4334L52.6819 9.67ZM51.6039 9.428V8.428H50.6689V9.428V10.428H51.6039V9.428ZM50.6689 9.428H49.6689V11.32H50.6689H51.6689V9.428H50.6689ZM55.7201 15.5L54.7809 15.1565L54.2896 16.5H55.7201V15.5ZM58.5361 7.8V6.8H57.837L57.5969 7.45653L58.5361 7.8ZM60.5161 7.8L61.4557 7.45772L61.2161 6.8H60.5161V7.8ZM63.3211 15.5V16.5H64.7497L64.2607 15.1577L63.3211 15.5ZM61.2311 15.5L60.2897 15.8372L60.5271 16.5H61.2311V15.5ZM60.7031 14.026L61.6445 13.6888L61.4071 13.026H60.7031V14.026ZM58.1291 14.026V13.026H57.4251L57.1877 13.6888L58.1291 14.026ZM57.6011 15.5V16.5H58.3051L58.5425 15.8372L57.6011 15.5ZM58.6901 12.508L57.7369 12.2056L57.3237 13.508H58.6901V12.508ZM60.1421 12.508V13.508H61.5085L61.0953 12.2056L60.1421 12.508ZM59.4161 10.22L60.3693 9.91755L59.4161 6.91364L58.4629 9.91755L59.4161 10.22ZM55.7201 15.5L56.6593 15.8435L59.4753 8.14347L58.5361 7.8L57.5969 7.45653L54.7809 15.1565L55.7201 15.5ZM58.5361 7.8V8.8H60.5161V7.8V6.8H58.5361V7.8ZM60.5161 7.8L59.5765 8.14228L62.3815 15.8423L63.3211 15.5L64.2607 15.1577L61.4557 7.45772L60.5161 7.8ZM63.3211 15.5V14.5H61.2311V15.5V16.5H63.3211V15.5ZM61.2311 15.5L62.1725 15.1628L61.6445 13.6888L60.7031 14.026L59.7617 14.3632L60.2897 15.8372L61.2311 15.5ZM60.7031 14.026V13.026H58.1291V14.026V15.026H60.7031V14.026ZM58.1291 14.026L57.1877 13.6888L56.6597 15.1628L57.6011 15.5L58.5425 15.8372L59.0705 14.3632L58.1291 14.026ZM57.6011 15.5V14.5H55.7201V15.5V16.5H57.6011V15.5ZM58.6901 12.508V13.508H60.1421V12.508V11.508H58.6901V12.508ZM60.1421 12.508L61.0953 12.2056L60.3693 9.91755L59.4161 10.22L58.4629 10.5224L59.1889 12.8104L60.1421 12.508ZM59.4161 10.22L58.4629 9.91755L57.7369 12.2056L58.6901 12.508L59.6433 12.8104L60.3693 10.5224L59.4161 10.22ZM65.5148 15.247L65.0771 16.1462L65.0867 16.1507L65.5148 15.247ZM64.1948 13.971L65.0685 13.4844V13.4844L64.1948 13.971ZM63.9968 9.769L64.9253 10.1404L64.9272 10.1355L63.9968 9.769ZM64.7778 8.581L65.4601 9.31206L65.4607 9.31153L64.7778 8.581ZM65.9328 7.888L66.2539 8.83511L66.2632 8.83186L65.9328 7.888ZM68.5728 7.811L68.3128 8.77662V8.77662L68.5728 7.811ZM69.5848 8.295L68.9848 9.095L68.996 9.10336L69.0074 9.11141L69.5848 8.295ZM70.3218 9.12L69.4513 9.61206L69.4553 9.61916L69.4594 9.6262L70.3218 9.12ZM70.6958 10.33V11.33H71.8112L71.6899 10.2213L70.6958 10.33ZM68.6388 10.33L67.6603 10.536L67.8274 11.33H68.6388V10.33ZM68.3308 9.692L67.6058 10.3807L67.6147 10.39L67.6237 10.3991L68.3308 9.692ZM67.8578 9.395L67.5293 10.3395L67.5534 10.3479L67.5778 10.355L67.8578 9.395ZM66.5158 9.516L67.0061 10.3876L67.0148 10.3826L66.5158 9.516ZM65.9548 10.187L65.0401 9.78284L65.0362 9.79181L65.0324 9.80086L65.9548 10.187ZM65.8778 12.761L64.9136 13.0262L64.9154 13.0325L65.8778 12.761ZM66.2078 13.465L65.4117 14.0701L65.4192 14.08L65.427 14.0897L66.2078 13.465ZM66.7248 13.872L66.3187 14.7858L66.3387 14.7947L66.3592 14.8028L66.7248 13.872ZM68.1658 13.861L68.5076 14.8008L68.52 14.7963L68.5323 14.7914L68.1658 13.861ZM68.7708 13.421L67.9956 12.7893V12.7893L68.7708 13.421ZM69.0238 12.662L70.0235 12.6858L70.0479 11.662H69.0238V12.662ZM67.6158 12.662H66.6158V13.662H67.6158V12.662ZM67.6158 11.408V10.408H66.6158V11.408H67.6158ZM70.8608 11.408H71.8608V10.408H70.8608V11.408ZM70.5968 13.619L69.6604 13.2678L69.6557 13.2808L70.5968 13.619ZM69.8818 14.774L70.5804 15.4896V15.4896L69.8818 14.774ZM68.7818 15.434L68.4705 14.4837L68.4656 14.4853L68.7818 15.434ZM67.3958 15.643V14.643C66.8279 14.643 66.35 14.5361 65.9429 14.3433L65.5148 15.247L65.0867 16.1507C65.7943 16.4859 66.5704 16.643 67.3958 16.643V15.643ZM65.5148 15.247L65.9525 14.3479C65.5924 14.1726 65.2988 13.898 65.0685 13.4844L64.1948 13.971L63.3212 14.4576C63.7362 15.2026 64.3225 15.7788 65.0771 16.1461L65.5148 15.247ZM64.1948 13.971L65.0685 13.4844C64.8555 13.102 64.7108 12.5312 64.7108 11.705H63.7108H62.7108C62.7108 12.7415 62.8889 13.6814 63.3212 14.4576L64.1948 13.971ZM63.7108 11.705H64.7108V11.485H63.7108H62.7108V11.705H63.7108ZM63.7108 11.485H64.7108C64.7108 10.9086 64.7937 10.4694 64.9253 10.1404L63.9968 9.769L63.0683 9.39761C62.8186 10.022 62.7108 10.7268 62.7108 11.485H63.7108ZM63.9968 9.769L64.9272 10.1355C65.0717 9.76891 65.2544 9.50412 65.4601 9.31206L64.7778 8.581L64.0955 7.84994C63.6413 8.27388 63.3033 8.80109 63.0664 9.40247L63.9968 9.769ZM64.7778 8.581L65.4607 9.31153C65.6953 9.09219 65.9573 8.93559 66.2539 8.83507L65.9328 7.888L65.6118 6.94093C65.043 7.13374 64.535 7.43914 64.0949 7.85047L64.7778 8.581ZM65.9328 7.888L66.2632 8.83186C66.5898 8.71753 66.9468 8.657 67.3408 8.657V7.657V6.657C66.7375 6.657 66.1558 6.75047 65.6025 6.94414L65.9328 7.888ZM67.3408 7.657V8.657C67.7029 8.657 68.0253 8.6992 68.3128 8.77662L68.5728 7.811L68.8328 6.84538C68.3577 6.71746 67.8587 6.657 67.3408 6.657V7.657ZM68.5728 7.811L68.3128 8.77662C68.5809 8.84878 68.8009 8.95704 68.9848 9.095L69.5848 8.295L70.1848 7.495C69.7821 7.19296 69.3274 6.97856 68.8328 6.84538L68.5728 7.811ZM69.5848 8.295L69.0074 9.11141C69.1813 9.23447 69.3293 9.39628 69.4513 9.61206L70.3218 9.12L71.1924 8.62794C70.933 8.16906 70.5896 7.78087 70.1623 7.47858L69.5848 8.295ZM70.3218 9.12L69.4594 9.6262C69.5728 9.81931 69.6626 10.0812 69.7017 10.4387L70.6958 10.33L71.6899 10.2213C71.6263 9.64014 71.4669 9.09535 71.1842 8.6138L70.3218 9.12ZM70.6958 10.33V9.33H68.6388V10.33V11.33H70.6958V10.33ZM68.6388 10.33L69.6174 10.124C69.5332 9.72401 69.3641 9.31103 69.0379 8.98489L68.3308 9.692L67.6237 10.3991C67.5909 10.3663 67.6271 10.3787 67.6603 10.536L68.6388 10.33ZM68.3308 9.692L69.0558 9.00325C68.8077 8.74204 68.5007 8.54083 68.1378 8.435L67.8578 9.395L67.5778 10.355C67.5757 10.3544 67.5745 10.3535 67.5763 10.3546C67.5785 10.3561 67.5888 10.3628 67.6058 10.3807L68.3308 9.692ZM67.8578 9.395L68.1863 8.4505C67.9136 8.35564 67.6303 8.307 67.3408 8.307V9.307V10.307C67.4033 10.307 67.4647 10.317 67.5293 10.3395L67.8578 9.395ZM67.3408 9.307V8.307C66.8762 8.307 66.4259 8.41387 66.0169 8.64938L66.5158 9.516L67.0148 10.3826C67.0897 10.3395 67.1894 10.307 67.3408 10.307V9.307ZM66.5158 9.516L66.0256 8.64442C65.5557 8.90874 65.2421 9.32572 65.0401 9.78284L65.9548 10.187L66.8695 10.5912C66.908 10.504 66.943 10.4525 66.9668 10.4242C66.9891 10.3975 67.0027 10.3895 67.0061 10.3876L66.5158 9.516ZM65.9548 10.187L65.0324 9.80086C64.8275 10.2904 64.7568 10.8735 64.7568 11.485H65.7568H66.7568C66.7568 10.9965 66.8182 10.7143 66.8773 10.5731L65.9548 10.187ZM65.7568 11.485H64.7568V11.705H65.7568H66.7568V11.485H65.7568ZM65.7568 11.705H64.7568C64.7568 12.1762 64.8026 12.6223 64.9136 13.0262L65.8778 12.761L66.842 12.4958C66.7917 12.313 66.7568 12.0551 66.7568 11.705H65.7568ZM65.8778 12.761L64.9154 13.0325C65.0206 13.4057 65.178 13.7626 65.4117 14.0701L66.2078 13.465L67.004 12.8599C66.959 12.8007 66.8963 12.6883 66.8403 12.4895L65.8778 12.761ZM66.2078 13.465L65.427 14.0897C65.6651 14.3873 65.9624 14.6275 66.3187 14.7858L66.7248 13.872L67.131 12.9582C67.0912 12.9405 67.0439 12.9093 66.9887 12.8403L66.2078 13.465ZM66.7248 13.872L66.3592 14.8028C66.6918 14.9334 67.0408 14.993 67.3958 14.993V13.993V12.993C67.2668 12.993 67.1685 12.9719 67.0905 12.9412L66.7248 13.872ZM67.3958 13.993V14.993C67.7774 14.993 68.1502 14.9307 68.5076 14.8008L68.1658 13.861L67.8241 12.9212C67.6974 12.9673 67.5569 12.993 67.3958 12.993V13.993ZM68.1658 13.861L68.5323 14.7914C68.9309 14.6344 69.2743 14.3862 69.5461 14.0527L68.7708 13.421L67.9956 12.7893C67.9447 12.8518 67.8848 12.8969 67.7993 12.9306L68.1658 13.861ZM68.7708 13.421L69.5461 14.0527C69.8748 13.6493 70.012 13.1685 70.0235 12.6858L69.0238 12.662L68.0241 12.6382C68.0224 12.7078 68.0126 12.7477 68.0064 12.7665C68.0008 12.7834 67.9965 12.7882 67.9956 12.7893L68.7708 13.421ZM69.0238 12.662V11.662H67.6158V12.662V13.662H69.0238V12.662ZM67.6158 12.662H68.6158V11.408H67.6158H66.6158V12.662H67.6158ZM67.6158 11.408V12.408H70.8608V11.408V10.408H67.6158V11.408ZM70.8608 11.408H69.8608V11.925H70.8608H71.8608V11.408H70.8608ZM70.8608 11.925H69.8608C69.8608 12.501 69.7834 12.9401 69.6605 13.2679L70.5968 13.619L71.5331 13.9701C71.7622 13.3592 71.8608 12.669 71.8608 11.925H70.8608ZM70.5968 13.619L69.6557 13.2808C69.5302 13.6302 69.367 13.8791 69.1833 14.0584L69.8818 14.774L70.5804 15.4896C71.0127 15.0675 71.3261 14.5465 71.5379 13.9572L70.5968 13.619ZM69.8818 14.774L69.1833 14.0584C68.9891 14.248 68.7565 14.39 68.4705 14.4837L68.7818 15.434L69.0931 16.3843C69.6578 16.1993 70.1585 15.9014 70.5804 15.4896L69.8818 14.774ZM68.7818 15.434L68.4656 14.4853C68.1634 14.586 67.81 14.643 67.3958 14.643V15.643V16.643C67.9936 16.643 68.5642 16.5606 69.098 16.3827L68.7818 15.434ZM72.0747 15.5H71.0747V16.5H72.0747V15.5ZM72.0747 7.8V6.8H71.0747V7.8H72.0747ZM77.6847 7.8H78.6847V6.8H77.6847V7.8ZM77.6847 9.318V10.318H78.6847V9.318H77.6847ZM74.0547 9.318V8.318H73.0547V9.318H74.0547ZM74.0547 10.825H73.0547V11.825H74.0547V10.825ZM77.3547 10.825H78.3547V9.825H77.3547V10.825ZM77.3547 12.255V13.255H78.3547V12.255H77.3547ZM74.0547 12.255V11.255H73.0547V12.255H74.0547ZM74.0547 13.982H73.0547V14.982H74.0547V13.982ZM77.6847 13.982H78.6847V12.982H77.6847V13.982ZM77.6847 15.5V16.5H78.6847V15.5H77.6847ZM72.0747 15.5H73.0747V7.8H72.0747H71.0747V15.5H72.0747ZM72.0747 7.8V8.8H77.6847V7.8V6.8H72.0747V7.8ZM77.6847 7.8H76.6847V9.318H77.6847H78.6847V7.8H77.6847ZM77.6847 9.318V8.318H74.0547V9.318V10.318H77.6847V9.318ZM74.0547 9.318H73.0547V10.825H74.0547H75.0547V9.318H74.0547ZM74.0547 10.825V11.825H77.3547V10.825V9.825H74.0547V10.825ZM77.3547 10.825H76.3547V12.255H77.3547H78.3547V10.825H77.3547ZM77.3547 12.255V11.255H74.0547V12.255V13.255H77.3547V12.255ZM74.0547 12.255H73.0547V13.982H74.0547H75.0547V12.255H74.0547ZM74.0547 13.982V14.982H77.6847V13.982V12.982H74.0547V13.982ZM77.6847 13.982H76.6847V15.5H77.6847H78.6847V13.982H77.6847ZM77.6847 15.5V14.5H72.0747V15.5V16.5H77.6847V15.5ZM81.6889 15.5H80.6889V16.5H81.6889V15.5ZM81.6889 7.8V6.8H80.6889V7.8H81.6889ZM83.6689 7.8H84.6689V6.8H83.6689V7.8ZM83.6689 13.872H82.6689V14.872H83.6689V13.872ZM86.9689 13.872H87.9689V12.872H86.9689V13.872ZM86.9689 15.5V16.5H87.9689V15.5H86.9689ZM81.6889 15.5H82.6889V7.8H81.6889H80.6889V15.5H81.6889ZM81.6889 7.8V8.8H83.6689V7.8V6.8H81.6889V7.8ZM83.6689 7.8H82.6689V13.872H83.6689H84.6689V7.8H83.6689ZM83.6689 13.872V14.872H86.9689V13.872V12.872H83.6689V13.872ZM86.9689 13.872H85.9689V15.5H86.9689H87.9689V13.872H86.9689ZM86.9689 15.5V14.5H81.6889V15.5V16.5H86.9689V15.5ZM89.879 15.423L89.5674 16.3732L89.572 16.3747L89.879 15.423ZM88.691 14.73L89.366 13.9922V13.9922L88.691 14.73ZM87.877 13.509L86.9457 13.8734L86.9475 13.878L87.877 13.509ZM87.877 9.747L88.8025 10.1256V10.1256L87.877 9.747ZM88.691 8.559L89.3573 9.30466V9.30466L88.691 8.559ZM89.879 7.877L89.572 6.92528L89.5674 6.92677L89.879 7.877ZM92.761 7.877L92.4494 8.82723V8.82723L92.761 7.877ZM94.763 9.747L93.8374 10.1256V10.1256L94.763 9.747ZM94.763 13.509L95.6924 13.878L95.6942 13.8734L94.763 13.509ZM93.949 14.73L94.624 15.4678V15.4678L93.949 14.73ZM92.761 15.423L93.0725 16.3732V16.3732L92.761 15.423ZM92.145 13.795L92.6023 14.6843L92.6122 14.6792L92.6221 14.6739L92.145 13.795ZM92.761 13.102L91.8625 12.6628L91.8585 12.6713L92.761 13.102ZM92.761 10.154L91.8624 10.5928L91.8665 10.6012L91.8707 10.6095L92.761 10.154ZM92.145 9.494L91.7081 10.3935L91.7081 10.3935L92.145 9.494ZM90.495 9.494L90.9319 10.3935V10.3935L90.495 9.494ZM89.868 10.154L90.7582 10.6095V10.6095L89.868 10.154ZM89.868 13.102L88.9695 13.5412L88.9735 13.5492L89.868 13.102ZM90.495 13.795L90.0179 14.6739L90.0277 14.6792L90.0376 14.6843L90.495 13.795ZM91.32 15.643V14.643C90.912 14.643 90.5357 14.5841 90.186 14.4713L89.879 15.423L89.572 16.3747C90.1315 16.5552 90.7159 16.643 91.32 16.643V15.643ZM89.879 15.423L90.1905 14.4728C89.877 14.37 89.6051 14.211 89.366 13.9922L88.691 14.73L88.0159 15.4678C88.4662 15.8797 88.9863 16.1827 89.5674 16.3732L89.879 15.423ZM88.691 14.73L89.366 13.9922C89.1484 13.7931 88.9569 13.519 88.8064 13.14L87.877 13.509L86.9475 13.878C87.1931 14.4964 87.5442 15.0362 88.0159 15.4678L88.691 14.73ZM87.877 13.509L88.8082 13.1446C88.6665 12.7824 88.58 12.3106 88.58 11.705H87.58H86.58C86.58 12.4928 86.6915 13.2236 86.9457 13.8734L87.877 13.509ZM87.58 11.705H88.58V11.485H87.58H86.58V11.705H87.58ZM87.58 11.485H88.58C88.58 10.9042 88.6657 10.4601 88.8025 10.1256L87.877 9.747L86.9514 9.36837C86.6922 10.0019 86.58 10.7165 86.58 11.485H87.58ZM87.877 9.747L88.8025 10.1256C88.9506 9.76351 89.1398 9.49901 89.3573 9.30466L88.691 8.559L88.0246 7.81334C87.5528 8.23499 87.1993 8.76249 86.9514 9.36837L87.877 9.747ZM88.691 8.559L89.3573 9.30466C89.5971 9.09032 89.8718 8.93173 90.1905 8.82723L89.879 7.877L89.5674 6.92677C88.9915 7.11561 88.4741 7.41168 88.0246 7.81334L88.691 8.559ZM89.879 7.877L90.186 8.82871C90.5357 8.71588 90.912 8.657 91.32 8.657V7.657V6.657C90.7159 6.657 90.1315 6.74478 89.572 6.92529L89.879 7.877ZM91.32 7.657V8.657C91.737 8.657 92.1113 8.71638 92.4494 8.82723L92.761 7.877L93.0725 6.92677C92.5159 6.74429 91.9296 6.657 91.32 6.657V7.657ZM92.761 7.877L92.4494 8.82723C92.7681 8.93173 93.0428 9.09032 93.2826 9.30466L93.949 8.559L94.6153 7.81334C94.1658 7.41168 93.6485 7.11561 93.0725 6.92677L92.761 7.877ZM93.949 8.559L93.2826 9.30466C93.5001 9.49901 93.6893 9.76351 93.8374 10.1256L94.763 9.747L95.6885 9.36837C95.4407 8.76249 95.0871 8.23499 94.6153 7.81334L93.949 8.559ZM94.763 9.747L93.8374 10.1256C93.9742 10.4601 94.06 10.9042 94.06 11.485H95.06H96.06C96.06 10.7165 95.9477 10.0019 95.6885 9.36837L94.763 9.747ZM95.06 11.485H94.06V11.705H95.06H96.06V11.485H95.06ZM95.06 11.705H94.06C94.06 12.3106 93.9735 12.7824 93.8317 13.1446L94.763 13.509L95.6942 13.8734C95.9485 13.2236 96.06 12.4928 96.06 11.705H95.06ZM94.763 13.509L93.8335 13.14C93.6831 13.519 93.4915 13.7931 93.2739 13.9922L93.949 14.73L94.624 15.4678C95.0957 15.0362 95.4469 14.4964 95.6924 13.878L94.763 13.509ZM93.949 14.73L93.2739 13.9922C93.0348 14.211 92.763 14.37 92.4494 14.4728L92.761 15.423L93.0725 16.3732C93.6536 16.1827 94.1738 15.8797 94.624 15.4678L93.949 14.73ZM92.761 15.423L92.4494 14.4728C92.1113 14.5836 91.737 14.643 91.32 14.643V15.643V16.643C91.9296 16.643 92.5159 16.5557 93.0725 16.3732L92.761 15.423ZM91.309 13.993V14.993C91.7619 14.993 92.1982 14.8921 92.6023 14.6843L92.145 13.795L91.6876 12.9057C91.5784 12.9619 91.4574 12.993 91.309 12.993V13.993ZM92.145 13.795L92.6221 14.6739C93.1026 14.413 93.4393 14.0024 93.6634 13.5327L92.761 13.102L91.8585 12.6713C91.7747 12.8469 91.7007 12.8983 91.6679 12.9161L92.145 13.795ZM92.761 13.102L93.6593 13.5412C93.917 13.0141 94.003 12.373 94.003 11.705H93.003H92.003C92.003 12.2397 91.9276 12.5299 91.8626 12.6628L92.761 13.102ZM93.003 11.705H94.003V11.485H93.003H92.003V11.705H93.003ZM93.003 11.485H94.003C94.003 10.8413 93.9159 10.2158 93.6512 9.69852L92.761 10.154L91.8707 10.6095C91.9287 10.7229 92.003 10.9847 92.003 11.485H93.003ZM92.761 10.154L93.6595 9.71516C93.4306 9.24635 93.0823 8.83758 92.5819 8.59449L92.145 9.494L91.7081 10.3935C91.7209 10.3998 91.7833 10.431 91.8624 10.5928L92.761 10.154ZM92.145 9.494L92.5819 8.59449C92.1817 8.40015 91.7527 8.307 91.309 8.307V9.307V10.307C91.4666 10.307 91.5948 10.3385 91.7081 10.3935L92.145 9.494ZM91.309 9.307V8.307C90.872 8.307 90.4512 8.40354 90.0581 8.59449L90.495 9.494L90.9319 10.3935C91.0521 10.3351 91.174 10.307 91.309 10.307V9.307ZM90.495 9.494L90.0581 8.59449C89.563 8.83495 89.2136 9.23738 88.9777 9.69852L89.868 10.154L90.7582 10.6095C90.8449 10.44 90.9136 10.4024 90.9319 10.3935L90.495 9.494ZM89.868 10.154L88.9777 9.69852C88.7131 10.2158 88.626 10.8413 88.626 11.485H89.626H90.626C90.626 10.9847 90.7002 10.7229 90.7582 10.6095L89.868 10.154ZM89.626 11.485H88.626V11.705H89.626H90.626V11.485H89.626ZM89.626 11.705H88.626C88.626 12.373 88.7119 13.0141 88.9696 13.5412L89.868 13.102L90.7663 12.6628C90.7014 12.5299 90.626 12.2397 90.626 11.705H89.626ZM89.868 13.102L88.9735 13.5492C89.2047 14.0115 89.5426 14.4159 90.0179 14.6739L90.495 13.795L90.9721 12.9161C90.934 12.8955 90.8539 12.8378 90.7624 12.6548L89.868 13.102ZM90.495 13.795L90.0376 14.6843C90.4344 14.8884 90.8624 14.993 91.309 14.993V13.993V12.993C91.1836 12.993 91.0689 12.9656 90.9523 12.9057L90.495 13.795ZM98.3438 15.423L98.0322 16.3732L98.0368 16.3747L98.3438 15.423ZM97.1558 14.73L97.8308 13.9922V13.9922L97.1558 14.73ZM96.3418 13.509L95.4106 13.8734L95.4124 13.878L96.3418 13.509ZM96.3418 9.747L97.2673 10.1256V10.1256L96.3418 9.747ZM97.1558 8.559L97.8221 9.30466V9.30466L97.1558 8.559ZM98.3438 7.877L98.0368 6.92528L98.0323 6.92677L98.3438 7.877ZM101.226 7.877L100.914 8.82723V8.82723L101.226 7.877ZM103.228 9.747L102.302 10.1256V10.1256L103.228 9.747ZM103.228 13.509L104.157 13.878L104.159 13.8734L103.228 13.509ZM102.414 14.73L103.089 15.4678V15.4678L102.414 14.73ZM101.226 15.423L101.537 16.3732V16.3732L101.226 15.423ZM100.61 13.795L101.067 14.6843L101.077 14.6792L101.087 14.6739L100.61 13.795ZM101.226 13.102L100.327 12.6628L100.323 12.6713L101.226 13.102ZM101.226 10.154L100.327 10.5928L100.331 10.6012L100.336 10.6095L101.226 10.154ZM100.61 9.494L100.173 10.3935L100.173 10.3935L100.61 9.494ZM98.9598 9.494L99.3967 10.3935V10.3935L98.9598 9.494ZM98.3328 10.154L99.2231 10.6095V10.6095L98.3328 10.154ZM98.3328 13.102L97.4344 13.5412L97.4384 13.5492L98.3328 13.102ZM98.9598 13.795L98.4827 14.6739L98.4925 14.6792L98.5025 14.6843L98.9598 13.795ZM99.7848 15.643V14.643C99.3768 14.643 99.0006 14.5841 98.6508 14.4713L98.3438 15.423L98.0368 16.3747C98.5964 16.5552 99.1808 16.643 99.7848 16.643V15.643ZM98.3438 15.423L98.6554 14.4728C98.3418 14.37 98.0699 14.211 97.8308 13.9922L97.1558 14.73L96.4808 15.4678C96.931 15.8797 97.4511 16.1827 98.0323 16.3732L98.3438 15.423ZM97.1558 14.73L97.8308 13.9922C97.6132 13.7931 97.4217 13.519 97.2712 13.14L96.3418 13.509L95.4124 13.878C95.6579 14.4964 96.009 15.0362 96.4808 15.4678L97.1558 14.73ZM96.3418 13.509L97.273 13.1446C97.1313 12.7824 97.0448 12.3106 97.0448 11.705H96.0448H95.0448C95.0448 12.4928 95.1563 13.2236 95.4106 13.8734L96.3418 13.509ZM96.0448 11.705H97.0448V11.485H96.0448H95.0448V11.705H96.0448ZM96.0448 11.485H97.0448C97.0448 10.9042 97.1305 10.4601 97.2673 10.1256L96.3418 9.747L95.4163 9.36837C95.1571 10.0019 95.0448 10.7165 95.0448 11.485H96.0448ZM96.3418 9.747L97.2673 10.1256C97.4155 9.76351 97.6046 9.49901 97.8221 9.30466L97.1558 8.559L96.4895 7.81334C96.0176 8.23499 95.6641 8.76249 95.4163 9.36837L96.3418 9.747ZM97.1558 8.559L97.8221 9.30466C98.062 9.09032 98.3366 8.93173 98.6554 8.82723L98.3438 7.877L98.0323 6.92677C97.4563 7.11561 96.939 7.41168 96.4895 7.81334L97.1558 8.559ZM98.3438 7.877L98.6508 8.82871C99.0006 8.71588 99.3768 8.657 99.7848 8.657V7.657V6.657C99.1808 6.657 98.5964 6.74478 98.0368 6.92529L98.3438 7.877ZM99.7848 7.657V8.657C100.202 8.657 100.576 8.71638 100.914 8.82723L101.226 7.877L101.537 6.92677C100.981 6.74429 100.394 6.657 99.7848 6.657V7.657ZM101.226 7.877L100.914 8.82723C101.233 8.93173 101.508 9.09032 101.747 9.30466L102.414 8.559L103.08 7.81334C102.631 7.41168 102.113 7.11561 101.537 6.92677L101.226 7.877ZM102.414 8.559L101.747 9.30466C101.965 9.49901 102.154 9.76351 102.302 10.1256L103.228 9.747L104.153 9.36837C103.905 8.76249 103.552 8.23499 103.08 7.81334L102.414 8.559ZM103.228 9.747L102.302 10.1256C102.439 10.4601 102.525 10.9042 102.525 11.485H103.525H104.525C104.525 10.7165 104.413 10.0019 104.153 9.36837L103.228 9.747ZM103.525 11.485H102.525V11.705H103.525H104.525V11.485H103.525ZM103.525 11.705H102.525C102.525 12.3106 102.438 12.7824 102.297 13.1446L103.228 13.509L104.159 13.8734C104.413 13.2236 104.525 12.4928 104.525 11.705H103.525ZM103.228 13.509L102.298 13.14C102.148 13.519 101.956 13.7931 101.739 13.9922L102.414 14.73L103.089 15.4678C103.561 15.0362 103.912 14.4964 104.157 13.878L103.228 13.509ZM102.414 14.73L101.739 13.9922C101.5 14.211 101.228 14.37 100.914 14.4728L101.226 15.423L101.537 16.3732C102.118 16.1827 102.639 15.8797 103.089 15.4678L102.414 14.73ZM101.226 15.423L100.914 14.4728C100.576 14.5836 100.202 14.643 99.7848 14.643V15.643V16.643C100.394 16.643 100.981 16.5557 101.537 16.3732L101.226 15.423ZM99.7738 13.993V14.993C100.227 14.993 100.663 14.8921 101.067 14.6843L100.61 13.795L100.152 12.9057C100.043 12.9619 99.9222 12.993 99.7738 12.993V13.993ZM100.61 13.795L101.087 14.6739C101.567 14.413 101.904 14.0024 102.128 13.5327L101.226 13.102L100.323 12.6713C100.24 12.8469 100.166 12.8983 100.133 12.9161L100.61 13.795ZM101.226 13.102L102.124 13.5412C102.382 13.0141 102.468 12.373 102.468 11.705H101.468H100.468C100.468 12.2397 100.392 12.5299 100.327 12.6628L101.226 13.102ZM101.468 11.705H102.468V11.485H101.468H100.468V11.705H101.468ZM101.468 11.485H102.468C102.468 10.8413 102.381 10.2158 102.116 9.69852L101.226 10.154L100.336 10.6095C100.394 10.7229 100.468 10.9847 100.468 11.485H101.468ZM101.226 10.154L102.124 9.71516C101.895 9.24635 101.547 8.83758 101.047 8.59449L100.61 9.494L100.173 10.3935C100.186 10.3998 100.248 10.431 100.327 10.5928L101.226 10.154ZM100.61 9.494L101.047 8.59449C100.647 8.40015 100.217 8.307 99.7738 8.307V9.307V10.307C99.9314 10.307 100.06 10.3385 100.173 10.3935L100.61 9.494ZM99.7738 9.307V8.307C99.3368 8.307 98.916 8.40354 98.5229 8.59449L98.9598 9.494L99.3967 10.3935C99.5169 10.3351 99.6388 10.307 99.7738 10.307V9.307ZM98.9598 9.494L98.5229 8.59449C98.0278 8.83495 97.6785 9.23738 97.4426 9.69852L98.3328 10.154L99.2231 10.6095C99.3098 10.44 99.3784 10.4024 99.3967 10.3935L98.9598 9.494ZM98.3328 10.154L97.4426 9.69852C97.1779 10.2158 97.0908 10.8413 97.0908 11.485H98.0908H99.0908C99.0908 10.9847 99.165 10.7229 99.2231 10.6095L98.3328 10.154ZM98.0908 11.485H97.0908V11.705H98.0908H99.0908V11.485H98.0908ZM98.0908 11.705H97.0908C97.0908 12.373 97.1767 13.0141 97.4344 13.5412L98.3328 13.102L99.2312 12.6628C99.1662 12.5299 99.0908 12.2397 99.0908 11.705H98.0908ZM98.3328 13.102L97.4384 13.5492C97.6695 14.0115 98.0075 14.4159 98.4827 14.6739L98.9598 13.795L99.4369 12.9161C99.3988 12.8955 99.3187 12.8378 99.2272 12.6548L98.3328 13.102ZM98.9598 13.795L98.5025 14.6843C98.8992 14.8884 99.3272 14.993 99.7738 14.993V13.993V12.993C99.6484 12.993 99.5337 12.9656 99.4172 12.9057L98.9598 13.795ZM104.785 15.5H103.785V16.5H104.785V15.5ZM104.785 7.8V6.8H103.785V7.8H104.785ZM109.691 8.119L109.272 9.02746L109.285 9.03281L109.691 8.119ZM110.714 9.021L109.839 9.50664L109.845 9.51632L109.85 9.52588L110.714 9.021ZM110.714 11.837L109.846 11.3391L109.839 11.3514L110.714 11.837ZM109.691 12.75L110.097 13.6639L110.109 13.6584L109.691 12.75ZM106.765 13.058V12.058H105.765V13.058H106.765ZM106.765 15.5V16.5H107.765V15.5H106.765ZM106.765 11.43H105.765V12.43H106.765V11.43ZM106.765 9.428V8.428H105.765V9.428H106.765ZM104.785 15.5H105.785V7.8H104.785H103.785V15.5H104.785ZM104.785 7.8V8.8H107.92V7.8V6.8H104.785V7.8ZM107.92 7.8V8.8C108.549 8.8 108.984 8.89464 109.273 9.02738L109.691 8.119L110.109 7.21062C109.473 6.91803 108.727 6.8 107.92 6.8V7.8ZM109.691 8.119L109.285 9.03281C109.572 9.16075 109.737 9.32229 109.839 9.50664L110.714 9.021L111.588 8.53536C111.25 7.92771 110.733 7.48792 110.097 7.20519L109.691 8.119ZM110.714 9.021L109.85 9.52588C109.97 9.73078 110.055 10.0173 110.055 10.429H111.055H112.055C112.055 9.74072 111.912 9.08856 111.577 8.51612L110.714 9.021ZM111.055 10.429H110.055C110.055 10.83 109.972 11.1209 109.846 11.3391L110.714 11.837L111.581 12.3349C111.91 11.7611 112.055 11.1133 112.055 10.429H111.055ZM110.714 11.837L109.839 11.3514C109.735 11.539 109.566 11.7064 109.273 11.8416L109.691 12.75L110.109 13.6584C110.739 13.3683 111.252 12.927 111.588 12.3226L110.714 11.837ZM109.691 12.75L109.285 11.8362C108.992 11.966 108.553 12.058 107.92 12.058V13.058V14.058C108.724 14.058 109.465 13.9446 110.097 13.6638L109.691 12.75ZM107.92 13.058V12.058H106.765V13.058V14.058H107.92V13.058ZM106.765 13.058H105.765V15.5H106.765H107.765V13.058H106.765ZM106.765 15.5V14.5H104.785V15.5V16.5H106.765V15.5ZM106.765 11.43V12.43H107.7V11.43V10.43H106.765V11.43ZM107.7 11.43V12.43C108.256 12.43 108.915 12.3495 109.401 11.9497L108.767 11.177L108.132 10.4043C108.183 10.3627 108.197 10.3742 108.115 10.3937C108.036 10.4126 107.902 10.43 107.7 10.43V11.43ZM108.767 11.177L109.401 11.9497C109.893 11.546 110.075 10.9791 110.075 10.429H109.075H108.075C108.075 10.4918 108.065 10.5026 108.073 10.4828C108.077 10.4726 108.085 10.4581 108.096 10.4422C108.108 10.4262 108.121 10.4134 108.132 10.4043L108.767 11.177ZM109.075 10.429H110.075C110.075 9.87891 109.893 9.312 109.401 8.90827L108.767 9.681L108.132 10.4537C108.121 10.4446 108.108 10.4318 108.096 10.4158C108.085 10.3999 108.077 10.3854 108.073 10.3752C108.065 10.3554 108.075 10.3662 108.075 10.429H109.075ZM108.767 9.681L109.401 8.90827C108.915 8.50852 108.256 8.428 107.7 8.428V9.428V10.428C107.902 10.428 108.036 10.4454 108.115 10.4643C108.197 10.4838 108.183 10.4953 108.132 10.4537L108.767 9.681ZM107.7 9.428V8.428H106.765V9.428V10.428H107.7V9.428ZM106.765 9.428H105.765V11.43H106.765H107.765V9.428H106.765ZM112.264 15.5H111.264V16.5H112.264V15.5ZM112.264 7.8V6.8H111.264V7.8H112.264ZM114.244 7.8H115.244V6.8H114.244V7.8ZM114.244 15.5V16.5H115.244V15.5H114.244ZM112.264 15.5H113.264V7.8H112.264H111.264V15.5H112.264ZM112.264 7.8V8.8H114.244V7.8V6.8H112.264V7.8ZM114.244 7.8H113.244V15.5H114.244H115.244V7.8H114.244ZM114.244 15.5V14.5H112.264V15.5V16.5H114.244V15.5ZM115.892 15.5H114.892V16.5H115.892V15.5ZM115.892 7.8V6.8H114.892V7.8H115.892ZM117.641 7.8L118.462 7.22937L118.164 6.8H117.641V7.8ZM120.622 12.09L119.801 12.6606L121.622 15.2816V12.09H120.622ZM120.622 7.8V6.8H119.622V7.8H120.622ZM122.712 7.8H123.712V6.8H122.712V7.8ZM122.712 15.5V16.5H123.712V15.5H122.712ZM120.842 15.5L120.02 16.0692L120.318 16.5H120.842V15.5ZM117.872 11.21L118.694 10.6408L116.872 8.00873V11.21H117.872ZM117.872 15.5V16.5H118.872V15.5H117.872ZM115.892 15.5H116.892V7.8H115.892H114.892V15.5H115.892ZM115.892 7.8V8.8H117.641V7.8V6.8H115.892V7.8ZM117.641 7.8L116.82 8.37063L119.801 12.6606L120.622 12.09L121.443 11.5194L118.462 7.22937L117.641 7.8ZM120.622 12.09H121.622V7.8H120.622H119.622V12.09H120.622ZM120.622 7.8V8.8H122.712V7.8V6.8H120.622V7.8ZM122.712 7.8H121.712V15.5H122.712H123.712V7.8H122.712ZM122.712 15.5V14.5H120.842V15.5V16.5H122.712V15.5ZM120.842 15.5L121.664 14.9308L118.694 10.6408L117.872 11.21L117.05 11.7792L120.02 16.0692L120.842 15.5ZM117.872 11.21H116.872V15.5H117.872H118.872V11.21H117.872ZM117.872 15.5V14.5H115.892V15.5V16.5H117.872V15.5ZM125.778 15.247L125.341 16.1462L125.35 16.1507L125.778 15.247ZM124.458 13.971L125.332 13.4844V13.4844L124.458 13.971ZM124.26 9.769L125.189 10.1404L125.191 10.1355L124.26 9.769ZM125.041 8.581L125.724 9.31206L125.724 9.31153L125.041 8.581ZM126.196 7.888L126.518 8.83511L126.527 8.83186L126.196 7.888ZM128.836 7.811L128.577 8.77662V8.77662L128.836 7.811ZM129.848 8.295L129.248 9.095L129.26 9.10336L129.271 9.11141L129.848 8.295ZM130.585 9.12L129.715 9.61206L129.719 9.61916L129.723 9.6262L130.585 9.12ZM130.959 10.33V11.33H132.075L131.954 10.2213L130.959 10.33ZM128.902 10.33L127.924 10.536L128.091 11.33H128.902V10.33ZM128.594 9.692L127.869 10.3807L127.878 10.39L127.887 10.3991L128.594 9.692ZM128.121 9.395L127.793 10.3395L127.817 10.3479L127.841 10.355L128.121 9.395ZM126.779 9.516L127.27 10.3876L127.278 10.3826L126.779 9.516ZM126.218 10.187L125.304 9.78284L125.3 9.79181L125.296 9.80086L126.218 10.187ZM126.141 12.761L125.177 13.0262L125.179 13.0325L126.141 12.761ZM126.471 13.465L125.675 14.0701L125.683 14.08L125.691 14.0897L126.471 13.465ZM126.988 13.872L126.582 14.7858L126.602 14.7947L126.623 14.8028L126.988 13.872ZM128.429 13.861L128.771 14.8008L128.784 14.7963L128.796 14.7914L128.429 13.861ZM129.034 13.421L128.259 12.7893V12.7893L129.034 13.421ZM129.287 12.662L130.287 12.6858L130.312 11.662H129.287V12.662ZM127.879 12.662H126.879V13.662H127.879V12.662ZM127.879 11.408V10.408H126.879V11.408H127.879ZM131.124 11.408H132.124V10.408H131.124V11.408ZM130.86 13.619L129.924 13.2678L129.919 13.2808L130.86 13.619ZM130.145 14.774L130.844 15.4896V15.4896L130.145 14.774ZM129.045 15.434L128.734 14.4837L128.729 14.4853L129.045 15.434ZM127.659 15.643V14.643C127.092 14.643 126.614 14.5361 126.207 14.3433L125.778 15.247L125.35 16.1507C126.058 16.4859 126.834 16.643 127.659 16.643V15.643ZM125.778 15.247L126.216 14.3479C125.856 14.1726 125.562 13.898 125.332 13.4844L124.458 13.971L123.585 14.4576C124 15.2026 124.586 15.7788 125.341 16.1461L125.778 15.247ZM124.458 13.971L125.332 13.4844C125.119 13.102 124.974 12.5312 124.974 11.705H123.974H122.974C122.974 12.7415 123.153 13.6814 123.585 14.4576L124.458 13.971ZM123.974 11.705H124.974V11.485H123.974H122.974V11.705H123.974ZM123.974 11.485H124.974C124.974 10.9086 125.057 10.4694 125.189 10.1404L124.26 9.769L123.332 9.39761C123.082 10.022 122.974 10.7268 122.974 11.485H123.974ZM124.26 9.769L125.191 10.1355C125.335 9.76891 125.518 9.50412 125.724 9.31206L125.041 8.581L124.359 7.84994C123.905 8.27388 123.567 8.80109 123.33 9.40247L124.26 9.769ZM125.041 8.581L125.724 9.31153C125.959 9.09219 126.221 8.93559 126.518 8.83507L126.196 7.888L125.875 6.94093C125.307 7.13374 124.799 7.43914 124.359 7.85047L125.041 8.581ZM126.196 7.888L126.527 8.83186C126.853 8.71753 127.21 8.657 127.604 8.657V7.657V6.657C127.001 6.657 126.42 6.75047 125.866 6.94414L126.196 7.888ZM127.604 7.657V8.657C127.967 8.657 128.289 8.6992 128.577 8.77662L128.836 7.811L129.096 6.84538C128.621 6.71746 128.122 6.657 127.604 6.657V7.657ZM128.836 7.811L128.577 8.77662C128.845 8.84878 129.065 8.95704 129.248 9.095L129.848 8.295L130.448 7.495C130.046 7.19296 129.591 6.97856 129.096 6.84538L128.836 7.811ZM129.848 8.295L129.271 9.11141C129.445 9.23447 129.593 9.39628 129.715 9.61206L130.585 9.12L131.456 8.62794C131.197 8.16906 130.853 7.78087 130.426 7.47858L129.848 8.295ZM130.585 9.12L129.723 9.6262C129.836 9.81931 129.926 10.0812 129.965 10.4387L130.959 10.33L131.954 10.2213C131.89 9.64014 131.731 9.09535 131.448 8.6138L130.585 9.12ZM130.959 10.33V9.33H128.902V10.33V11.33H130.959V10.33ZM128.902 10.33L129.881 10.124C129.797 9.72401 129.628 9.31103 129.302 8.98489L128.594 9.692L127.887 10.3991C127.855 10.3663 127.891 10.3787 127.924 10.536L128.902 10.33ZM128.594 9.692L129.319 9.00325C129.071 8.74204 128.764 8.54083 128.401 8.435L128.121 9.395L127.841 10.355C127.839 10.3544 127.838 10.3535 127.84 10.3546C127.842 10.3561 127.852 10.3628 127.869 10.3807L128.594 9.692ZM128.121 9.395L128.45 8.4505C128.177 8.35564 127.894 8.307 127.604 8.307V9.307V10.307C127.667 10.307 127.728 10.317 127.793 10.3395L128.121 9.395ZM127.604 9.307V8.307C127.14 8.307 126.69 8.41387 126.281 8.64938L126.779 9.516L127.278 10.3826C127.353 10.3395 127.453 10.307 127.604 10.307V9.307ZM126.779 9.516L126.289 8.64442C125.819 8.90874 125.506 9.32572 125.304 9.78284L126.218 10.187L127.133 10.5912C127.172 10.504 127.207 10.4525 127.23 10.4242C127.253 10.3975 127.266 10.3895 127.27 10.3876L126.779 9.516ZM126.218 10.187L125.296 9.80086C125.091 10.2904 125.02 10.8735 125.02 11.485H126.02H127.02C127.02 10.9965 127.082 10.7143 127.141 10.5731L126.218 10.187ZM126.02 11.485H125.02V11.705H126.02H127.02V11.485H126.02ZM126.02 11.705H125.02C125.02 12.1762 125.066 12.6223 125.177 13.0262L126.141 12.761L127.106 12.4958C127.055 12.313 127.02 12.0551 127.02 11.705H126.02ZM126.141 12.761L125.179 13.0325C125.284 13.4057 125.442 13.7626 125.675 14.0701L126.471 13.465L127.268 12.8599C127.223 12.8007 127.16 12.6883 127.104 12.4895L126.141 12.761ZM126.471 13.465L125.691 14.0897C125.929 14.3873 126.226 14.6275 126.582 14.7858L126.988 13.872L127.395 12.9582C127.355 12.9405 127.308 12.9093 127.252 12.8403L126.471 13.465ZM126.988 13.872L126.623 14.8028C126.955 14.9334 127.305 14.993 127.659 14.993V13.993V12.993C127.53 12.993 127.432 12.9719 127.354 12.9412L126.988 13.872ZM127.659 13.993V14.993C128.041 14.993 128.414 14.9307 128.771 14.8008L128.429 13.861L128.088 12.9212C127.961 12.9673 127.821 12.993 127.659 12.993V13.993ZM128.429 13.861L128.796 14.7914C129.195 14.6344 129.538 14.3862 129.81 14.0527L129.034 13.421L128.259 12.7893C128.208 12.8518 128.148 12.8969 128.063 12.9306L128.429 13.861ZM129.034 13.421L129.81 14.0527C130.138 13.6493 130.276 13.1685 130.287 12.6858L129.287 12.662L128.288 12.6382C128.286 12.7078 128.276 12.7477 128.27 12.7665C128.264 12.7834 128.26 12.7882 128.259 12.7893L129.034 13.421ZM129.287 12.662V11.662H127.879V12.662V13.662H129.287V12.662ZM127.879 12.662H128.879V11.408H127.879H126.879V12.662H127.879ZM127.879 11.408V12.408H131.124V11.408V10.408H127.879V11.408ZM131.124 11.408H130.124V11.925H131.124H132.124V11.408H131.124ZM131.124 11.925H130.124C130.124 12.501 130.047 12.9401 129.924 13.2679L130.86 13.619L131.797 13.9701C132.026 13.3592 132.124 12.669 132.124 11.925H131.124ZM130.86 13.619L129.919 13.2808C129.794 13.6302 129.631 13.8791 129.447 14.0584L130.145 14.774L130.844 15.4896C131.276 15.0675 131.59 14.5465 131.802 13.9572L130.86 13.619ZM130.145 14.774L129.447 14.0584C129.253 14.248 129.02 14.39 128.734 14.4837L129.045 15.434L129.357 16.3843C129.921 16.1993 130.422 15.9014 130.844 15.4896L130.145 14.774ZM129.045 15.434L128.729 14.4853C128.427 14.586 128.074 14.643 127.659 14.643V15.643V16.643C128.257 16.643 128.828 16.5606 129.362 16.3827L129.045 15.434Z" fill="black" fill-opacity="0.2" mask="url(#path-5-outside-1_4339_51726)"/>
</g>
<defs>
<filter id="filter0_d_4339_51726" x="0" y="0" width="140" height="23.14" filterUnits="userSpaceOnUse" color-interpolation-filters="sRGB">
<feFlood flood-opacity="0" result="BackgroundImageFix"/>
<feColorMatrix in="SourceAlpha" type="matrix" values="0 0 0 0 0 0 0 0 0 0 0 0 0 0 0 0 0 0 127 0" result="hardAlpha"/>
<feOffset dy="1.14"/>
<feComposite in2="hardAlpha" operator="out"/>
<feColorMatrix type="matrix" values="0 0 0 0 0.24 0 0 0 0 0 0 0 0 0 0 0 0 0 1 0"/>
<feBlend mode="normal" in2="BackgroundImageFix" result="effect1_dropShadow_4339_51726"/>
<feBlend mode="normal" in="SourceGraphic" in2="effect1_dropShadow_4339_51726" result="shape"/>
</filter>
<linearGradient id="paint0_linear_4339_51726" x1="70" y1="22" x2="70" y2="0" gradientUnits="userSpaceOnUse">
<stop stop-color="#E91E63"/>
<stop offset="1" stop-color="#AA0808"/>
</linearGradient>
</defs>
</svg>
