<svg width="74" height="74" viewBox="0 0 74 74" fill="none" xmlns="http://www.w3.org/2000/svg">
<path d="M67.6113 57.7871C60.9535 67.5725 49.7279 74 37 74C24.2721 74 13.0465 67.5725 6.38867 57.7871H67.6113ZM72.3057 25.9004C73.4062 29.4044 74 33.1328 74 37C74 41.1921 73.3013 45.2208 72.0166 48.9775H1.9834C0.698707 45.2208 0 41.1921 0 37C3.90158e-07 33.1328 0.593822 29.4044 1.69434 25.9004H72.3057ZM37 0C50.1054 7.93319e-06 61.6189 6.81384 68.1924 17.0918H5.80762C12.3811 6.81384 23.8946 0 37 0Z" fill="black"/>
</svg>
