<svg width="24" height="24" viewBox="0 0 24 24" fill="none" xmlns="http://www.w3.org/2000/svg">
<path d="M11.9474 3.89474H15.7053C17.2086 3.89474 17.9602 3.89474 18.5344 4.1873C19.0395 4.44464 19.4501 4.85527 19.7074 5.36034C20 5.93453 20 6.68617 20 8.18947V15.7053C20 17.2086 20 17.9602 19.7074 18.5344C19.4501 19.0395 19.0395 19.4501 18.5344 19.7074C17.9602 20 17.2086 20 15.7053 20H8.18947C6.68617 20 5.93453 20 5.36034 19.7074C4.85527 19.4501 4.44464 19.0395 4.1873 18.5344C3.89474 17.9602 3.89474 17.2086 3.89474 15.7053V11.9474M8.36842 12.8421V16.4211M15.5263 11.0526V16.4211M11.9474 7.47368V16.4211M3 5.68421L5.68421 3M5.68421 3L8.36842 5.68421M5.68421 3L5.68421 8.36842" stroke="#353140" stroke-width="1.5" stroke-linecap="round" stroke-linejoin="round"/>
</svg>
