<svg width="20" height="20" viewBox="0 0 20 20" fill="none" xmlns="http://www.w3.org/2000/svg">
<g opacity="0.6" clip-path="url(#clip0_3005_330)">
<path d="M7.57496 7.49999C7.77088 6.94305 8.15759 6.47341 8.66659 6.17427C9.17559 5.87512 9.77404 5.76577 10.3559 5.86558C10.9378 5.96539 11.4656 6.26793 11.8459 6.7196C12.2261 7.17127 12.4342 7.74292 12.4333 8.33332C12.4333 9.99999 9.93329 10.8333 9.93329 10.8333M9.99996 14.1667H10.0083M18.3333 9.99999C18.3333 14.6024 14.6023 18.3333 9.99996 18.3333C5.39759 18.3333 1.66663 14.6024 1.66663 9.99999C1.66663 5.39762 5.39759 1.66666 9.99996 1.66666C14.6023 1.66666 18.3333 5.39762 18.3333 9.99999Z" stroke="black" stroke-width="1.5" stroke-linecap="round" stroke-linejoin="round"/>
</g>
<defs>
<clipPath id="clip0_3005_330">
<rect width="20" height="20" fill="white"/>
</clipPath>
</defs>
</svg>
