<svg width="12" height="12" viewBox="0 0 12 12" fill="none" xmlns="http://www.w3.org/2000/svg">
<g clip-path="url(#clip0_3005_332)">
<path d="M11.0008 1C8.66748 0 6.00081 0 6.00081 0C6.00081 0 3.33415 0 1.00081 1C0.000813006 6 1.00081 10.3333 6.00081 12C11.0008 10.3333 12.0008 6 11.0008 1Z" fill="#CCD6DD"/>
<path d="M6.00016 11.294C2.1375 9.90901 0.65383 6.60968 1.58683 1.48068C3.68783 0.675682 5.97616 0.666016 6.00016 0.666016C6.02383 0.666016 8.3195 0.679349 10.4135 1.48068C11.3465 6.60968 9.86283 9.90901 6.00016 11.294Z" fill="#55ACEE"/>
<path d="M10.4133 1.48068C8.31933 0.679349 6.02367 0.666016 6 0.666016V11.294C9.86267 9.90901 11.3463 6.60968 10.4133 1.48068V1.48068Z" fill="#226699"/>
</g>
<defs>
<clipPath id="clip0_3005_332">
<rect width="12" height="12" fill="white"/>
</clipPath>
</defs>
</svg>
