<svg width="12" height="12" viewBox="0 0 12 12" fill="none" xmlns="http://www.w3.org/2000/svg">
<g clip-path="url(#clip0_3005_337)">
<path d="M11.4483 5.63035L8.48198 4.53235L7.37431 0.902016C7.33165 0.762016 7.20198 0.666016 7.05565 0.666016C6.90931 0.666016 6.77965 0.762016 6.73698 0.902016L5.62965 4.53235L2.66298 5.63035C2.53198 5.67902 2.44531 5.80335 2.44531 5.94302C2.44531 6.08235 2.53198 6.20735 2.66298 6.25568L5.62798 7.35335L6.73598 11.0943C6.77798 11.2357 6.90798 11.3327 7.05565 11.3327C7.20298 11.3327 7.33331 11.2357 7.37531 11.094L8.48331 7.35302L11.4486 6.25535C11.579 6.20735 11.666 6.08268 11.666 5.94302C11.666 5.80368 11.579 5.67902 11.4483 5.63035Z" fill="#FFAC33"/>
<path d="M4.78298 9.29796L4.01165 9.01263L3.71165 7.91263C3.67232 7.7673 3.54065 7.66663 3.39032 7.66663C3.23998 7.66663 3.10832 7.7673 3.06865 7.9123L2.76865 9.0123L1.99765 9.29763C1.86665 9.34596 1.77998 9.47096 1.77998 9.6103C1.77998 9.74963 1.86665 9.87463 1.99765 9.92296L2.76465 10.2073L3.06698 11.4146C3.10432 11.5626 3.23732 11.6666 3.39032 11.6666C3.54332 11.6666 3.67632 11.5626 3.71365 11.4143L4.01598 10.207L4.78298 9.92263C4.91398 9.87463 5.00065 9.74963 5.00065 9.6103C5.00065 9.47096 4.91398 9.34596 4.78298 9.29796ZM3.33698 2.07696L2.54898 1.7853L2.25698 0.996964C2.20865 0.865964 2.08398 0.779297 1.94432 0.779297C1.80498 0.779297 1.68032 0.865964 1.63165 0.996964L1.33998 1.7853L0.551651 2.07696C0.420651 2.12563 0.333984 2.2503 0.333984 2.38963C0.333984 2.52896 0.420651 2.65396 0.551651 2.7023L1.33998 2.99396L1.63165 3.7823C1.68032 3.9133 1.80498 3.99996 1.94432 3.99996C2.08365 3.99996 2.20832 3.9133 2.25698 3.7823L2.54865 2.99396L3.33698 2.7023C3.46798 2.65363 3.55465 2.52896 3.55465 2.38963C3.55465 2.2503 3.46798 2.12563 3.33698 2.07696Z" fill="#FFCC4D"/>
</g>
<defs>
<clipPath id="clip0_3005_337">
<rect width="12" height="12" fill="white"/>
</clipPath>
</defs>
</svg>
