<svg width="20" height="20" viewBox="0 0 20 20" fill="none" xmlns="http://www.w3.org/2000/svg">
<g opacity="0.8">
<path d="M10 0C5.25016 0 1.40625 3.84391 1.40625 8.59375V12.9688C1.40625 14.2611 2.45766 15.3125 3.75 15.3125C5.04234 15.3125 6.09375 14.2611 6.09375 12.9688V10.1562C6.09375 8.86391 5.04234 7.8125 3.75 7.8125C3.48762 7.8125 3.23547 7.85648 2.99973 7.93637C3.3323 4.36645 6.34465 1.5625 10 1.5625C13.6554 1.5625 16.6677 4.36645 17.0003 7.93637C16.7645 7.85648 16.5124 7.8125 16.25 7.8125C14.9577 7.8125 13.9062 8.86391 13.9062 10.1562V12.9688C13.9062 14.2611 14.9577 15.3125 16.25 15.3125C16.4865 15.3125 16.7148 15.277 16.9302 15.2115C16.638 16.1731 15.7433 16.875 14.6875 16.875H12.2094C11.8869 15.9657 11.0185 15.3125 10 15.3125C8.70766 15.3125 7.65625 16.3639 7.65625 17.6562C7.65625 18.9486 8.70766 20 10 20C11.0185 20 11.8868 19.3468 12.2094 18.4375H14.6875C16.8414 18.4375 18.5938 16.6852 18.5938 14.5312V8.59375C18.5938 3.84391 14.7498 0 10 0ZM3.75 9.375C4.18078 9.375 4.53125 9.72547 4.53125 10.1562V12.9688C4.53125 13.3995 4.18078 13.75 3.75 13.75C3.31922 13.75 2.96875 13.3995 2.96875 12.9688V10.1562C2.96875 9.72547 3.31922 9.375 3.75 9.375ZM10 18.4375C9.56922 18.4375 9.21875 18.087 9.21875 17.6562C9.21875 17.2255 9.56922 16.875 10 16.875C10.4308 16.875 10.7812 17.2255 10.7812 17.6562C10.7812 18.087 10.4308 18.4375 10 18.4375ZM16.25 13.75C15.8192 13.75 15.4688 13.3995 15.4688 12.9688V10.1562C15.4688 9.72547 15.8192 9.375 16.25 9.375C16.6808 9.375 17.0312 9.72547 17.0312 10.1562V12.9688C17.0312 13.3995 16.6808 13.75 16.25 13.75Z" fill="black"/>
</g>
</svg>
