<svg width="18" height="18" viewBox="0 0 18 18" fill="none" xmlns="http://www.w3.org/2000/svg">
<g clip-path="url(#clip0_3023_783)">
<path d="M9.00026 17.0002C13.4185 17.0002 17.0003 13.4185 17.0003 9.0002C17.0003 4.58191 13.4185 1.00018 9.00026 1.00018C4.58197 1.00018 1.00024 4.58191 1.00024 9.0002C1.00024 13.4185 4.58197 17.0002 9.00026 17.0002Z" fill="#B88AF8"/>
<path d="M9.00002 18C13.9706 18 18 13.9706 18 9.00002C18 4.02945 13.9706 0 9.00002 0C4.02945 0 0 4.02945 0 9.00002C0 13.9706 4.02945 18 9.00002 18Z" fill="#F7931A"/>
<path d="M9.00026 17.0002C13.4185 17.0002 17.0003 13.4185 17.0003 9.0002C17.0003 4.58191 13.4185 1.00018 9.00026 1.00018C4.58197 1.00018 1.00024 4.58191 1.00024 9.0002C1.00024 13.4185 4.58197 17.0002 9.00026 17.0002Z" fill="#F7931A"/>
<path d="M15.619 13.4952C14.1794 15.6108 11.7521 17.0003 9.00022 17.0003C6.24839 17.0003 3.82114 15.6108 2.38159 13.4952H15.619ZM16.6341 6.60073C16.872 7.3582 17.0004 8.1642 17.0004 9.00015C17.0004 9.90672 16.8493 10.778 16.5714 11.5904H1.42901C1.15114 10.778 1.00024 9.90671 1.00024 9.00015C1.00025 8.16418 1.1286 7.35821 1.36646 6.60073H16.6341ZM9.00022 1.00018C11.834 1.00018 14.3236 2.47356 15.7449 4.69599H2.25577C3.67702 2.47359 6.16652 1.0002 9.00022 1.00018Z" fill="white"/>
<path d="M8.99831 16.0002C12.8643 16.0002 15.9983 12.8662 15.9983 9.00021C15.9983 5.1342 12.8643 2.00018 8.99831 2.00018C5.13231 2.00018 1.99829 5.1342 1.99829 9.00021C1.99829 12.8662 5.13231 16.0002 8.99831 16.0002Z" fill="#F9B561"/>
<path d="M8.4109 3.27697L8.41932 4.92152L8.41966 5.00348L8.50162 5.00134C8.78421 4.99433 9.06687 4.99015 9.34956 4.98868L9.42999 4.98827L9.42948 4.90801L9.42093 3.27542L10.3245 3.27362L10.3333 4.95313L10.3336 5.0265L10.4066 5.0328C11.0896 5.09178 11.6911 5.22585 12.1356 5.49546C12.5753 5.76216 12.8648 6.16317 12.926 6.77112L12.9261 6.77127C12.9723 7.22252 12.9018 7.57712 12.7502 7.85532C12.5987 8.13357 12.3624 8.34204 12.0659 8.49506L11.8739 8.59427L12.084 8.64461C12.5824 8.76417 12.977 8.97002 13.234 9.30257C13.4902 9.63427 13.6187 10.1042 13.5606 10.7717C13.4891 11.5945 13.1521 12.1069 12.6218 12.4308C12.085 12.7587 11.3421 12.8985 10.4505 12.9516L10.3746 12.9561L10.375 13.0322L10.3829 14.728L9.47974 14.7297L9.47164 13.0571L9.47121 12.9771L9.39117 12.9773C9.11569 12.9777 8.83389 12.9761 8.54263 12.9703L8.46016 12.9686L8.46061 13.051L8.4696 14.7312L7.5673 14.7327L7.55812 13.0332L7.55764 12.9537L7.47809 12.9534C7.23058 12.9523 6.97517 12.9483 6.71746 12.9487L5.42667 12.9507L5.60555 11.8326C5.62134 11.8328 5.63943 11.8332 5.65923 11.8334C5.73288 11.8342 5.83097 11.8352 5.92865 11.8358C6.02627 11.8364 6.12396 11.8367 6.19646 11.836C6.23254 11.8357 6.26327 11.8351 6.28486 11.8342C6.29519 11.8338 6.30541 11.8332 6.31352 11.8323C6.31507 11.8321 6.31829 11.8312 6.32243 11.8305C6.48896 11.8271 6.60355 11.764 6.67772 11.6748C6.75082 11.587 6.77849 11.4815 6.78863 11.4055L6.78937 11.4L6.78931 11.3944L6.77542 8.66694L6.80743 8.66685L6.81752 8.5067C6.8026 8.50476 6.78821 8.50331 6.77452 8.50217L6.76453 6.57424L6.7646 6.56682L6.76306 6.5595C6.74018 6.44092 6.68894 6.30603 6.5783 6.2007C6.46816 6.09585 6.30764 6.02841 6.08208 6.02631C6.07829 6.02554 6.07541 6.02464 6.07391 6.02445C6.06516 6.02326 6.0543 6.02257 6.04383 6.02208C6.02193 6.02106 5.99103 6.02049 5.95497 6.02023C5.88234 6.01972 5.78462 6.02038 5.6871 6.02152C5.5895 6.02268 5.49153 6.02439 5.41799 6.02569C5.40317 6.02596 5.38928 6.02625 5.37663 6.02649L5.37134 5.04462L6.68047 5.0428L6.68066 5.04835L6.75889 5.04819C6.98041 5.04766 7.20739 5.04295 7.43773 5.03782L7.5166 5.03599L7.51627 4.95706L7.50761 3.27871L8.4109 3.27697ZM8.46679 9.39781L8.47858 11.7556L8.47906 11.8357L8.5591 11.8356C8.9136 11.8348 9.67158 11.8716 10.3366 11.7399C10.6694 11.674 10.9883 11.5643 11.225 11.3799C11.4653 11.1927 11.6187 10.9297 11.6166 10.5702C11.6147 10.1977 11.4599 9.92822 11.2173 9.73877C10.9783 9.55219 10.6578 9.44572 10.3241 9.38467C9.6583 9.26285 8.89932 9.31667 8.54701 9.31708L8.46633 9.31709L8.46679 9.39781ZM8.45028 6.18037L8.46126 8.31884L8.46171 8.3988H8.54178C8.83533 8.39826 9.47014 8.43285 10.0272 8.31369C10.3064 8.25398 10.5753 8.15405 10.7753 7.98465C10.9658 7.82324 11.0901 7.60166 11.1036 7.30536L11.1046 7.24511C11.1029 6.90648 10.9736 6.65971 10.7684 6.48522C10.5664 6.31351 10.2961 6.21582 10.016 6.16017C9.4581 6.04932 8.82163 6.0991 8.53048 6.09964L8.44983 6.09979L8.45028 6.18037Z" fill="white" stroke="#E28D28" stroke-width="0.160714"/>
</g>
<defs>
<clipPath id="clip0_3023_783">
<rect width="18" height="18" fill="white"/>
</clipPath>
</defs>
</svg>
