<svg width="163" height="127" viewBox="0 0 163 127" fill="none" xmlns="http://www.w3.org/2000/svg">
<g clip-path="url(#clip0_3017_571)">
<rect width="163" height="127" rx="16" fill="url(#paint0_linear_3017_571)"/>
<g clip-path="url(#clip1_3017_571)">
<path d="M18.002 54.0011C35.6752 54.0011 50.0021 39.6742 50.0021 22.001C50.0021 4.32789 35.6752 -9.99902 18.002 -9.99902C0.328867 -9.99902 -13.998 4.32789 -13.998 22.001C-13.998 39.6742 0.328867 54.0011 18.002 54.0011Z" fill="#B88AF8"/>
<path d="M18.0001 58.0002C37.8824 58.0002 54.0002 41.8824 54.0002 22.0001C54.0002 2.11779 37.8824 -14 18.0001 -14C-1.88221 -14 -18 2.11779 -18 22.0001C-18 41.8824 -1.88221 58.0002 18.0001 58.0002Z" fill="#F7931A"/>
<path d="M18.0023 54C35.6754 54 50.0023 39.6731 50.0023 21.9999C50.0023 4.32679 35.6754 -10.0001 18.0023 -10.0001C0.32911 -10.0001 -13.9978 4.32679 -13.9978 21.9999C-13.9978 39.6731 0.32911 54 18.0023 54Z" fill="#F7931A"/>
<path d="M44.4736 39.98C38.7152 48.4425 29.0058 54.0003 17.9984 54.0003C6.99111 54.0003 -2.71787 48.4425 -8.47609 39.98H44.4736ZM48.5338 12.4022C49.4854 15.4321 49.999 18.6561 49.999 21.9999C49.999 25.6262 49.3948 29.1114 48.283 32.3611H-12.2864C-13.3979 29.1114 -14.0015 25.6261 -14.0015 21.9999C-14.0014 18.656 -13.488 15.4321 -12.5366 12.4022H48.5338ZM17.9984 -10C29.3334 -10 39.2918 -4.1065 44.977 4.78324H-8.97937C-3.29435 -4.10638 6.66363 -9.99993 17.9984 -10Z" fill="white"/>
<path d="M18.0003 50.0001C33.4644 50.0001 46.0004 37.464 46.0004 22C46.0004 6.53595 33.4644 -6.00012 18.0003 -6.00012C2.53631 -6.00012 -9.99976 6.53595 -9.99976 22C-9.99976 37.464 2.53631 50.0001 18.0003 50.0001Z" fill="#F9B561"/>
<path d="M15.6429 -0.895922L15.6765 5.68231L15.6779 6.01016L16.0058 6.00157C17.1361 5.97355 18.2667 5.95681 19.3975 5.95093L19.7192 5.94931L19.7172 5.62825L19.683 -0.902102L23.2973 -0.909302L23.3325 5.80873L23.3336 6.1022L23.6258 6.1274C26.3578 6.36332 28.7638 6.8996 30.5418 7.97804C32.3007 9.04484 33.4586 10.6489 33.7035 13.0807L33.7036 13.0813C33.8884 14.8863 33.6063 16.3047 33.0002 17.4175C32.394 18.5305 31.4488 19.3644 30.263 19.9765L29.4948 20.3733L30.3351 20.5747C32.3289 21.0529 33.9073 21.8763 34.9351 23.2065C35.9601 24.5333 36.4742 26.4131 36.2418 29.0831C35.9559 32.3743 34.6077 34.4239 32.4866 35.7194C30.3394 37.0309 27.3675 37.5903 23.8014 37.8026L23.4977 37.8208L23.4992 38.1251L23.5309 44.9081L19.9182 44.9149L19.8858 38.2245L19.8841 37.9046L19.5639 37.9052C18.462 37.9071 17.3348 37.9007 16.1698 37.8773L15.8399 37.8707L15.8417 38.2003L15.8776 44.9212L12.2685 44.9272L12.2317 38.1291L12.2298 37.811L11.9116 37.8099C10.9216 37.8053 9.89995 37.7892 8.86909 37.791L3.70596 37.799L4.42146 33.3267C4.48464 33.3275 4.557 33.3289 4.6362 33.3298C4.9308 33.3332 5.32314 33.337 5.71387 33.3394C6.10435 33.3419 6.49513 33.343 6.78511 33.3404C6.92941 33.339 7.05235 33.3367 7.13869 33.3331C7.18003 33.3314 7.22089 33.3291 7.25335 33.3253C7.25953 33.3246 7.27243 33.3211 7.28899 33.3181C7.95511 33.3045 8.41345 33.0523 8.71015 32.6956C9.00253 32.3441 9.11323 31.9223 9.15379 31.6181L9.15673 31.5962L9.15649 31.5739L9.10093 20.664L9.22897 20.6636L9.26935 20.023C9.20965 20.0153 9.15211 20.0095 9.09733 20.0049L9.05737 12.2932L9.05767 12.2635L9.05149 12.2342C8.95999 11.7599 8.75503 11.2203 8.31247 10.799C7.87189 10.3796 7.22983 10.1098 6.32761 10.1014C6.31243 10.0984 6.30091 10.0948 6.29491 10.094C6.25993 10.0893 6.21649 10.0865 6.17461 10.0845C6.08701 10.0804 5.96341 10.0782 5.81916 10.0771C5.52864 10.0751 5.13774 10.0777 4.74768 10.0823C4.35726 10.0869 3.9654 10.0938 3.67122 10.099C3.61194 10.1001 3.55638 10.1012 3.5058 10.1022L3.48462 6.17468L8.72113 6.16742L8.72191 6.18962L9.03481 6.18896C9.9209 6.18686 10.8288 6.16802 11.7502 6.1475L12.0657 6.14018L12.0643 5.82445L12.0297 -0.888962L15.6429 -0.895922ZM15.8664 23.5874L15.9136 33.0187L15.9155 33.3391L16.2357 33.3385C17.6537 33.3352 20.6856 33.4824 23.3457 32.9557C24.677 32.6922 25.9523 32.2533 26.8991 31.5157C27.8605 30.7669 28.4739 29.715 28.4659 28.2769C28.4582 26.7871 27.8387 25.7091 26.8684 24.9513C25.9126 24.205 24.6305 23.7791 23.2958 23.5349C20.6325 23.0476 17.5965 23.2629 16.1873 23.2645L15.8646 23.2646L15.8664 23.5874ZM15.8004 10.7177L15.8443 19.2716L15.8461 19.5914H16.1664C17.3406 19.5893 19.8798 19.7276 22.1079 19.251C23.2247 19.0121 24.3006 18.6124 25.1004 17.9348C25.8625 17.2892 26.3596 16.4028 26.4135 15.2177L26.4178 14.9766C26.4107 13.6221 25.8937 12.6351 25.0727 11.9371C24.2649 11.2503 23.1836 10.8595 22.0633 10.6369C19.8317 10.1935 17.2858 10.3926 16.1212 10.3948L15.7986 10.3954L15.8004 10.7177Z" fill="white" stroke="#E28D28" stroke-width="0.642858"/>
</g>
</g>
<defs>
<linearGradient id="paint0_linear_3017_571" x1="81.5" y1="0" x2="81.5" y2="127" gradientUnits="userSpaceOnUse">
<stop offset="0.16" stop-color="#FBEEDF"/>
<stop offset="1" stop-color="#F7E5CF"/>
</linearGradient>
<clipPath id="clip0_3017_571">
<rect width="163" height="127" rx="16" fill="white"/>
</clipPath>
<clipPath id="clip1_3017_571">
<path d="M0 16C0 7.16345 7.16344 0 16 0H54V58H0V16Z" fill="white"/>
</clipPath>
</defs>
</svg>
