<svg width="163" height="127" viewBox="0 0 163 127" fill="none" xmlns="http://www.w3.org/2000/svg">
<g clip-path="url(#clip0_3017_548)">
<rect width="163" height="127" rx="16" fill="url(#paint0_linear_3017_548)"/>
<g clip-path="url(#clip1_3017_548)">
<path d="M17.9975 53.9994C35.6702 53.9994 49.9967 39.6729 49.9967 22.0002C49.9967 4.32752 35.6702 -9.99902 17.9975 -9.99902C0.324829 -9.99902 -14.0017 4.32752 -14.0017 22.0002C-14.0017 39.6729 0.324829 53.9994 17.9975 53.9994Z" fill="#B88AF8"/>
<path d="M18.0001 58.0002C37.8824 58.0002 54.0002 41.8824 54.0002 22.0001C54.0002 2.11779 37.8824 -14 18.0001 -14C-1.88221 -14 -18 2.11779 -18 22.0001C-18 41.8824 -1.88221 58.0002 18.0001 58.0002Z" fill="#627EEA"/>
<path d="M17.9975 53.9994C35.6702 53.9994 49.9967 39.6729 49.9967 22.0002C49.9967 4.32752 35.6702 -9.99902 17.9975 -9.99902C0.324829 -9.99902 -14.0017 4.32752 -14.0017 22.0002C-14.0017 39.6729 0.324829 53.9994 17.9975 53.9994Z" fill="#627EEA"/>
<path d="M44.4718 39.9787C38.7141 48.4414 29.005 53.9998 17.9976 53.9998C6.99014 53.9998 -2.7189 48.4414 -8.47688 39.9787H44.4718ZM48.5314 12.4014C49.483 15.4317 49.9966 18.656 49.9966 22.0003C49.9966 25.6259 49.393 29.1105 48.2818 32.3597H-12.2873C-13.3984 29.1105 -14.0017 25.6259 -14.0017 22.0003C-14.0017 18.6561 -13.4885 15.4316 -12.5369 12.4014H48.5314ZM17.9976 -9.99902C29.3316 -9.99899 39.2892 -4.10626 44.974 4.78246H-8.97902C-3.294 -4.10626 6.66356 -9.99902 17.9976 -9.99902Z" fill="white"/>
<path d="M17.9953 49.9984C33.4588 49.9984 45.9945 37.4627 45.9945 21.9992C45.9945 6.53566 33.4588 -6 17.9953 -6C2.53176 -6 -10.0039 6.53566 -10.0039 21.9992C-10.0039 37.4627 2.53176 49.9984 17.9953 49.9984Z" fill="#93A6F1"/>
<path d="M32.2588 22.2706L18.0645 15.6676V-1.81738L32.2588 22.2706Z" fill="white" stroke="#8198EE" stroke-width="0.128579"/>
<path d="M17.9272 15.6672L3.73047 22.2701L17.9272 -1.81836V15.6672Z" fill="white" stroke="#8198EE" stroke-width="0.128579"/>
<path d="M18.0645 45.7975V33.9697L32.2043 25.4297L18.0645 45.7975Z" fill="white" stroke="#8198EE" stroke-width="0.128579"/>
<path d="M17.9258 33.9674V45.7969L3.79297 25.4297L17.9258 33.9674Z" fill="white" stroke="#8198EE" stroke-width="0.128579"/>
<path d="M32.2811 22.4221L18.0645 31.0172V15.8115L32.2811 22.4221Z" fill="white" stroke="#8198EE" stroke-width="0.128579"/>
<path d="M17.9266 31.0172L3.70703 22.4221L17.9266 15.8115V31.0172Z" fill="white" stroke="#8198EE" stroke-width="0.128579"/>
</g>
</g>
<defs>
<linearGradient id="paint0_linear_3017_548" x1="81.5" y1="0" x2="81.5" y2="127" gradientUnits="userSpaceOnUse">
<stop offset="0.16" stop-color="#DFE5FB"/>
<stop offset="1" stop-color="#CFD7F7"/>
</linearGradient>
<clipPath id="clip0_3017_548">
<rect width="163" height="127" rx="16" fill="white"/>
</clipPath>
<clipPath id="clip1_3017_548">
<path d="M0 16C0 7.16345 7.16344 0 16 0H54V58H0V16Z" fill="white"/>
</clipPath>
</defs>
</svg>
