<svg width="18" height="18" viewBox="0 0 18 18" fill="none" xmlns="http://www.w3.org/2000/svg">
<g clip-path="url(#clip0_3023_792)">
<path d="M8.99999 16.9998C13.4182 16.9998 16.9998 13.4182 16.9998 8.99999C16.9998 4.58182 13.4182 1.00018 8.99999 1.00018C4.58182 1.00018 1.00018 4.58182 1.00018 8.99999C1.00018 13.4182 4.58182 16.9998 8.99999 16.9998Z" fill="#B88AF8"/>
<path d="M9.00002 18C13.9706 18 18 13.9706 18 9.00002C18 4.02945 13.9706 0 9.00002 0C4.02945 0 0 4.02945 0 9.00002C0 13.9706 4.02945 18 9.00002 18Z" fill="#627EEA"/>
<path d="M8.99999 16.9998C13.4182 16.9998 16.9998 13.4182 16.9998 8.99999C16.9998 4.58182 13.4182 1.00018 8.99999 1.00018C4.58182 1.00018 1.00018 4.58182 1.00018 8.99999C1.00018 13.4182 4.58182 16.9998 8.99999 16.9998Z" fill="#627EEA"/>
<path d="M15.6186 13.4946C14.1791 15.6103 11.7519 16.9999 9.00001 16.9999C6.24815 16.9999 3.82088 15.6103 2.38139 13.4946H15.6186ZM16.6335 6.60029C16.8714 7.35785 16.9998 8.16394 16.9998 9.00001C16.9998 9.90642 16.8489 10.7776 16.5711 11.5899H1.4288C1.15101 10.7776 1.00019 9.9064 1.00018 9.00001C1.00018 8.16395 1.12849 7.35784 1.36639 6.60029H16.6335ZM9.00001 1.00018C11.8335 1.00019 14.3229 2.47337 15.7441 4.69556H2.25586C3.67711 2.47337 6.1665 1.00018 9.00001 1.00018Z" fill="white"/>
<path d="M8.99998 15.9998C12.8659 15.9998 15.9998 12.8659 15.9998 8.99998C15.9998 5.1341 12.8659 2.00018 8.99998 2.00018C5.1341 2.00018 2.00018 5.1341 2.00018 8.99998C2.00018 12.8659 5.1341 15.9998 8.99998 15.9998Z" fill="#93A6F1"/>
<path d="M12.5642 9.06691L9.01562 7.41617V3.04492L12.5642 9.06691Z" fill="white" stroke="#8198EE" stroke-width="0.0321448"/>
<path d="M8.98278 7.41631L5.43359 9.06705L8.98278 3.04492V7.41631Z" fill="white" stroke="#8198EE" stroke-width="0.0321448"/>
<path d="M9.01581 14.9515V11.9946L12.5508 9.85956L9.01581 14.9515Z" fill="white" stroke="#8198EE" stroke-width="0.0321448"/>
<path d="M8.98066 11.994V14.9514L5.44745 9.85956L8.98066 11.994Z" fill="white" stroke="#8198EE" stroke-width="0.0321448"/>
<path d="M12.57 9.10577L9.01581 11.2546V7.45312L12.57 9.10577Z" fill="white" stroke="#8198EE" stroke-width="0.0321448"/>
<path d="M8.98262 11.2546L5.42773 9.10577L8.98262 7.45312V11.2546Z" fill="white" stroke="#8198EE" stroke-width="0.0321448"/>
</g>
<defs>
<clipPath id="clip0_3023_792">
<rect width="18" height="18" fill="white"/>
</clipPath>
</defs>
</svg>
