<svg width="18" height="18" viewBox="0 0 18 18" fill="none" xmlns="http://www.w3.org/2000/svg">
<g clip-path="url(#clip0_3023_807)">
<path d="M8.99806 16.9981C13.4163 16.9981 16.9981 13.4163 16.9981 8.99806C16.9981 4.57978 13.4163 0.998047 8.99806 0.998047C4.57978 0.998047 0.998047 4.57978 0.998047 8.99806C0.998047 13.4163 4.57978 16.9981 8.99806 16.9981Z" fill="#B88AF8"/>
<path d="M9.00002 18C13.9706 18 18 13.9706 18 9.00002C18 4.02945 13.9706 0 9.00002 0C4.02945 0 0 4.02945 0 9.00002C0 13.9706 4.02945 18 9.00002 18Z" fill="#2775CA"/>
<path d="M8.99806 16.9981C13.4163 16.9981 16.9981 13.4163 16.9981 8.99806C16.9981 4.57978 13.4163 0.998047 8.99806 0.998047C4.57978 0.998047 0.998047 4.57978 0.998047 8.99806C0.998047 13.4163 4.57978 16.9981 8.99806 16.9981Z" fill="#2775CA"/>
<path d="M15.617 13.4925C14.1776 15.6083 11.7501 16.9982 8.99802 16.9982C6.24593 16.9982 3.81846 15.6084 2.37895 13.4925H15.617ZM16.6316 6.59801C16.8695 7.35566 16.9981 8.16183 16.9981 8.99801C16.9981 9.9043 16.8472 10.7754 16.5695 11.5876H1.42652C1.14882 10.7754 0.998047 9.90428 0.998047 8.99801C0.998053 8.16183 1.12644 7.35566 1.36441 6.59801H16.6316ZM8.99802 0.998047C11.8315 0.998047 14.321 2.47115 15.7423 4.69327H2.25387C3.67517 2.47116 6.16454 0.998063 8.99802 0.998047Z" fill="white"/>
<path d="M9.00002 16C12.866 16 16 12.866 16 9.00002C16 5.13402 12.866 2 9.00002 2C5.13402 2 2 5.13402 2 9.00002C2 12.866 5.13402 16 9.00002 16Z" fill="#5496DE"/>
<path d="M8.53038 14.8603V3.95117H9.22923V14.8603H8.53038ZM10.7165 7.3347C10.671 6.93129 10.4835 6.61879 10.154 6.3972C9.82442 6.17277 9.40964 6.06055 8.90964 6.06055C8.55168 6.06055 8.24202 6.11737 7.98066 6.23101C7.7193 6.3418 7.51617 6.49521 7.37128 6.69124C7.22923 6.88441 7.15821 7.10458 7.15821 7.35176C7.15821 7.55913 7.20651 7.73811 7.30309 7.88868C7.40253 8.03925 7.5318 8.16567 7.69089 8.26794C7.85281 8.36738 8.02611 8.45118 8.21077 8.51937C8.39543 8.58471 8.57298 8.63868 8.74344 8.6813L9.59571 8.90289C9.87413 8.97107 10.1596 9.06341 10.4523 9.17989C10.7449 9.29636 11.0162 9.44977 11.2662 9.64012C11.5162 9.83045 11.7179 10.0663 11.8713 10.3475C12.0275 10.6288 12.1057 10.9654 12.1057 11.3574C12.1057 11.8518 11.9778 12.2907 11.7221 12.6742C11.4693 13.0577 11.1014 13.3603 10.6184 13.5819C10.1383 13.8035 9.55736 13.9143 8.87555 13.9143C8.22213 13.9143 7.65679 13.8106 7.17952 13.6032C6.70225 13.3958 6.32866 13.1018 6.05878 12.7211C5.78888 12.3376 5.63974 11.883 5.61133 11.3574H6.93235C6.95793 11.6728 7.0602 11.9356 7.23918 12.1458C7.42099 12.3532 7.65253 12.508 7.93378 12.6103C8.21787 12.7097 8.52896 12.7594 8.86703 12.7594C9.23918 12.7594 9.57015 12.7012 9.85992 12.5847C10.1525 12.4654 10.3826 12.3006 10.5503 12.0904C10.7179 11.8773 10.8017 11.6287 10.8017 11.3447C10.8017 11.0861 10.7278 10.8745 10.5801 10.7097C10.4352 10.5449 10.2378 10.4086 9.98777 10.3006C9.7406 10.1927 9.46077 10.0975 9.14828 10.0151L8.11702 9.73387C7.41816 9.54352 6.86418 9.26369 6.45508 8.89437C6.04883 8.52504 5.8457 8.03642 5.8457 7.42845C5.8457 6.92562 5.98207 6.48669 6.2548 6.11169C6.52753 5.73669 6.89685 5.44549 7.36276 5.23812C7.82866 5.02787 8.35424 4.92277 8.93946 4.92277C9.53037 4.92277 10.0517 5.02646 10.5034 5.23385C10.9579 5.44123 11.3159 5.72674 11.5773 6.09039C11.8386 6.45118 11.975 6.86595 11.9863 7.3347H10.7165Z" fill="white"/>
<mask id="mask0_3023_807" style="mask-type:luminance" maskUnits="userSpaceOnUse" x="5" y="3" width="8" height="13">
<path d="M12.3625 3.65234H5.3125V15.2024H12.3625V3.65234Z" fill="white"/>
<path d="M8.53038 14.8603V3.95117H9.22923V14.8603H8.53038ZM10.7165 7.3347C10.671 6.93129 10.4835 6.61879 10.154 6.3972C9.82442 6.17277 9.40964 6.06055 8.90964 6.06055C8.55168 6.06055 8.24202 6.11737 7.98066 6.23101C7.7193 6.3418 7.51617 6.49521 7.37128 6.69124C7.22923 6.88441 7.15821 7.10458 7.15821 7.35176C7.15821 7.55913 7.20651 7.73811 7.30309 7.88868C7.40253 8.03925 7.5318 8.16567 7.69089 8.26794C7.85281 8.36738 8.02611 8.45118 8.21077 8.51937C8.39543 8.58471 8.57298 8.63868 8.74344 8.6813L9.59571 8.90289C9.87413 8.97107 10.1596 9.06341 10.4523 9.17989C10.7449 9.29636 11.0162 9.44977 11.2662 9.64012C11.5162 9.83045 11.7179 10.0663 11.8713 10.3475C12.0275 10.6288 12.1057 10.9654 12.1057 11.3574C12.1057 11.8518 11.9778 12.2907 11.7221 12.6742C11.4693 13.0577 11.1014 13.3603 10.6184 13.5819C10.1383 13.8035 9.55736 13.9143 8.87555 13.9143C8.22213 13.9143 7.65679 13.8106 7.17952 13.6032C6.70225 13.3958 6.32866 13.1018 6.05878 12.7211C5.78888 12.3376 5.63974 11.883 5.61133 11.3574H6.93235C6.95793 11.6728 7.0602 11.9356 7.23918 12.1458C7.42099 12.3532 7.65253 12.508 7.93378 12.6103C8.21787 12.7097 8.52896 12.7594 8.86703 12.7594C9.23918 12.7594 9.57015 12.7012 9.85992 12.5847C10.1525 12.4654 10.3826 12.3006 10.5503 12.0904C10.7179 11.8773 10.8017 11.6287 10.8017 11.3447C10.8017 11.0861 10.7278 10.8745 10.5801 10.7097C10.4352 10.5449 10.2378 10.4086 9.98777 10.3006C9.7406 10.1927 9.46077 10.0975 9.14828 10.0151L8.11702 9.73387C7.41816 9.54352 6.86418 9.26369 6.45508 8.89437C6.04883 8.52504 5.8457 8.03642 5.8457 7.42845C5.8457 6.92562 5.98207 6.48669 6.2548 6.11169C6.52753 5.73669 6.89685 5.44549 7.36276 5.23812C7.82866 5.02787 8.35424 4.92277 8.93946 4.92277C9.53037 4.92277 10.0517 5.02646 10.5034 5.23385C10.9579 5.44123 11.3159 5.72674 11.5773 6.09039C11.8386 6.45118 11.975 6.86595 11.9863 7.3347H10.7165Z" fill="black"/>
</mask>
<g mask="url(#mask0_3023_807)">
<path d="M8.53054 14.863H8.33053V15.0631H8.53054V14.863ZM8.53054 3.9539V3.75391H8.33053V3.9539H8.53054ZM9.22939 3.9539H9.4294V3.75391H9.22939V3.9539ZM9.22939 14.863V15.0631H9.4294V14.863H9.22939ZM10.7166 7.33743L10.5179 7.35983L10.5379 7.53744H10.7166V7.33743ZM10.1541 6.39993L10.0415 6.56524L10.0425 6.5659L10.1541 6.39993ZM7.98082 6.23374L8.05888 6.41788L8.06056 6.41715L7.98082 6.23374ZM7.37144 6.69397L7.2106 6.57508L7.21031 6.57549L7.37144 6.69397ZM7.30325 7.89141L7.13492 7.99941L7.13563 8.00052L7.13636 8.00163L7.30325 7.89141ZM7.69105 8.27067L7.5829 8.43891L7.58462 8.44002L7.58639 8.44112L7.69105 8.27067ZM8.21093 8.5221L8.14165 8.70972L8.14294 8.71019L8.14421 8.71064L8.21093 8.5221ZM8.7436 8.68403L8.79392 8.49045L8.79211 8.49L8.7436 8.68403ZM9.59587 8.90562L9.54555 9.09918L9.54693 9.09954L9.54831 9.09987L9.59587 8.90562ZM11.8715 10.3502L11.6959 10.446L11.6966 10.4474L11.8715 10.3502ZM11.7223 12.6769L11.5559 12.566L11.5553 12.5668L11.7223 12.6769ZM10.6186 13.5846L10.5352 13.4028L10.5348 13.403L10.6186 13.5846ZM6.05894 12.7238L5.89538 12.8389L5.89578 12.8395L6.05894 12.7238ZM5.61149 11.3602V11.1602H5.40039L5.41178 11.371L5.61149 11.3602ZM6.93251 11.3602L7.13186 11.344L7.11695 11.1602H6.93251V11.3602ZM7.23934 12.1485L7.08705 12.2782L7.08799 12.2793L7.08894 12.2804L7.23934 12.1485ZM7.93394 12.613L7.86559 12.801L7.86673 12.8014L7.86787 12.8018L7.93394 12.613ZM9.86008 12.5874L9.93468 12.773L9.93559 12.7726L9.86008 12.5874ZM10.5504 12.0931L10.7068 12.2178L10.7076 12.2168L10.5504 12.0931ZM10.5802 10.7124L10.4301 10.8445L10.4313 10.846L10.5802 10.7124ZM9.98793 10.3034L9.90787 10.4866L9.90864 10.487L9.98793 10.3034ZM9.14844 10.0178L9.0958 10.2108L9.09745 10.2112L9.14844 10.0178ZM6.45524 8.8971L6.3207 9.04509L6.32123 9.04556L6.45524 8.8971ZM7.36292 5.24084L7.44425 5.42356L7.44518 5.42314L7.36292 5.24084ZM10.5036 5.23658L10.4201 5.41834L10.4205 5.41854L10.5036 5.23658ZM11.5774 6.09312L11.415 6.20985L11.4155 6.21045L11.5774 6.09312ZM11.9865 7.33743V7.53744H12.1914L12.1865 7.33259L11.9865 7.33743ZM8.53054 14.863H8.73053V3.9539H8.53054H8.33053V14.863H8.53054ZM8.53054 3.9539V4.1539H9.22939V3.9539V3.75391H8.53054V3.9539ZM9.22939 3.9539H9.0294V14.863H9.22939H9.4294V3.9539H9.22939ZM9.22939 14.863V14.663H8.53054V14.863V15.0631H9.22939V14.863ZM10.7166 7.33743L10.9154 7.31504C10.8635 6.8548 10.6452 6.48913 10.2657 6.23397L10.1541 6.39993L10.0425 6.5659C10.3221 6.75391 10.4788 7.01325 10.5179 7.35983L10.7166 7.33743ZM10.1541 6.39993L10.2667 6.23463C9.8964 5.98245 9.43972 5.86329 8.9098 5.86329V6.06328V6.26328C9.37987 6.26328 9.75274 6.36856 10.0415 6.56524L10.1541 6.39993ZM8.9098 6.06328V5.86329C8.5312 5.86329 8.19316 5.92333 7.90106 6.05032L7.98082 6.23374L8.06056 6.41715C8.2912 6.31687 8.57248 6.26328 8.9098 6.26328V6.06328ZM7.98082 6.23374L7.90276 6.0496C7.61395 6.17203 7.38004 6.34587 7.2106 6.57508L7.37144 6.69397L7.53227 6.81285C7.65262 6.65002 7.82495 6.51703 8.05888 6.41788L7.98082 6.23374ZM7.37144 6.69397L7.21031 6.57549C7.04219 6.80413 6.95837 7.06609 6.95837 7.35449H7.15837H7.35838C7.35838 7.14853 7.41659 6.97017 7.53257 6.81244L7.37144 6.69397ZM7.15837 7.35449H6.95837C6.95837 7.59392 7.01453 7.81175 7.13492 7.99941L7.30325 7.89141L7.4716 7.78343C7.3988 7.66995 7.35838 7.52982 7.35838 7.35449H7.15837ZM7.30325 7.89141L7.13636 8.00163C7.25186 8.17653 7.40155 8.32233 7.5829 8.43891L7.69105 8.27067L7.7992 8.10245C7.66235 8.01447 7.55351 7.90743 7.47016 7.78121L7.30325 7.89141ZM7.69105 8.27067L7.58639 8.44112C7.75991 8.54766 7.9451 8.63714 8.14165 8.70972L8.21093 8.5221L8.2802 8.33448C8.10743 8.27069 7.94603 8.19255 7.79569 8.10024L7.69105 8.27067ZM8.21093 8.5221L8.14421 8.71064C8.33419 8.77787 8.51783 8.83374 8.69509 8.87805L8.7436 8.68403L8.79211 8.49C8.62846 8.44908 8.45699 8.39702 8.27764 8.33355L8.21093 8.5221ZM8.7436 8.68403L8.69327 8.87759L9.54555 9.09918L9.59587 8.90562L9.6462 8.71205L8.79392 8.49045L8.7436 8.68403ZM9.59587 8.90562L9.54831 9.09987C9.8169 9.16566 10.0936 9.25504 10.3784 9.36844L10.4524 9.18261L10.5264 8.99679C10.226 8.87723 9.93168 8.78195 9.64345 8.71136L9.59587 8.90562ZM10.4524 9.18261L10.3784 9.36844C10.6542 9.47821 10.9097 9.62266 11.1452 9.80197L11.2663 9.64285L11.3875 9.48371C11.123 9.28235 10.8358 9.11996 10.5264 8.99679L10.4524 9.18261ZM11.2663 9.64285L11.1452 9.80197C11.3723 9.97492 11.5557 10.189 11.6959 10.446L11.8715 10.3502L12.047 10.2545C11.8804 9.949 11.6603 9.69145 11.3875 9.48371L11.2663 9.64285ZM11.8715 10.3502L11.6966 10.4474C11.8331 10.6931 11.9058 10.9947 11.9058 11.3602H12.1058H12.3058C12.3058 10.9415 12.2223 10.5699 12.0463 10.2531L11.8715 10.3502ZM12.1058 11.3602H11.9058C11.9058 11.818 11.7881 12.2177 11.5559 12.566L11.7223 12.6769L11.8887 12.7879C12.1679 12.3691 12.3058 11.891 12.3058 11.3602H12.1058ZM11.7223 12.6769L11.5553 12.5668C11.3261 12.9145 10.9896 13.1944 10.5352 13.4028L10.6186 13.5846L10.702 13.7664C11.2135 13.5317 11.6128 13.2064 11.8893 12.787L11.7223 12.6769ZM10.6186 13.5846L10.5348 13.403C10.0874 13.6095 9.53664 13.717 8.8757 13.717V13.917V14.117C9.57841 14.117 10.1896 14.0029 10.7024 13.7662L10.6186 13.5846ZM8.8757 13.917V13.717C8.24294 13.717 7.70596 13.6165 7.25938 13.4225L7.17968 13.6059L7.09997 13.7894C7.60795 14.0101 8.20165 14.117 8.8757 14.117V13.917ZM7.17968 13.6059L7.25938 13.4225C6.81162 13.2279 6.4685 12.9557 6.22209 12.6081L6.05894 12.7238L5.89578 12.8395C6.18914 13.2533 6.59318 13.5691 7.09997 13.7894L7.17968 13.6059ZM6.05894 12.7238L6.2225 12.6087C5.97677 12.2595 5.83784 11.8422 5.8112 11.3494L5.61149 11.3602L5.41178 11.371C5.44196 11.9293 5.60133 12.4211 5.89538 12.8389L6.05894 12.7238ZM5.61149 11.3602V11.5602H6.93251V11.3602V11.1602H5.61149V11.3602ZM6.93251 11.3602L6.73317 11.3763C6.76161 11.7272 6.87702 12.0315 7.08705 12.2782L7.23934 12.1485L7.39162 12.0189C7.2437 11.8451 7.15456 11.6239 7.13186 11.344L6.93251 11.3602ZM7.23934 12.1485L7.08894 12.2804C7.29482 12.5152 7.55548 12.6882 7.86559 12.801L7.93394 12.613L8.00228 12.4251C7.74991 12.3333 7.5475 12.1966 7.38973 12.0167L7.23934 12.1485ZM7.93394 12.613L7.86787 12.8018C8.17564 12.9095 8.50936 12.9622 8.86718 12.9622V12.7622V12.5622C8.54887 12.5622 8.26042 12.5154 8 12.4242L7.93394 12.613ZM8.86718 12.7622V12.9622C9.26011 12.9622 9.61711 12.9007 9.93468 12.773L9.86008 12.5874L9.78549 12.4019C9.52351 12.5072 9.21858 12.5622 8.86718 12.5622V12.7622ZM9.86008 12.5874L9.93559 12.7726C10.2543 12.6427 10.5144 12.4591 10.7068 12.2178L10.5504 12.0931L10.394 11.9685C10.2512 12.1476 10.0511 12.2936 9.78456 12.4023L9.86008 12.5874ZM10.5504 12.0931L10.7076 12.2168C10.9044 11.9667 11.0018 11.674 11.0018 11.3474H10.8018H10.6018C10.6018 11.5889 10.5317 11.7934 10.3932 11.9695L10.5504 12.0931ZM10.8018 11.3474H11.0018C11.0018 11.0484 10.9152 10.7865 10.7292 10.5789L10.5802 10.7124L10.4313 10.846C10.5407 10.968 10.6018 11.1293 10.6018 11.3474H10.8018ZM10.5802 10.7124L10.7304 10.5804C10.5619 10.3887 10.338 10.2367 10.0672 10.1197L9.98793 10.3034L9.90864 10.487C10.1379 10.586 10.3088 10.7066 10.4301 10.8445L10.5802 10.7124ZM9.98793 10.3034L10.068 10.1201C9.80977 10.0073 9.51997 9.90896 9.19942 9.82445L9.14844 10.0178L9.09745 10.2112C9.40189 10.2915 9.67176 10.3835 9.90787 10.4866L9.98793 10.3034ZM9.14844 10.0178L9.20106 9.82489L8.1698 9.54364L8.11718 9.7366L8.06456 9.92954L9.0958 10.2108L9.14844 10.0178ZM8.11718 9.7366L8.1698 9.54364C7.49206 9.35905 6.96893 9.0914 6.58926 8.74865L6.45524 8.8971L6.32123 9.04556C6.75974 9.44144 7.34458 9.73345 8.06456 9.92954L8.11718 9.7366ZM6.45524 8.8971L6.58977 8.74911C6.22995 8.42201 6.04587 7.98953 6.04587 7.43118H5.84586H5.64587C5.64587 8.08875 5.86803 8.63357 6.3207 9.04509L6.45524 8.8971ZM5.84586 7.43118H6.04587C6.04587 6.96684 6.17097 6.56994 6.4167 6.23206L6.25496 6.11442L6.09321 5.99679C5.7935 6.4089 5.64587 6.88984 5.64587 7.43118H5.84586ZM6.25496 6.11442L6.4167 6.23206C6.66678 5.8882 7.0071 5.61814 7.44425 5.42356L7.36292 5.24084L7.28159 5.05813C6.7869 5.27832 6.38859 5.59065 6.09321 5.99679L6.25496 6.11442ZM7.36292 5.24084L7.44518 5.42314C7.88174 5.22616 8.37866 5.12549 8.93962 5.12549V4.9255V4.7255C8.33012 4.7255 7.77592 4.83506 7.28066 5.05853L7.36292 5.24084ZM8.93962 4.9255V5.12549C9.5071 5.12549 9.99904 5.22502 10.4201 5.41834L10.5036 5.23658L10.587 5.05481C10.1046 4.83335 9.55398 4.7255 8.93962 4.7255V4.9255ZM10.5036 5.23658L10.4205 5.41854C10.8471 5.61318 11.1763 5.87766 11.415 6.20985L11.5774 6.09312L11.7398 5.97639C11.4558 5.5813 11.0691 5.27476 10.5866 5.05462L10.5036 5.23658ZM11.5774 6.09312L11.4155 6.21045C11.6518 6.53668 11.7761 6.91176 11.7866 7.34228L11.9865 7.33743L12.1865 7.33259C12.1742 6.82561 12.0258 6.37114 11.7394 5.97579L11.5774 6.09312ZM11.9865 7.33743V7.13743H10.7166V7.33743V7.53744H11.9865V7.33743Z" fill="#5B81EC"/>
</g>
</g>
<defs>
<clipPath id="clip0_3023_807">
<rect width="18" height="18" fill="white"/>
</clipPath>
</defs>
</svg>
