<svg width="163" height="127" viewBox="0 0 163 127" fill="none" xmlns="http://www.w3.org/2000/svg">
<g clip-path="url(#clip0_3017_526)">
<rect width="163" height="127" rx="16" fill="url(#paint0_linear_3017_526)"/>
<g clip-path="url(#clip1_3017_526)">
<path d="M18.002 54.0001C35.6752 54.0001 50.0021 39.6732 50.0021 22.0001C50.0021 4.32692 35.6752 -10 18.002 -10C0.328871 -10 -13.998 4.32692 -13.998 22.0001C-13.998 39.6732 0.328871 54.0001 18.002 54.0001Z" fill="#B88AF8"/>
<path d="M18.0001 58.0002C37.8824 58.0002 54.0002 41.8824 54.0002 22.0001C54.0002 2.11779 37.8824 -14 18.0001 -14C-1.88221 -14 -18 2.11779 -18 22.0001C-18 41.8824 -1.88221 58.0002 18.0001 58.0002Z" fill="#2775CA"/>
<path d="M17.9981 54.0001C35.6713 54.0001 49.9982 39.6732 49.9982 22.0001C49.9982 4.32692 35.6713 -10 17.9981 -10C0.324963 -10 -14.002 4.32692 -14.002 22.0001C-14.002 39.6732 0.324963 54.0001 17.9981 54.0001Z" fill="#2775CA"/>
<path d="M44.474 39.9777C38.7161 48.441 29.0063 54.0006 17.9979 54.0006C6.98959 54.0006 -2.72029 48.4416 -8.47833 39.9777H44.474ZM48.5324 12.3998C49.484 15.4304 49.9982 18.6552 49.9982 21.9999C49.9982 25.625 49.3946 29.1093 48.284 32.3581H-12.2881C-13.3989 29.1094 -14.002 25.625 -14.002 21.9999C-14.0019 18.6552 -13.4884 15.4304 -12.5365 12.3998H48.5324ZM17.9979 -10C29.3319 -10 39.2899 -4.10759 44.975 4.7809H-8.97867C-3.29347 -4.10753 6.66403 -9.99993 17.9979 -10Z" fill="white"/>
<path d="M17.9981 50.0002C33.4622 50.0002 45.9982 37.4641 45.9982 22.0001C45.9982 6.53607 33.4622 -6 17.9981 -6C2.53411 -6 -10.002 6.53607 -10.002 22.0001C-10.002 37.4641 2.53411 50.0002 17.9981 50.0002Z" fill="#5496DE"/>
<path d="M16.1254 45.449V1.8125H18.9208V45.449H16.1254ZM24.8697 15.3466C24.6879 13.733 23.9379 12.483 22.6197 11.5966C21.3016 10.6989 19.6425 10.25 17.6425 10.25C16.2106 10.25 14.972 10.4773 13.9265 10.9319C12.8811 11.375 12.0686 11.9886 11.489 12.7728C10.9208 13.5455 10.6367 14.4262 10.6367 15.4148C10.6367 16.2443 10.8299 16.9603 11.2163 17.5625C11.614 18.1648 12.1311 18.6705 12.7675 19.0796C13.4152 19.4773 14.1083 19.8125 14.847 20.0853C15.5856 20.3467 16.2958 20.5626 16.9777 20.733L20.3868 21.6194C21.5004 21.8921 22.6425 22.2615 23.8129 22.7274C24.9834 23.1933 26.0686 23.8069 27.0686 24.5683C28.0686 25.3296 28.8755 26.2728 29.4891 27.3978C30.1141 28.5228 30.4266 29.8694 30.4266 31.4376C30.4266 33.4149 29.9152 35.1705 28.8925 36.7046C27.8811 38.2387 26.4095 39.449 24.4777 40.3354C22.5573 41.2217 20.2333 41.6649 17.5061 41.6649C14.8924 41.6649 12.6311 41.2501 10.722 40.4206C8.81291 39.591 7.31854 38.4149 6.23902 36.8921C5.15944 35.358 4.56286 33.5399 4.44922 31.4376H9.73331C9.83561 32.699 10.2447 33.7501 10.9606 34.591C11.6879 35.4206 12.614 36.0399 13.739 36.449C14.8754 36.8467 16.1197 37.0455 17.472 37.0455C18.9606 37.0455 20.2845 36.8126 21.4436 36.3467C22.614 35.8694 23.5345 35.2103 24.205 34.3694C24.8754 33.5171 25.2107 32.5228 25.2107 31.3865C25.2107 30.3524 24.9152 29.5058 24.3243 28.8467C23.7447 28.1875 22.9549 27.6421 21.955 27.2103C20.9663 26.7785 19.847 26.3978 18.597 26.0683L14.472 24.9433C11.6765 24.1819 9.46061 23.0626 7.82423 21.5853C6.19924 20.108 5.38672 18.1535 5.38672 15.7216C5.38672 13.7103 5.93218 11.9546 7.0231 10.4546C8.11403 8.95456 9.59129 7.78978 11.455 6.96027C13.3186 6.11931 15.4208 5.69889 17.7618 5.69889C20.1254 5.69889 22.2106 6.11367 24.0175 6.94323C25.8357 7.77274 27.2675 8.91478 28.313 10.3694C29.3584 11.8125 29.9039 13.4716 29.9493 15.3466H24.8697Z" fill="white"/>
<mask id="mask0_3017_526" style="mask-type:luminance" maskUnits="userSpaceOnUse" x="3" y="0" width="29" height="47">
<path d="M31.4423 0.613281H3.24219V46.8134H31.4423V0.613281Z" fill="white"/>
<path d="M16.1254 45.449V1.8125H18.9208V45.449H16.1254ZM24.8697 15.3466C24.6879 13.733 23.9379 12.483 22.6197 11.5966C21.3016 10.6989 19.6425 10.25 17.6425 10.25C16.2106 10.25 14.972 10.4773 13.9265 10.9319C12.8811 11.375 12.0686 11.9886 11.489 12.7728C10.9208 13.5455 10.6367 14.4262 10.6367 15.4148C10.6367 16.2443 10.8299 16.9603 11.2163 17.5625C11.614 18.1648 12.1311 18.6705 12.7675 19.0796C13.4152 19.4773 14.1083 19.8125 14.847 20.0853C15.5856 20.3467 16.2958 20.5626 16.9777 20.733L20.3868 21.6194C21.5004 21.8921 22.6425 22.2615 23.8129 22.7274C24.9834 23.1933 26.0686 23.8069 27.0686 24.5683C28.0686 25.3296 28.8755 26.2728 29.4891 27.3978C30.1141 28.5228 30.4266 29.8694 30.4266 31.4376C30.4266 33.4149 29.9152 35.1705 28.8925 36.7046C27.8811 38.2387 26.4095 39.449 24.4777 40.3354C22.5573 41.2217 20.2333 41.6649 17.5061 41.6649C14.8924 41.6649 12.6311 41.2501 10.722 40.4206C8.81291 39.591 7.31854 38.4149 6.23902 36.8921C5.15944 35.358 4.56286 33.5399 4.44922 31.4376H9.73331C9.83561 32.699 10.2447 33.7501 10.9606 34.591C11.6879 35.4206 12.614 36.0399 13.739 36.449C14.8754 36.8467 16.1197 37.0455 17.472 37.0455C18.9606 37.0455 20.2845 36.8126 21.4436 36.3467C22.614 35.8694 23.5345 35.2103 24.205 34.3694C24.8754 33.5171 25.2107 32.5228 25.2107 31.3865C25.2107 30.3524 24.9152 29.5058 24.3243 28.8467C23.7447 28.1875 22.9549 27.6421 21.955 27.2103C20.9663 26.7785 19.847 26.3978 18.597 26.0683L14.472 24.9433C11.6765 24.1819 9.46061 23.0626 7.82423 21.5853C6.19924 20.108 5.38672 18.1535 5.38672 15.7216C5.38672 13.7103 5.93218 11.9546 7.0231 10.4546C8.11403 8.95456 9.59129 7.78978 11.455 6.96027C13.3186 6.11931 15.4208 5.69889 17.7618 5.69889C20.1254 5.69889 22.2106 6.11367 24.0175 6.94323C25.8357 7.77274 27.2675 8.91478 28.313 10.3694C29.3584 11.8125 29.9039 13.4716 29.9493 15.3466H24.8697Z" fill="black"/>
</mask>
<g mask="url(#mask0_3017_526)">
<path d="M16.1258 45.4503H15.3258V46.2504H16.1258V45.4503ZM16.1258 1.81378V1.01379H15.3258V1.81378H16.1258ZM18.9212 1.81378H19.7213V1.01379H18.9212V1.81378ZM18.9212 45.4503V46.2504H19.7213V45.4503H18.9212ZM24.8701 15.3479L24.0752 15.4375L24.1552 16.1479H24.8701V15.3479ZM22.6201 11.5979L22.1698 12.2591L22.1737 12.2618L22.6201 11.5979ZM13.9269 10.9331L14.2392 11.6697L14.2459 11.6668L13.9269 10.9331ZM11.4894 12.7741L10.846 12.2985L10.8449 12.3001L11.4894 12.7741ZM11.2167 17.5638L10.5433 17.9958L10.5462 18.0003L10.5491 18.0047L11.2167 17.5638ZM12.7678 19.0809L12.3352 19.7538L12.3421 19.7583L12.3492 19.7626L12.7678 19.0809ZM14.8474 20.0866L14.5703 20.8371L14.5754 20.8389L14.5805 20.8407L14.8474 20.0866ZM16.9781 20.7343L17.1794 19.96L17.1721 19.9582L16.9781 20.7343ZM20.3871 21.6207L20.1858 22.3949L20.1914 22.3963L20.1969 22.3977L20.3871 21.6207ZM29.4895 27.3991L28.7871 27.7821L28.7901 27.7876L29.4895 27.3991ZM28.8929 36.7059L28.2272 36.2621L28.225 36.2656L28.8929 36.7059ZM24.4781 40.3366L24.1445 39.6095L24.1429 39.6102L24.4781 40.3366ZM6.23941 36.8934L5.58517 37.3538L5.58679 37.3561L6.23941 36.8934ZM4.44961 31.4389V30.6389H3.60522L3.65077 31.4821L4.44961 31.4389ZM9.7337 31.4389L10.5311 31.3742L10.4715 30.6389H9.7337V31.4389ZM10.961 34.5923L10.3519 35.1109L10.3556 35.1153L10.3594 35.1197L10.961 34.5923ZM13.7394 36.4502L13.466 37.202L13.4706 37.2037L13.4751 37.2053L13.7394 36.4502ZM21.444 36.3479L21.7424 37.0903L21.746 37.0888L21.444 36.3479ZM24.2054 34.3707L24.8309 34.8694L24.8341 34.8653L24.2054 34.3707ZM24.3247 28.8479L23.7239 29.3762L23.729 29.382L24.3247 28.8479ZM21.9554 27.2116L21.6352 27.9447L21.6382 27.946L21.9554 27.2116ZM18.5974 26.0696L18.3869 26.8413L18.3935 26.8431L18.5974 26.0696ZM7.82462 21.5866L7.28648 22.1785L7.28857 22.1804L7.82462 21.5866ZM11.4553 6.96155L11.7807 7.69241L11.7844 7.69073L11.4553 6.96155ZM24.0179 6.94451L23.684 7.67153L23.6858 7.67231L24.0179 6.94451ZM28.3133 10.3706L27.6637 10.8376L27.6655 10.84L28.3133 10.3706ZM29.9497 15.3479V16.1479H30.7693L30.7495 15.3285L29.9497 15.3479ZM16.1258 45.4503H16.9258V1.81378H16.1258H15.3258V45.4503H16.1258ZM16.1258 1.81378V2.61376H18.9212V1.81378V1.01379H16.1258V1.81378ZM18.9212 1.81378H18.1212V45.4503H18.9212H19.7213V1.81378H18.9212ZM18.9212 45.4503V44.6503H16.1258V45.4503V46.2504H18.9212V45.4503ZM24.8701 15.3479L25.6651 15.2583C25.4576 13.4174 24.5845 11.9547 23.0665 10.934L22.6201 11.5979L22.1737 12.2618C23.2921 13.0138 23.9189 14.0512 24.0752 15.4375L24.8701 15.3479ZM22.6201 11.5979L23.0704 10.9367C21.5892 9.92796 19.7625 9.45132 17.6429 9.45132V10.2513V11.0513C19.5231 11.0513 21.0146 11.4724 22.1698 12.2591L22.6201 11.5979ZM17.6429 10.2513V9.45132C16.1285 9.45132 14.7763 9.6915 13.6079 10.1995L13.9269 10.9331L14.2459 11.6668C15.1685 11.2657 16.2936 11.0513 17.6429 11.0513V10.2513ZM13.9269 10.9331L13.6147 10.1966C12.4594 10.6863 11.5238 11.3816 10.846 12.2985L11.4894 12.7741L12.1327 13.2496C12.6141 12.5983 13.3035 12.0663 14.2392 11.6697L13.9269 10.9331ZM11.4894 12.7741L10.8449 12.3001C10.1724 13.2147 9.83714 14.2625 9.83714 15.4161H10.6371H11.4372C11.4372 14.5923 11.67 13.8788 12.1339 13.2479L11.4894 12.7741ZM10.6371 15.4161H9.83714C9.83714 16.3738 10.0618 17.2452 10.5433 17.9958L11.2167 17.5638L11.89 17.1319C11.5989 16.678 11.4372 16.1175 11.4372 15.4161H10.6371ZM11.2167 17.5638L10.5491 18.0047C11.0111 18.7043 11.6098 19.2875 12.3352 19.7538L12.7678 19.0809L13.2004 18.408C12.6531 18.0561 12.2177 17.6279 11.8843 17.123L11.2167 17.5638ZM12.7678 19.0809L12.3492 19.7626C13.0433 20.1888 13.7841 20.5467 14.5703 20.8371L14.8474 20.0866L15.1245 19.3361C14.4334 19.0809 13.7878 18.7684 13.1864 18.3991L12.7678 19.0809ZM14.8474 20.0866L14.5805 20.8407C15.3404 21.1096 16.075 21.3331 16.784 21.5104L16.9781 20.7343L17.1721 19.9582C16.5175 19.7945 15.8316 19.5862 15.1142 19.3324L14.8474 20.0866ZM16.9781 20.7343L16.7768 21.5085L20.1858 22.3949L20.3871 21.6207L20.5884 20.8464L17.1794 19.96L16.9781 20.7343ZM20.3871 21.6207L20.1969 22.3977C21.2713 22.6608 22.378 23.0183 23.5174 23.4719L23.8133 22.7286L24.1092 21.9853C22.9077 21.5071 21.7304 21.126 20.5775 20.8436L20.3871 21.6207ZM23.8133 22.7286L23.5174 23.4719C24.6206 23.911 25.6423 24.4888 26.5844 25.206L27.069 24.5696L27.5536 23.933C26.4957 23.1276 25.3469 22.478 24.1092 21.9853L23.8133 22.7286ZM27.069 24.5696L26.5844 25.206C27.493 25.8978 28.2263 26.754 28.7871 27.7821L29.4895 27.3991L30.1918 27.016C29.5253 25.7942 28.645 24.764 27.5536 23.933L27.069 24.5696ZM29.4895 27.3991L28.7901 27.7876C29.3361 28.7704 29.627 29.9771 29.627 31.4389H30.427H31.227C31.227 29.7642 30.8928 28.2778 30.1888 27.0105L29.4895 27.3991ZM30.427 31.4389H29.627C29.627 33.2702 29.1559 34.8691 28.2272 36.2621L28.8929 36.7059L29.5585 37.1497C30.6753 35.4745 31.227 33.5621 31.227 31.4389H30.427ZM28.8929 36.7059L28.225 36.2656C27.3082 37.6561 25.9619 38.7756 24.1445 39.6095L24.4781 40.3366L24.8117 41.0637C26.8579 40.1249 28.4548 38.8239 29.5608 37.1462L28.8929 36.7059ZM24.4781 40.3366L24.1429 39.6102C22.3533 40.4362 20.1502 40.8661 17.5065 40.8661V41.6662V42.4662C20.3173 42.4662 22.762 42.0097 24.8134 41.063L24.4781 40.3366ZM17.5065 41.6662V40.8661C14.9754 40.8661 12.8275 40.4643 11.0412 39.6881L10.7224 40.4218L10.4035 41.1556C12.4354 42.0385 14.8103 42.4662 17.5065 42.4662V41.6662ZM10.7224 40.4218L11.0412 39.6881C9.25016 38.9099 7.87766 37.821 6.89203 36.4307L6.23941 36.8934L5.58679 37.3561C6.76021 39.0113 8.37638 40.2747 10.4035 41.1556L10.7224 40.4218ZM6.23941 36.8934L6.89365 36.433C5.91073 35.0363 5.35501 33.367 5.24845 31.3957L4.44961 31.4389L3.65077 31.4821C3.77149 33.7153 4.40899 35.6824 5.58517 37.3538L6.23941 36.8934ZM4.44961 31.4389V32.2388H9.7337V31.4389V30.6389H4.44961V31.4389ZM9.7337 31.4389L8.93636 31.5035C9.05012 32.9069 9.51176 34.124 10.3519 35.1109L10.961 34.5923L11.5701 34.0737C10.9785 33.3787 10.6219 32.4936 10.5311 31.3742L9.7337 31.4389ZM10.961 34.5923L10.3594 35.1197C11.1829 36.0589 12.2256 36.751 13.466 37.202L13.7394 36.4502L14.0128 35.6984C13.0033 35.3313 12.1936 34.7847 11.5626 34.0649L10.961 34.5923ZM13.7394 36.4502L13.4751 37.2053C14.7062 37.6362 16.0411 37.8468 17.4724 37.8468V37.0468V36.2468C16.1991 36.2468 15.0453 36.0597 14.0037 35.6951L13.7394 36.4502ZM17.4724 37.0468V37.8468C19.0441 37.8468 20.4721 37.6008 21.7424 37.0903L21.444 36.3479L21.1456 35.6057C20.0977 36.0269 18.878 36.2468 17.4724 36.2468V37.0468ZM21.444 36.3479L21.746 37.0888C23.0209 36.5689 24.0612 35.8348 24.8309 34.8694L24.2054 34.3707L23.5798 33.872C23.0086 34.5884 22.208 35.1725 21.1419 35.6072L21.444 36.3479ZM24.2054 34.3707L24.8341 34.8653C25.6211 33.8649 26.011 32.6942 26.011 31.3877H25.211H24.4111C24.4111 32.3539 24.1306 33.1719 23.5766 33.8761L24.2054 34.3707ZM25.211 31.3877H26.011C26.011 30.1917 25.6646 29.144 24.9203 28.3139L24.3247 28.8479L23.729 29.382C24.1666 29.8701 24.4111 30.5155 24.4111 31.3877H25.211ZM24.3247 28.8479L24.9254 28.3197C24.2513 27.5529 23.3556 26.9448 22.2725 26.4771L21.9554 27.2116L21.6382 27.946C22.5551 28.342 23.239 28.8248 23.7239 29.3762L24.3247 28.8479ZM21.9554 27.2116L22.2756 26.4785C21.2427 26.0273 20.0835 25.634 18.8013 25.296L18.5974 26.0696L18.3935 26.8431C19.6112 27.1641 20.6907 27.5322 21.6352 27.9447L21.9554 27.2116ZM18.5974 26.0696L18.8079 25.2977L14.6829 24.1727L14.4724 24.9446L14.2619 25.7163L18.3869 26.8413L18.5974 26.0696ZM14.4724 24.9446L14.6829 24.1727C11.9719 23.4343 9.87938 22.3638 8.36072 20.9928L7.82462 21.5866L7.28857 22.1804C9.04262 23.7639 11.382 24.932 14.2619 25.7163L14.4724 24.9446ZM7.82462 21.5866L8.36276 20.9946C6.92347 19.6862 6.18715 17.9563 6.18715 15.7229H5.38711H4.58713C4.58713 18.3532 5.47579 20.5324 7.28648 22.1785L7.82462 21.5866ZM5.38711 15.7229H6.18715C6.18715 13.8655 6.68755 12.2779 7.67048 10.9264L7.02349 10.4558L6.37651 9.98532C5.17765 11.6338 4.58713 13.5575 4.58713 15.7229H5.38711ZM7.02349 10.4558L7.67048 10.9264C8.6708 9.55098 10.0321 8.47073 11.7807 7.69241L11.4553 6.96155L11.13 6.23069C9.15128 7.11143 7.55804 8.36075 6.37651 9.98532L7.02349 10.4558ZM11.4553 6.96155L11.7844 7.69073C13.5306 6.90281 15.5183 6.50015 17.7621 6.50015V5.70017V4.90018C15.3242 4.90018 13.1073 5.33842 11.1263 6.23231L11.4553 6.96155ZM17.7621 5.70017V6.50015C20.0321 6.50015 21.9998 6.89825 23.684 7.67153L24.0179 6.94451L24.3517 6.21743C22.4222 5.33158 20.2196 4.90018 17.7621 4.90018V5.70017ZM24.0179 6.94451L23.6858 7.67231C25.3922 8.45087 26.7087 9.50879 27.6637 10.8376L28.3133 10.3706L28.9629 9.90372C27.827 8.32337 26.2799 7.09721 24.3499 6.21665L24.0179 6.94451ZM28.3133 10.3706L27.6655 10.84C28.6108 12.1449 29.1082 13.6452 29.1499 15.3673L29.9497 15.3479L30.7495 15.3285C30.7003 13.3006 30.1068 11.4827 28.9612 9.90132L28.3133 10.3706ZM29.9497 15.3479V14.5479H24.8701V15.3479V16.1479H29.9497V15.3479Z" fill="#5B81EC"/>
</g>
</g>
</g>
<defs>
<linearGradient id="paint0_linear_3017_526" x1="81.5" y1="0" x2="81.5" y2="127" gradientUnits="userSpaceOnUse">
<stop stop-color="#DFEDFB"/>
<stop offset="1" stop-color="#CFE2F7"/>
</linearGradient>
<clipPath id="clip0_3017_526">
<rect width="163" height="127" rx="16" fill="white"/>
</clipPath>
<clipPath id="clip1_3017_526">
<rect width="72.0002" height="72.0002" fill="white" transform="translate(-18 -14)"/>
</clipPath>
</defs>
</svg>
