<svg width="179" height="143" viewBox="0 0 179 143" fill="none" xmlns="http://www.w3.org/2000/svg">
<g filter="url(#filter0_dddi_4324_51605)">
<rect x="8" y="8" width="163" height="127" rx="16" fill="url(#paint0_linear_4324_51605)" shape-rendering="crispEdges"/>
<g clip-path="url(#clip0_4324_51605)">
<path d="M26.002 62.0001C43.6752 62.0001 58.0021 47.6732 58.0021 30.0001C58.0021 12.3269 43.6752 -2 26.002 -2C8.32887 -2 -5.99805 12.3269 -5.99805 30.0001C-5.99805 47.6732 8.32887 62.0001 26.002 62.0001Z" fill="#B88AF8"/>
<path d="M26.0001 66.0002C45.8824 66.0002 62.0002 49.8824 62.0002 30.0001C62.0002 10.1178 45.8824 -6 26.0001 -6C6.11779 -6 -10 10.1178 -10 30.0001C-10 49.8824 6.11779 66.0002 26.0001 66.0002Z" fill="#2775CA"/>
<path d="M25.9981 62.0001C43.6713 62.0001 57.9982 47.6732 57.9982 30.0001C57.9982 12.3269 43.6713 -2 25.9981 -2C8.32496 -2 -6.00195 12.3269 -6.00195 30.0001C-6.00195 47.6732 8.32496 62.0001 25.9981 62.0001Z" fill="#2775CA"/>
<path d="M52.474 47.9777C46.7161 56.441 37.0063 62.0006 25.9979 62.0006C14.9896 62.0006 5.27971 56.4416 -0.478327 47.9777H52.474ZM56.5324 20.3998C57.484 23.4304 57.9982 26.6552 57.9982 29.9999C57.9982 33.625 57.3946 37.1093 56.284 40.3581H-4.28808C-5.39888 37.1094 -6.00195 33.625 -6.00195 29.9999C-6.00193 26.6552 -5.4884 23.4304 -4.53652 20.3998H56.5324ZM25.9979 -2C37.3319 -2 47.2899 3.89241 52.975 12.7809H-0.978669C4.70653 3.89247 14.664 -1.99993 25.9979 -2Z" fill="white"/>
<path d="M25.9981 58.0002C41.4622 58.0002 53.9982 45.4641 53.9982 30.0001C53.9982 14.5361 41.4622 2 25.9981 2C10.5341 2 -2.00195 14.5361 -2.00195 30.0001C-2.00195 45.4641 10.5341 58.0002 25.9981 58.0002Z" fill="#5496DE"/>
<path d="M24.1254 53.449V9.8125H26.9208V53.449H24.1254ZM32.8697 23.3466C32.6879 21.733 31.9379 20.483 30.6197 19.5966C29.3016 18.6989 27.6425 18.25 25.6425 18.25C24.2106 18.25 22.972 18.4773 21.9265 18.9319C20.8811 19.375 20.0686 19.9886 19.489 20.7728C18.9208 21.5455 18.6367 22.4262 18.6367 23.4148C18.6367 24.2443 18.8299 24.9603 19.2163 25.5625C19.614 26.1648 20.1311 26.6705 20.7675 27.0796C21.4152 27.4773 22.1083 27.8125 22.847 28.0853C23.5856 28.3467 24.2958 28.5626 24.9777 28.733L28.3868 29.6194C29.5004 29.8921 30.6425 30.2615 31.8129 30.7274C32.9834 31.1933 34.0686 31.8069 35.0686 32.5683C36.0686 33.3296 36.8755 34.2728 37.4891 35.3978C38.1141 36.5228 38.4266 37.8694 38.4266 39.4376C38.4266 41.4149 37.9152 43.1705 36.8925 44.7046C35.8811 46.2387 34.4095 47.449 32.4777 48.3354C30.5573 49.2217 28.2333 49.6649 25.5061 49.6649C22.8924 49.6649 20.6311 49.2501 18.722 48.4206C16.8129 47.591 15.3185 46.4149 14.239 44.8921C13.1594 43.358 12.5629 41.5399 12.4492 39.4376H17.7333C17.8356 40.699 18.2447 41.7501 18.9606 42.591C19.6879 43.4206 20.614 44.0399 21.739 44.449C22.8754 44.8467 24.1197 45.0455 25.472 45.0455C26.9606 45.0455 28.2845 44.8126 29.4436 44.3467C30.614 43.8694 31.5345 43.2103 32.205 42.3694C32.8754 41.5171 33.2107 40.5228 33.2107 39.3865C33.2107 38.3524 32.9152 37.5058 32.3243 36.8467C31.7447 36.1875 30.9549 35.6421 29.955 35.2103C28.9663 34.7785 27.847 34.3978 26.597 34.0683L22.472 32.9433C19.6765 32.1819 17.4606 31.0626 15.8242 29.5853C14.1992 28.108 13.3867 26.1535 13.3867 23.7216C13.3867 21.7103 13.9322 19.9546 15.0231 18.4546C16.114 16.9546 17.5913 15.7898 19.455 14.9603C21.3186 14.1193 23.4208 13.6989 25.7618 13.6989C28.1254 13.6989 30.2106 14.1137 32.0175 14.9432C33.8357 15.7727 35.2675 16.9148 36.313 18.3694C37.3584 19.8125 37.9039 21.4716 37.9493 23.3466H32.8697Z" fill="white"/>
<mask id="mask0_4324_51605" style="mask-type:luminance" maskUnits="userSpaceOnUse" x="11" y="8" width="29" height="47">
<path d="M39.4423 8.61328H11.2422V54.8134H39.4423V8.61328Z" fill="white"/>
<path d="M24.1254 53.449V9.8125H26.9208V53.449H24.1254ZM32.8697 23.3466C32.6879 21.733 31.9379 20.483 30.6197 19.5966C29.3016 18.6989 27.6425 18.25 25.6425 18.25C24.2106 18.25 22.972 18.4773 21.9265 18.9319C20.8811 19.375 20.0686 19.9886 19.489 20.7728C18.9208 21.5455 18.6367 22.4262 18.6367 23.4148C18.6367 24.2443 18.8299 24.9603 19.2163 25.5625C19.614 26.1648 20.1311 26.6705 20.7675 27.0796C21.4152 27.4773 22.1083 27.8125 22.847 28.0853C23.5856 28.3467 24.2958 28.5626 24.9777 28.733L28.3868 29.6194C29.5004 29.8921 30.6425 30.2615 31.8129 30.7274C32.9834 31.1933 34.0686 31.8069 35.0686 32.5683C36.0686 33.3296 36.8755 34.2728 37.4891 35.3978C38.1141 36.5228 38.4266 37.8694 38.4266 39.4376C38.4266 41.4149 37.9152 43.1705 36.8925 44.7046C35.8811 46.2387 34.4095 47.449 32.4777 48.3354C30.5573 49.2217 28.2333 49.6649 25.5061 49.6649C22.8924 49.6649 20.6311 49.2501 18.722 48.4206C16.8129 47.591 15.3185 46.4149 14.239 44.8921C13.1594 43.358 12.5629 41.5399 12.4492 39.4376H17.7333C17.8356 40.699 18.2447 41.7501 18.9606 42.591C19.6879 43.4206 20.614 44.0399 21.739 44.449C22.8754 44.8467 24.1197 45.0455 25.472 45.0455C26.9606 45.0455 28.2845 44.8126 29.4436 44.3467C30.614 43.8694 31.5345 43.2103 32.205 42.3694C32.8754 41.5171 33.2107 40.5228 33.2107 39.3865C33.2107 38.3524 32.9152 37.5058 32.3243 36.8467C31.7447 36.1875 30.9549 35.6421 29.955 35.2103C28.9663 34.7785 27.847 34.3978 26.597 34.0683L22.472 32.9433C19.6765 32.1819 17.4606 31.0626 15.8242 29.5853C14.1992 28.108 13.3867 26.1535 13.3867 23.7216C13.3867 21.7103 13.9322 19.9546 15.0231 18.4546C16.114 16.9546 17.5913 15.7898 19.455 14.9603C21.3186 14.1193 23.4208 13.6989 25.7618 13.6989C28.1254 13.6989 30.2106 14.1137 32.0175 14.9432C33.8357 15.7727 35.2675 16.9148 36.313 18.3694C37.3584 19.8125 37.9039 21.4716 37.9493 23.3466H32.8697Z" fill="black"/>
</mask>
<g mask="url(#mask0_4324_51605)">
<path d="M24.1258 53.4521H23.3258V54.2522H24.1258V53.4521ZM24.1258 9.81561V9.01562H23.3258V9.81561H24.1258ZM26.9212 9.81561H27.7213V9.01562H26.9212V9.81561ZM26.9212 53.4521V54.2522H27.7213V53.4521H26.9212ZM32.8701 23.3497L32.0752 23.4393L32.1552 24.1498H32.8701V23.3497ZM30.6201 19.5997L30.1698 20.261L30.1737 20.2636L30.6201 19.5997ZM21.9269 18.935L22.2392 19.6715L22.2459 19.6686L21.9269 18.935ZM19.4894 20.7759L18.846 20.3003L18.8449 20.302L19.4894 20.7759ZM19.2167 25.5656L18.5433 25.9976L18.5462 26.0021L18.5491 26.0065L19.2167 25.5656ZM20.7678 27.0827L20.3352 27.7557L20.3421 27.7601L20.3492 27.7645L20.7678 27.0827ZM22.8474 28.0884L22.5703 28.8389L22.5754 28.8408L22.5805 28.8426L22.8474 28.0884ZM24.9781 28.7361L25.1794 27.9618L25.1721 27.96L24.9781 28.7361ZM28.3871 29.6225L28.1858 30.3967L28.1914 30.3982L28.1969 30.3995L28.3871 29.6225ZM37.4895 35.4009L36.7871 35.784L36.7901 35.7894L37.4895 35.4009ZM36.8929 44.7077L36.2272 44.264L36.225 44.2674L36.8929 44.7077ZM32.4781 48.3385L32.1445 47.6113L32.1429 47.612L32.4781 48.3385ZM14.2394 44.8952L13.5852 45.3557L13.5868 45.358L14.2394 44.8952ZM12.4496 39.4407V38.6407H11.6052L11.6508 39.4839L12.4496 39.4407ZM17.7337 39.4407L18.5311 39.3761L18.4715 38.6407H17.7337V39.4407ZM18.961 42.5941L18.3519 43.1127L18.3556 43.1171L18.3594 43.1215L18.961 42.5941ZM21.7394 44.4521L21.466 45.2039L21.4706 45.2056L21.4751 45.2072L21.7394 44.4521ZM29.444 44.3498L29.7424 45.0921L29.746 45.0906L29.444 44.3498ZM32.2054 42.3725L32.8309 42.8713L32.8341 42.8672L32.2054 42.3725ZM32.3247 36.8498L31.7239 37.3781L31.729 37.3838L32.3247 36.8498ZM29.9554 35.2134L29.6352 35.9465L29.6382 35.9478L29.9554 35.2134ZM26.5974 34.0714L26.3869 34.8432L26.3935 34.8449L26.5974 34.0714ZM15.8246 29.5884L15.2865 30.1804L15.2886 30.1822L15.8246 29.5884ZM19.4553 14.9634L19.7807 15.6942L19.7844 15.6926L19.4553 14.9634ZM32.0179 14.9463L31.684 15.6734L31.6858 15.6741L32.0179 14.9463ZM36.3133 18.3725L35.6637 18.8394L35.6655 18.8418L36.3133 18.3725ZM37.9497 23.3497V24.1498H38.7693L38.7495 23.3303L37.9497 23.3497ZM24.1258 53.4521H24.9258V9.81561H24.1258H23.3258V53.4521H24.1258ZM24.1258 9.81561V10.6156H26.9212V9.81561V9.01562H24.1258V9.81561ZM26.9212 9.81561H26.1212V53.4521H26.9212H27.7213V9.81561H26.9212ZM26.9212 53.4521V52.6521H24.1258V53.4521V54.2522H26.9212V53.4521ZM32.8701 23.3497L33.6651 23.2601C33.4576 21.4192 32.5845 19.9565 31.0665 18.9359L30.6201 19.5997L30.1737 20.2636C31.2921 21.0157 31.9189 22.053 32.0752 23.4393L32.8701 23.3497ZM30.6201 19.5997L31.0704 18.9385C29.5892 17.9298 27.7625 17.4531 25.6429 17.4531V18.2531V19.0531C27.5231 19.0531 29.0146 19.4743 30.1698 20.261L30.6201 19.5997ZM25.6429 18.2531V17.4531C24.1285 17.4531 22.7763 17.6933 21.6079 18.2013L21.9269 18.935L22.2459 19.6686C23.1685 19.2675 24.2936 19.0531 25.6429 19.0531V18.2531ZM21.9269 18.935L21.6147 18.1984C20.4594 18.6881 19.5238 19.3835 18.846 20.3003L19.4894 20.7759L20.1327 21.2514C20.6141 20.6001 21.3035 20.0681 22.2392 19.6715L21.9269 18.935ZM19.4894 20.7759L18.8449 20.302C18.1724 21.2165 17.8371 22.2644 17.8371 23.4179H18.6371H19.4372C19.4372 22.5941 19.67 21.8807 20.1339 21.2498L19.4894 20.7759ZM18.6371 23.4179H17.8371C17.8371 24.3757 18.0618 25.247 18.5433 25.9976L19.2167 25.5656L19.89 25.1337C19.5989 24.6798 19.4372 24.1193 19.4372 23.4179H18.6371ZM19.2167 25.5656L18.5491 26.0065C19.0111 26.7061 19.6098 27.2893 20.3352 27.7557L20.7678 27.0827L21.2004 26.4098C20.6531 26.0579 20.2177 25.6297 19.8843 25.1248L19.2167 25.5656ZM20.7678 27.0827L20.3492 27.7645C21.0433 28.1907 21.7841 28.5486 22.5703 28.8389L22.8474 28.0884L23.1245 27.3379C22.4334 27.0827 21.7878 26.7702 21.1864 26.401L20.7678 27.0827ZM22.8474 28.0884L22.5805 28.8426C23.3404 29.1115 24.075 29.335 24.784 29.5122L24.9781 28.7361L25.1721 27.96C24.5175 27.7963 23.8316 27.5881 23.1142 27.3342L22.8474 28.0884ZM24.9781 28.7361L24.7768 29.5104L28.1858 30.3967L28.3871 29.6225L28.5884 28.8482L25.1794 27.9618L24.9781 28.7361ZM28.3871 29.6225L28.1969 30.3995C29.2713 30.6627 30.378 31.0201 31.5174 31.4737L31.8133 30.7305L32.1092 29.9872C30.9077 29.5089 29.7304 29.1278 28.5775 28.8454L28.3871 29.6225ZM31.8133 30.7305L31.5174 31.4737C32.6206 31.9128 33.6423 32.4906 34.5844 33.2079L35.069 32.5714L35.5536 31.9348C34.4957 31.1294 33.3469 30.4798 32.1092 29.9872L31.8133 30.7305ZM35.069 32.5714L34.5844 33.2079C35.493 33.8997 36.2263 34.7559 36.7871 35.784L37.4895 35.4009L38.1918 35.0178C37.5253 33.796 36.645 32.7658 35.5536 31.9348L35.069 32.5714ZM37.4895 35.4009L36.7901 35.7894C37.3361 36.7722 37.627 37.979 37.627 39.4407H38.427H39.227C39.227 37.7661 38.8928 36.2796 38.1888 35.0124L37.4895 35.4009ZM38.427 39.4407H37.627C37.627 41.272 37.1559 42.8709 36.2272 44.264L36.8929 44.7077L37.5585 45.1515C38.6753 43.4764 39.227 41.5639 39.227 39.4407H38.427ZM36.8929 44.7077L36.225 44.2674C35.3082 45.658 33.9619 46.7774 32.1445 47.6113L32.4781 48.3385L32.8117 49.0655C34.8579 48.1267 36.4548 46.8257 37.5608 45.1481L36.8929 44.7077ZM32.4781 48.3385L32.1429 47.612C30.3533 48.438 28.1502 48.868 25.5065 48.868V49.668V50.468C28.3173 50.468 30.762 50.0116 32.8134 49.0648L32.4781 48.3385ZM25.5065 49.668V48.868C22.9754 48.868 20.8275 48.4661 19.0412 47.6899L18.7224 48.4237L18.4035 49.1574C20.4354 50.0403 22.8103 50.468 25.5065 50.468V49.668ZM18.7224 48.4237L19.0412 47.6899C17.2502 46.9117 15.8777 45.8228 14.892 44.4326L14.2394 44.8952L13.5868 45.358C14.7602 47.0131 16.3764 48.2765 18.4035 49.1574L18.7224 48.4237ZM14.2394 44.8952L14.8937 44.4349C13.9107 43.0381 13.355 41.3688 13.2484 39.3975L12.4496 39.4407L11.6508 39.4839C11.7715 41.7171 12.409 43.6843 13.5852 45.3557L14.2394 44.8952ZM12.4496 39.4407V40.2407H17.7337V39.4407V38.6407H12.4496V39.4407ZM17.7337 39.4407L16.9364 39.5054C17.0501 40.9087 17.5118 42.1259 18.3519 43.1127L18.961 42.5941L19.5701 42.0755C18.9785 41.3805 18.6219 40.4954 18.5311 39.3761L17.7337 39.4407ZM18.961 42.5941L18.3594 43.1215C19.1829 44.0608 20.2256 44.7528 21.466 45.2039L21.7394 44.4521L22.0128 43.7002C21.0033 43.3331 20.1936 42.7865 19.5626 42.0667L18.961 42.5941ZM21.7394 44.4521L21.4751 45.2072C22.7062 45.638 24.0411 45.8486 25.4724 45.8486V45.0487V44.2487C24.1991 44.2487 23.0453 44.0615 22.0037 43.697L21.7394 44.4521ZM25.4724 45.0487V45.8486C27.0441 45.8486 28.4721 45.6026 29.7424 45.0921L29.444 44.3498L29.1456 43.6075C28.0977 44.0287 26.878 44.2487 25.4724 44.2487V45.0487ZM29.444 44.3498L29.746 45.0906C31.0209 44.5707 32.0612 43.8366 32.8309 42.8713L32.2054 42.3725L31.5798 41.8738C31.0086 42.5903 30.208 43.1743 29.1419 43.609L29.444 44.3498ZM32.2054 42.3725L32.8341 42.8672C33.6211 41.8667 34.011 40.6961 34.011 39.3896H33.211H32.4111C32.4111 40.3557 32.1306 41.1737 31.5766 41.8779L32.2054 42.3725ZM33.211 39.3896H34.011C34.011 38.1936 33.6646 37.1459 32.9203 36.3158L32.3247 36.8498L31.729 37.3838C32.1666 37.8719 32.4111 38.5173 32.4111 39.3896H33.211ZM32.3247 36.8498L32.9254 36.3215C32.2513 35.5548 31.3556 34.9467 30.2725 34.479L29.9554 35.2134L29.6382 35.9478C30.5551 36.3438 31.239 36.8266 31.7239 37.3781L32.3247 36.8498ZM29.9554 35.2134L30.2756 34.4803C29.2427 34.0291 28.0835 33.6358 26.8013 33.2978L26.5974 34.0714L26.3935 34.8449C27.6112 35.166 28.6907 35.534 29.6352 35.9465L29.9554 35.2134ZM26.5974 34.0714L26.8079 33.2995L22.6829 32.1745L22.4724 32.9464L22.2619 33.7182L26.3869 34.8432L26.5974 34.0714ZM22.4724 32.9464L22.6829 32.1745C19.9719 31.4362 17.8794 30.3656 16.3607 28.9946L15.8246 29.5884L15.2886 30.1822C17.0426 31.7658 19.382 32.9338 22.2619 33.7182L22.4724 32.9464ZM15.8246 29.5884L16.3628 28.9965C14.9235 27.688 14.1872 25.9581 14.1872 23.7247H13.3871H12.5871C12.5871 26.355 13.4758 28.5343 15.2865 30.1804L15.8246 29.5884ZM13.3871 23.7247H14.1872C14.1872 21.8674 14.6876 20.2798 15.6705 18.9282L15.0235 18.4577L14.3765 17.9871C13.1776 19.6356 12.5871 21.5594 12.5871 23.7247H13.3871ZM15.0235 18.4577L15.6705 18.9282C16.6708 17.5528 18.0321 16.4726 19.7807 15.6942L19.4553 14.9634L19.13 14.2325C17.1513 15.1133 15.558 16.3626 14.3765 17.9871L15.0235 18.4577ZM19.4553 14.9634L19.7844 15.6926C21.5306 14.9046 23.5183 14.502 25.7621 14.502V13.702V12.902C23.3242 12.902 21.1073 13.3403 19.1263 14.2341L19.4553 14.9634ZM25.7621 13.702V14.502C28.0321 14.502 29.9998 14.9001 31.684 15.6734L32.0179 14.9463L32.3517 14.2193C30.4222 13.3334 28.2196 12.902 25.7621 12.902V13.702ZM32.0179 14.9463L31.6858 15.6741C33.3922 16.4527 34.7087 17.5106 35.6637 18.8394L36.3133 18.3725L36.9629 17.9055C35.827 16.3252 34.2799 15.099 32.3499 14.2185L32.0179 14.9463ZM36.3133 18.3725L35.6655 18.8418C36.6108 20.1467 37.1082 21.647 37.1499 23.3691L37.9497 23.3497L38.7495 23.3303C38.7003 21.3025 38.1068 19.4846 36.9612 17.9031L36.3133 18.3725ZM37.9497 23.3497V22.5497H32.8701V23.3497V24.1498H37.9497V23.3497Z" fill="#5B81EC"/>
</g>
</g>
</g>
<defs>
<filter id="filter0_dddi_4324_51605" x="0" y="0" width="179" height="143" filterUnits="userSpaceOnUse" color-interpolation-filters="sRGB">
<feFlood flood-opacity="0" result="BackgroundImageFix"/>
<feColorMatrix in="SourceAlpha" type="matrix" values="0 0 0 0 0 0 0 0 0 0 0 0 0 0 0 0 0 0 127 0" result="hardAlpha"/>
<feOffset dx="2" dy="2"/>
<feGaussianBlur stdDeviation="2"/>
<feComposite in2="hardAlpha" operator="out"/>
<feColorMatrix type="matrix" values="0 0 0 0 0.498039 0 0 0 0 0.337255 0 0 0 0 0.85098 0 0 0 0.15 0"/>
<feBlend mode="normal" in2="BackgroundImageFix" result="effect1_dropShadow_4324_51605"/>
<feColorMatrix in="SourceAlpha" type="matrix" values="0 0 0 0 0 0 0 0 0 0 0 0 0 0 0 0 0 0 127 0" result="hardAlpha"/>
<feOffset dx="-4" dy="-4"/>
<feGaussianBlur stdDeviation="2"/>
<feComposite in2="hardAlpha" operator="out"/>
<feColorMatrix type="matrix" values="0 0 0 0 1 0 0 0 0 1 0 0 0 0 1 0 0 0 1 0"/>
<feBlend mode="normal" in2="effect1_dropShadow_4324_51605" result="effect2_dropShadow_4324_51605"/>
<feColorMatrix in="SourceAlpha" type="matrix" values="0 0 0 0 0 0 0 0 0 0 0 0 0 0 0 0 0 0 127 0" result="hardAlpha"/>
<feOffset dx="4" dy="4"/>
<feGaussianBlur stdDeviation="2"/>
<feComposite in2="hardAlpha" operator="out"/>
<feColorMatrix type="matrix" values="0 0 0 0 0.498039 0 0 0 0 0.337255 0 0 0 0 0.85098 0 0 0 0.15 0"/>
<feBlend mode="normal" in2="effect2_dropShadow_4324_51605" result="effect3_dropShadow_4324_51605"/>
<feBlend mode="normal" in="SourceGraphic" in2="effect3_dropShadow_4324_51605" result="shape"/>
<feColorMatrix in="SourceAlpha" type="matrix" values="0 0 0 0 0 0 0 0 0 0 0 0 0 0 0 0 0 0 127 0" result="hardAlpha"/>
<feOffset dx="-2" dy="-2"/>
<feGaussianBlur stdDeviation="2"/>
<feComposite in2="hardAlpha" operator="arithmetic" k2="-1" k3="1"/>
<feColorMatrix type="matrix" values="0 0 0 0 1 0 0 0 0 1 0 0 0 0 1 0 0 0 1 0"/>
<feBlend mode="normal" in2="shape" result="effect4_innerShadow_4324_51605"/>
</filter>
<linearGradient id="paint0_linear_4324_51605" x1="89.5" y1="8" x2="89.5" y2="135" gradientUnits="userSpaceOnUse">
<stop stop-color="#DFEDFB"/>
<stop offset="1" stop-color="#CFE2F7"/>
</linearGradient>
<clipPath id="clip0_4324_51605">
<path d="M8 24C8 15.1634 15.1634 8 24 8H62V66H8V24Z" fill="white"/>
</clipPath>
</defs>
</svg>
