<svg width="94" height="24" viewBox="0 0 94 24" fill="none" xmlns="http://www.w3.org/2000/svg">
<g filter="url(#filter0_d_4429_25187)">
<rect width="94" height="22" rx="11" fill="url(#paint0_linear_4429_25187)" shape-rendering="crispEdges"/>
<rect x="1.2" y="1.2" width="91.6" height="19.6" rx="9.8" stroke="black" stroke-opacity="0.24" stroke-width="2.4" shape-rendering="crispEdges"/>
<path d="M13.1789 6.06029C13.1133 6.0273 13.0805 6.0108 13.0461 6.00431C13.0156 5.99856 12.9844 5.99856 12.9539 6.00431C12.9195 6.0108 12.8867 6.0273 12.8211 6.06029L8 8.48516L12.8211 10.91C12.8867 10.943 12.9195 10.9595 12.9539 10.966C12.9844 10.9718 13.0156 10.9718 13.0461 10.966C13.0805 10.9595 13.1133 10.943 13.1789 10.91L18 8.48516L13.1789 6.06029Z" fill="white"/>
<path d="M8 11L12.8211 13.4249C12.8867 13.4579 12.9195 13.4744 12.9539 13.4808C12.9844 13.4866 13.0156 13.4866 13.0461 13.4808C13.0805 13.4744 13.1133 13.4579 13.1789 13.4249C15.0616 12.4779 16.1172 11.947 18 11M8 13.5148L12.8211 15.9397C12.8867 15.9727 12.9195 15.9892 12.9539 15.9957C12.9844 16.0014 13.0156 16.0014 13.0461 15.9957C13.0805 15.9892 13.1133 15.9727 13.1789 15.9397L18 13.5148M8 8.48516L12.8211 6.06029C12.8867 6.0273 12.9195 6.0108 12.9539 6.00431C12.9844 5.99856 13.0156 5.99856 13.0461 6.00431C13.0805 6.0108 13.1133 6.0273 13.1789 6.06029L18 8.48516L13.1789 10.91C13.1133 10.943 13.0805 10.9595 13.0461 10.966C13.0156 10.9718 12.9844 10.9718 12.9539 10.966C12.9195 10.9595 12.8867 10.943 12.8211 10.91L8 8.48516Z" stroke="black" stroke-opacity="0.35" stroke-linecap="round" stroke-linejoin="round"/>
<mask id="path-5-outside-1_4429_25187" maskUnits="userSpaceOnUse" x="23" y="6.5" width="63" height="11" fill="black">
<rect fill="white" x="23" y="6.5" width="63" height="11"/>
<path d="M26.585 15.5V9.428H24.22V7.8H30.93V9.428H28.565V15.5H26.585ZM31.9243 15.5V7.8H35.2793C35.9246 7.8 36.46 7.90633 36.8853 8.119C37.318 8.33167 37.6443 8.62867 37.8643 9.01C38.0843 9.39133 38.1943 9.846 38.1943 10.374C38.1943 10.924 38.0623 11.397 37.7983 11.793C37.5416 12.1817 37.153 12.4677 36.6323 12.651L38.4143 15.5H36.2143L34.7183 12.86H33.9043V15.5H31.9243ZM33.9043 11.32H34.8393C35.3673 11.32 35.7266 11.243 35.9173 11.089C36.1153 10.9277 36.2143 10.6893 36.2143 10.374C36.2143 10.0587 36.1153 9.824 35.9173 9.67C35.7266 9.50867 35.3673 9.428 34.8393 9.428H33.9043V11.32ZM38.9554 15.5L41.7714 7.8H43.7514L46.5564 15.5H44.4664L43.9384 14.026H41.3644L40.8364 15.5H38.9554ZM41.9254 12.508H43.3774L42.6514 10.22L41.9254 12.508ZM47.436 15.5V7.8H49.185L52.166 12.09V7.8H54.256V15.5H52.386L49.416 11.21V15.5H47.436ZM59.0934 15.643C58.3894 15.643 57.7661 15.5147 57.2234 15.258C56.6881 14.994 56.2701 14.5723 55.9694 13.993C55.6688 13.4137 55.5184 12.6473 55.5184 11.694V11.485C55.5184 10.8103 55.6101 10.231 55.7934 9.747C55.9768 9.263 56.2298 8.867 56.5524 8.559C56.8824 8.251 57.2638 8.02367 57.6964 7.877C58.1291 7.73033 58.5948 7.657 59.0934 7.657C59.5408 7.657 59.9624 7.70833 60.3584 7.811C60.7544 7.91367 61.0991 8.075 61.3924 8.295C61.6931 8.515 61.9351 8.801 62.1184 9.153C62.3018 9.505 62.4118 9.934 62.4484 10.44H60.3914C60.3254 10.0367 60.1714 9.747 59.9294 9.571C59.6874 9.395 59.4088 9.307 59.0934 9.307C58.8001 9.307 58.5361 9.38033 58.3014 9.527C58.0741 9.66633 57.8944 9.89367 57.7624 10.209C57.6304 10.5243 57.5644 10.9497 57.5644 11.485V11.716C57.5644 12.1413 57.6048 12.5007 57.6854 12.794C57.7661 13.0873 57.8761 13.322 58.0154 13.498C58.1621 13.674 58.3271 13.8023 58.5104 13.883C58.6938 13.9563 58.8881 13.993 59.0934 13.993C59.4674 13.993 59.7644 13.905 59.9844 13.729C60.2118 13.5457 60.3474 13.256 60.3914 12.86H62.4484C62.4191 13.3733 62.3128 13.8097 62.1294 14.169C61.9534 14.521 61.7151 14.807 61.4144 15.027C61.1211 15.2397 60.7764 15.3973 60.3804 15.5C59.9844 15.5953 59.5554 15.643 59.0934 15.643ZM63.603 15.5V7.8H65.583V10.726H68.443V7.8H70.423V15.5H68.443V12.354H65.583V15.5H63.603ZM71.9604 15.5V7.8H77.5704V9.318H73.9404V10.825H77.2404V12.255H73.9404V13.982H77.5704V15.5H71.9604ZM81.7397 15.643C81.021 15.643 80.4234 15.5477 79.9467 15.357C79.47 15.1663 79.1107 14.8987 78.8687 14.554C78.634 14.202 78.5094 13.784 78.4947 13.3H80.4747C80.5334 13.5787 80.6617 13.784 80.8597 13.916C81.0577 14.0407 81.351 14.103 81.7397 14.103C82.1577 14.103 82.4694 14.0443 82.6747 13.927C82.8874 13.8097 82.9937 13.63 82.9937 13.388C82.9937 13.19 82.924 13.0323 82.7847 12.915C82.6527 12.7977 82.4474 12.6987 82.1687 12.618C81.89 12.5373 81.5564 12.453 81.1677 12.365C80.6617 12.2477 80.2254 12.0973 79.8587 11.914C79.492 11.7233 79.2097 11.4703 79.0117 11.155C78.8137 10.8397 78.7147 10.4327 78.7147 9.934C78.7147 9.45 78.8357 9.03933 79.0777 8.702C79.327 8.36467 79.679 8.108 80.1337 7.932C80.5884 7.74867 81.1237 7.657 81.7397 7.657C82.4144 7.657 82.9717 7.745 83.4117 7.921C83.859 8.097 84.1964 8.35 84.4237 8.68C84.6584 9.01 84.7904 9.41333 84.8197 9.89H82.8397C82.7957 9.65533 82.6894 9.483 82.5207 9.373C82.352 9.25567 82.0917 9.197 81.7397 9.197C81.351 9.197 81.0797 9.25933 80.9257 9.384C80.7717 9.50867 80.6947 9.67 80.6947 9.868C80.6947 10.1393 80.834 10.3373 81.1127 10.462C81.3987 10.5867 81.8094 10.7003 82.3447 10.803C82.7407 10.8837 83.1 10.9827 83.4227 11.1C83.7527 11.2173 84.0314 11.3677 84.2587 11.551C84.4934 11.7343 84.673 11.9617 84.7977 12.233C84.9224 12.497 84.9847 12.8233 84.9847 13.212C84.9847 13.718 84.8564 14.1543 84.5997 14.521C84.343 14.8803 83.9727 15.159 83.4887 15.357C83.0047 15.5477 82.4217 15.643 81.7397 15.643Z"/>
</mask>
<path d="M26.585 15.5V9.428H24.22V7.8H30.93V9.428H28.565V15.5H26.585ZM31.9243 15.5V7.8H35.2793C35.9246 7.8 36.46 7.90633 36.8853 8.119C37.318 8.33167 37.6443 8.62867 37.8643 9.01C38.0843 9.39133 38.1943 9.846 38.1943 10.374C38.1943 10.924 38.0623 11.397 37.7983 11.793C37.5416 12.1817 37.153 12.4677 36.6323 12.651L38.4143 15.5H36.2143L34.7183 12.86H33.9043V15.5H31.9243ZM33.9043 11.32H34.8393C35.3673 11.32 35.7266 11.243 35.9173 11.089C36.1153 10.9277 36.2143 10.6893 36.2143 10.374C36.2143 10.0587 36.1153 9.824 35.9173 9.67C35.7266 9.50867 35.3673 9.428 34.8393 9.428H33.9043V11.32ZM38.9554 15.5L41.7714 7.8H43.7514L46.5564 15.5H44.4664L43.9384 14.026H41.3644L40.8364 15.5H38.9554ZM41.9254 12.508H43.3774L42.6514 10.22L41.9254 12.508ZM47.436 15.5V7.8H49.185L52.166 12.09V7.8H54.256V15.5H52.386L49.416 11.21V15.5H47.436ZM59.0934 15.643C58.3894 15.643 57.7661 15.5147 57.2234 15.258C56.6881 14.994 56.2701 14.5723 55.9694 13.993C55.6688 13.4137 55.5184 12.6473 55.5184 11.694V11.485C55.5184 10.8103 55.6101 10.231 55.7934 9.747C55.9768 9.263 56.2298 8.867 56.5524 8.559C56.8824 8.251 57.2638 8.02367 57.6964 7.877C58.1291 7.73033 58.5948 7.657 59.0934 7.657C59.5408 7.657 59.9624 7.70833 60.3584 7.811C60.7544 7.91367 61.0991 8.075 61.3924 8.295C61.6931 8.515 61.9351 8.801 62.1184 9.153C62.3018 9.505 62.4118 9.934 62.4484 10.44H60.3914C60.3254 10.0367 60.1714 9.747 59.9294 9.571C59.6874 9.395 59.4088 9.307 59.0934 9.307C58.8001 9.307 58.5361 9.38033 58.3014 9.527C58.0741 9.66633 57.8944 9.89367 57.7624 10.209C57.6304 10.5243 57.5644 10.9497 57.5644 11.485V11.716C57.5644 12.1413 57.6048 12.5007 57.6854 12.794C57.7661 13.0873 57.8761 13.322 58.0154 13.498C58.1621 13.674 58.3271 13.8023 58.5104 13.883C58.6938 13.9563 58.8881 13.993 59.0934 13.993C59.4674 13.993 59.7644 13.905 59.9844 13.729C60.2118 13.5457 60.3474 13.256 60.3914 12.86H62.4484C62.4191 13.3733 62.3128 13.8097 62.1294 14.169C61.9534 14.521 61.7151 14.807 61.4144 15.027C61.1211 15.2397 60.7764 15.3973 60.3804 15.5C59.9844 15.5953 59.5554 15.643 59.0934 15.643ZM63.603 15.5V7.8H65.583V10.726H68.443V7.8H70.423V15.5H68.443V12.354H65.583V15.5H63.603ZM71.9604 15.5V7.8H77.5704V9.318H73.9404V10.825H77.2404V12.255H73.9404V13.982H77.5704V15.5H71.9604ZM81.7397 15.643C81.021 15.643 80.4234 15.5477 79.9467 15.357C79.47 15.1663 79.1107 14.8987 78.8687 14.554C78.634 14.202 78.5094 13.784 78.4947 13.3H80.4747C80.5334 13.5787 80.6617 13.784 80.8597 13.916C81.0577 14.0407 81.351 14.103 81.7397 14.103C82.1577 14.103 82.4694 14.0443 82.6747 13.927C82.8874 13.8097 82.9937 13.63 82.9937 13.388C82.9937 13.19 82.924 13.0323 82.7847 12.915C82.6527 12.7977 82.4474 12.6987 82.1687 12.618C81.89 12.5373 81.5564 12.453 81.1677 12.365C80.6617 12.2477 80.2254 12.0973 79.8587 11.914C79.492 11.7233 79.2097 11.4703 79.0117 11.155C78.8137 10.8397 78.7147 10.4327 78.7147 9.934C78.7147 9.45 78.8357 9.03933 79.0777 8.702C79.327 8.36467 79.679 8.108 80.1337 7.932C80.5884 7.74867 81.1237 7.657 81.7397 7.657C82.4144 7.657 82.9717 7.745 83.4117 7.921C83.859 8.097 84.1964 8.35 84.4237 8.68C84.6584 9.01 84.7904 9.41333 84.8197 9.89H82.8397C82.7957 9.65533 82.6894 9.483 82.5207 9.373C82.352 9.25567 82.0917 9.197 81.7397 9.197C81.351 9.197 81.0797 9.25933 80.9257 9.384C80.7717 9.50867 80.6947 9.67 80.6947 9.868C80.6947 10.1393 80.834 10.3373 81.1127 10.462C81.3987 10.5867 81.8094 10.7003 82.3447 10.803C82.7407 10.8837 83.1 10.9827 83.4227 11.1C83.7527 11.2173 84.0314 11.3677 84.2587 11.551C84.4934 11.7343 84.673 11.9617 84.7977 12.233C84.9224 12.497 84.9847 12.8233 84.9847 13.212C84.9847 13.718 84.8564 14.1543 84.5997 14.521C84.343 14.8803 83.9727 15.159 83.4887 15.357C83.0047 15.5477 82.4217 15.643 81.7397 15.643Z" fill="white" fill-opacity="0.85"/>
<path d="M26.585 15.5H25.585V16.5H26.585V15.5ZM26.585 9.428H27.585V8.428H26.585V9.428ZM24.22 9.428H23.22V10.428H24.22V9.428ZM24.22 7.8V6.8H23.22V7.8H24.22ZM30.93 7.8H31.93V6.8H30.93V7.8ZM30.93 9.428V10.428H31.93V9.428H30.93ZM28.565 9.428V8.428H27.565V9.428H28.565ZM28.565 15.5V16.5H29.565V15.5H28.565ZM26.585 15.5H27.585V9.428H26.585H25.585V15.5H26.585ZM26.585 9.428V8.428H24.22V9.428V10.428H26.585V9.428ZM24.22 9.428H25.22V7.8H24.22H23.22V9.428H24.22ZM24.22 7.8V8.8H30.93V7.8V6.8H24.22V7.8ZM30.93 7.8H29.93V9.428H30.93H31.93V7.8H30.93ZM30.93 9.428V8.428H28.565V9.428V10.428H30.93V9.428ZM28.565 9.428H27.565V15.5H28.565H29.565V9.428H28.565ZM28.565 15.5V14.5H26.585V15.5V16.5H28.565V15.5ZM31.9243 15.5H30.9243V16.5H31.9243V15.5ZM31.9243 7.8V6.8H30.9243V7.8H31.9243ZM36.8853 8.119L36.4381 9.01345L36.4442 9.01645L36.8853 8.119ZM37.8643 9.01L36.9981 9.50972V9.50972L37.8643 9.01ZM37.7983 11.793L36.9662 11.2383L36.9638 11.2419L37.7983 11.793ZM36.6323 12.651L36.3002 11.7078L35.1222 12.1225L35.7845 13.1813L36.6323 12.651ZM38.4143 15.5V16.5H40.2193L39.2621 14.9697L38.4143 15.5ZM36.2143 15.5L35.3443 15.993L35.6316 16.5H36.2143V15.5ZM34.7183 12.86L35.5883 12.367L35.301 11.86H34.7183V12.86ZM33.9043 12.86V11.86H32.9043V12.86H33.9043ZM33.9043 15.5V16.5H34.9043V15.5H33.9043ZM33.9043 11.32H32.9043V12.32H33.9043V11.32ZM35.9173 11.089L36.5456 11.8669L36.549 11.8642L35.9173 11.089ZM35.9173 9.67L35.2714 10.4334L35.2871 10.4467L35.3034 10.4594L35.9173 9.67ZM33.9043 9.428V8.428H32.9043V9.428H33.9043ZM31.9243 15.5H32.9243V7.8H31.9243H30.9243V15.5H31.9243ZM31.9243 7.8V8.8H35.2793V7.8V6.8H31.9243V7.8ZM35.2793 7.8V8.8C35.8221 8.8 36.1921 8.89043 36.4381 9.01343L36.8853 8.119L37.3325 7.22457C36.7278 6.92224 36.0272 6.8 35.2793 6.8V7.8ZM36.8853 8.119L36.4442 9.01645C36.7165 9.15031 36.8866 9.31647 36.9981 9.50972L37.8643 9.01L38.7305 8.51028C38.402 7.94086 37.9194 7.51303 37.3264 7.22155L36.8853 8.119ZM37.8643 9.01L36.9981 9.50972C37.1145 9.71141 37.1943 9.98642 37.1943 10.374H38.1943H39.1943C39.1943 9.70558 39.0541 9.07126 38.7305 8.51028L37.8643 9.01ZM38.1943 10.374H37.1943C37.1943 10.7581 37.1045 11.031 36.9662 11.2383L37.7983 11.793L38.6303 12.3477C39.0201 11.763 39.1943 11.0899 39.1943 10.374H38.1943ZM37.7983 11.793L36.9638 11.2419C36.8485 11.4166 36.6545 11.583 36.3002 11.7078L36.6323 12.651L36.9644 13.5942C37.6514 13.3523 38.2348 12.9467 38.6328 12.3441L37.7983 11.793ZM36.6323 12.651L35.7845 13.1813L37.5665 16.0303L38.4143 15.5L39.2621 14.9697L37.4801 12.1207L36.6323 12.651ZM38.4143 15.5V14.5H36.2143V15.5V16.5H38.4143V15.5ZM36.2143 15.5L37.0843 15.007L35.5883 12.367L34.7183 12.86L33.8483 13.353L35.3443 15.993L36.2143 15.5ZM34.7183 12.86V11.86H33.9043V12.86V13.86H34.7183V12.86ZM33.9043 12.86H32.9043V15.5H33.9043H34.9043V12.86H33.9043ZM33.9043 15.5V14.5H31.9243V15.5V16.5H33.9043V15.5ZM33.9043 11.32V12.32H34.8393V11.32V10.32H33.9043V11.32ZM34.8393 11.32V12.32C35.146 12.32 35.4431 12.2982 35.7143 12.2401C35.9772 12.1837 36.2826 12.0794 36.5456 11.8669L35.9173 11.089L35.289 10.3111C35.3613 10.2526 35.3918 10.2638 35.2953 10.2844C35.2071 10.3033 35.0606 10.32 34.8393 10.32V11.32ZM35.9173 11.089L36.549 11.8642C37.0341 11.469 37.2143 10.9126 37.2143 10.374H36.2143H35.2143C35.2143 10.4284 35.2057 10.4318 35.2166 10.4056C35.2221 10.3924 35.2311 10.3752 35.2446 10.3571C35.2581 10.3389 35.2726 10.3244 35.2856 10.3138L35.9173 11.089ZM36.2143 10.374H37.2143C37.2143 9.83734 37.0343 9.27191 36.5312 8.88065L35.9173 9.67L35.3034 10.4594C35.2868 10.4465 35.269 10.4292 35.2527 10.4078C35.2364 10.3865 35.2254 10.3662 35.2187 10.3502C35.2055 10.319 35.2143 10.319 35.2143 10.374H36.2143ZM35.9173 9.67L36.5632 8.90661C36.3002 8.68408 35.9918 8.57294 35.7238 8.51278C35.4487 8.45102 35.1481 8.428 34.8393 8.428V9.428V10.428C35.0585 10.428 35.2015 10.4453 35.2858 10.4642C35.3771 10.4847 35.3437 10.4946 35.2714 10.4334L35.9173 9.67ZM34.8393 9.428V8.428H33.9043V9.428V10.428H34.8393V9.428ZM33.9043 9.428H32.9043V11.32H33.9043H34.9043V9.428H33.9043ZM38.9554 15.5L38.0163 15.1565L37.525 16.5H38.9554V15.5ZM41.7714 7.8V6.8H41.0724L40.8323 7.45653L41.7714 7.8ZM43.7514 7.8L44.691 7.45772L44.4514 6.8H43.7514V7.8ZM46.5564 15.5V16.5H47.985L47.496 15.1577L46.5564 15.5ZM44.4664 15.5L43.525 15.8372L43.7624 16.5H44.4664V15.5ZM43.9384 14.026L44.8799 13.6888L44.6425 13.026H43.9384V14.026ZM41.3644 14.026V13.026H40.6604L40.423 13.6888L41.3644 14.026ZM40.8364 15.5V16.5H41.5405L41.7779 15.8372L40.8364 15.5ZM41.9254 12.508L40.9723 12.2056L40.559 13.508H41.9254V12.508ZM43.3774 12.508V13.508H44.7439L44.3306 12.2056L43.3774 12.508ZM42.6514 10.22L43.6046 9.91755L42.6514 6.91364L41.6983 9.91755L42.6514 10.22ZM38.9554 15.5L39.8946 15.8435L42.7106 8.14347L41.7714 7.8L40.8323 7.45653L38.0163 15.1565L38.9554 15.5ZM41.7714 7.8V8.8H43.7514V7.8V6.8H41.7714V7.8ZM43.7514 7.8L42.8118 8.14228L45.6168 15.8423L46.5564 15.5L47.496 15.1577L44.691 7.45772L43.7514 7.8ZM46.5564 15.5V14.5H44.4664V15.5V16.5H46.5564V15.5ZM44.4664 15.5L45.4079 15.1628L44.8799 13.6888L43.9384 14.026L42.997 14.3632L43.525 15.8372L44.4664 15.5ZM43.9384 14.026V13.026H41.3644V14.026V15.026H43.9384V14.026ZM41.3644 14.026L40.423 13.6888L39.895 15.1628L40.8364 15.5L41.7779 15.8372L42.3059 14.3632L41.3644 14.026ZM40.8364 15.5V14.5H38.9554V15.5V16.5H40.8364V15.5ZM41.9254 12.508V13.508H43.3774V12.508V11.508H41.9254V12.508ZM43.3774 12.508L44.3306 12.2056L43.6046 9.91755L42.6514 10.22L41.6983 10.5224L42.4243 12.8104L43.3774 12.508ZM42.6514 10.22L41.6983 9.91755L40.9723 12.2056L41.9254 12.508L42.8786 12.8104L43.6046 10.5224L42.6514 10.22ZM47.436 15.5H46.436V16.5H47.436V15.5ZM47.436 7.8V6.8H46.436V7.8H47.436ZM49.185 7.8L50.0062 7.22937L49.7079 6.8H49.185V7.8ZM52.166 12.09L51.3448 12.6606L53.166 15.2816V12.09H52.166ZM52.166 7.8V6.8H51.166V7.8H52.166ZM54.256 7.8H55.256V6.8H54.256V7.8ZM54.256 15.5V16.5H55.256V15.5H54.256ZM52.386 15.5L51.5638 16.0692L51.8621 16.5H52.386V15.5ZM49.416 11.21L50.2382 10.6408L48.416 8.00873V11.21H49.416ZM49.416 15.5V16.5H50.416V15.5H49.416ZM47.436 15.5H48.436V7.8H47.436H46.436V15.5H47.436ZM47.436 7.8V8.8H49.185V7.8V6.8H47.436V7.8ZM49.185 7.8L48.3638 8.37063L51.3448 12.6606L52.166 12.09L52.9872 11.5194L50.0062 7.22937L49.185 7.8ZM52.166 12.09H53.166V7.8H52.166H51.166V12.09H52.166ZM52.166 7.8V8.8H54.256V7.8V6.8H52.166V7.8ZM54.256 7.8H53.256V15.5H54.256H55.256V7.8H54.256ZM54.256 15.5V14.5H52.386V15.5V16.5H54.256V15.5ZM52.386 15.5L53.2082 14.9308L50.2382 10.6408L49.416 11.21L48.5938 11.7792L51.5638 16.0692L52.386 15.5ZM49.416 11.21H48.416V15.5H49.416H50.416V11.21H49.416ZM49.416 15.5V14.5H47.436V15.5V16.5H49.416V15.5ZM57.2234 15.258L56.7811 16.1549L56.7885 16.1585L56.7959 16.162L57.2234 15.258ZM55.9694 13.993L56.857 13.5324V13.5324L55.9694 13.993ZM55.7934 9.747L56.7286 10.1012V10.1012L55.7934 9.747ZM56.5524 8.559L55.8701 7.8279L55.862 7.83564L56.5524 8.559ZM57.6964 7.877L58.0175 8.82407H58.0175L57.6964 7.877ZM60.3584 7.811L60.1075 8.779V8.779L60.3584 7.811ZM61.3924 8.295L60.7924 9.09506L60.8019 9.10203L61.3924 8.295ZM62.1184 9.153L63.0054 8.69107V8.69106L62.1184 9.153ZM62.4484 10.44V11.44H63.5235L63.4458 10.3677L62.4484 10.44ZM60.3914 10.44L59.4046 10.6015L59.5418 11.44H60.3914V10.44ZM59.9294 9.571L59.3413 10.3797V10.3797L59.9294 9.571ZM58.3014 9.527L58.824 10.3796L58.8314 10.375L58.3014 9.527ZM57.7624 10.209L56.84 9.82286L57.7624 10.209ZM57.6854 12.794L56.7212 13.0592V13.0592L57.6854 12.794ZM58.0154 13.498L57.2314 14.1187L57.2392 14.1285L57.2472 14.1382L58.0154 13.498ZM58.5104 13.883L58.1077 14.7983L58.1233 14.8052L58.139 14.8115L58.5104 13.883ZM59.9844 13.729L60.6091 14.5099L60.6122 14.5074L59.9844 13.729ZM60.3914 12.86V11.86H59.4964L59.3976 12.7496L60.3914 12.86ZM62.4484 12.86L63.4468 12.917L63.5072 11.86H62.4484V12.86ZM62.1294 14.169L61.2386 13.7145L61.235 13.7218L62.1294 14.169ZM61.4144 15.027L62.0014 15.8366L62.0049 15.834L61.4144 15.027ZM60.3804 15.5L60.6145 16.4722L60.623 16.4702L60.6314 16.468L60.3804 15.5ZM59.0934 15.643V14.643C58.5119 14.643 58.0388 14.5374 57.651 14.354L57.2234 15.258L56.7959 16.162C57.4934 16.4919 58.2669 16.643 59.0934 16.643V15.643ZM57.2234 15.258L57.6657 14.3611C57.3395 14.2003 57.0692 13.9412 56.857 13.5324L55.9694 13.993L55.0819 14.4536C55.471 15.2035 56.0367 15.7877 56.7811 16.1549L57.2234 15.258ZM55.9694 13.993L56.857 13.5324C56.6564 13.1457 56.5184 12.5555 56.5184 11.694H55.5184H54.5184C54.5184 12.7392 54.6812 13.6816 55.0819 14.4536L55.9694 13.993ZM55.5184 11.694H56.5184V11.485H55.5184H54.5184V11.694H55.5184ZM55.5184 11.485H56.5184C56.5184 10.8965 56.5989 10.4435 56.7286 10.1012L55.7934 9.747L54.8583 9.39277C54.6213 10.0185 54.5184 10.7241 54.5184 11.485H55.5184ZM55.7934 9.747L56.7286 10.1012C56.8674 9.73468 57.0444 9.47183 57.2429 9.28236L56.5524 8.559L55.862 7.83564C55.4151 8.26216 55.0861 8.79132 54.8583 9.39277L55.7934 9.747ZM56.5524 8.559L57.2348 9.29005C57.4597 9.08007 57.7175 8.92574 58.0175 8.82407L57.6964 7.877L57.3754 6.92993C56.81 7.12159 56.3051 7.42193 55.8701 7.82794L56.5524 8.559ZM57.6964 7.877L58.0175 8.82407C58.3377 8.71551 58.694 8.657 59.0934 8.657V7.657V6.657C58.4955 6.657 57.9205 6.74515 57.3754 6.92993L57.6964 7.877ZM59.0934 7.657V8.657C59.4639 8.657 59.8007 8.69946 60.1075 8.779L60.3584 7.811L60.6094 6.843C60.1242 6.71721 59.6176 6.657 59.0934 6.657V7.657ZM60.3584 7.811L60.1075 8.779C60.3919 8.85273 60.6148 8.96178 60.7924 9.095L61.3924 8.295L61.9924 7.495C61.5834 7.18822 61.117 6.9746 60.6094 6.843L60.3584 7.811ZM61.3924 8.295L60.8019 9.10203C60.9706 9.22542 61.1144 9.3901 61.2315 9.61493L62.1184 9.153L63.0054 8.69106C62.7558 8.2119 62.4156 7.80458 61.9829 7.48797L61.3924 8.295ZM62.1184 9.153L61.2315 9.61493C61.3369 9.81731 61.4216 10.106 61.4511 10.5123L62.4484 10.44L63.4458 10.3677C63.4019 9.76205 63.2666 9.19269 63.0054 8.69107L62.1184 9.153ZM62.4484 10.44V9.44H60.3914V10.44V11.44H62.4484V10.44ZM60.3914 10.44L61.3783 10.2785C61.2857 9.71254 61.0408 9.14273 60.5176 8.76226L59.9294 9.571L59.3413 10.3797C59.3281 10.3701 59.3307 10.3658 59.3435 10.3897C59.3585 10.4179 59.385 10.4821 59.4046 10.6015L60.3914 10.44ZM59.9294 9.571L60.5176 8.76226C60.0952 8.45502 59.608 8.307 59.0934 8.307V9.307V10.307C59.2095 10.307 59.2797 10.335 59.3413 10.3797L59.9294 9.571ZM59.0934 9.307V8.307C58.6244 8.307 58.1747 8.42695 57.7714 8.679L58.3014 9.527L58.8314 10.375C58.8975 10.3337 58.9758 10.307 59.0934 10.307V9.307ZM58.3014 9.527L57.7789 8.6744C57.3279 8.95079 57.0301 9.36864 56.84 9.82286L57.7624 10.209L58.6849 10.5951C58.7587 10.4187 58.8203 10.3819 58.824 10.3796L58.3014 9.527ZM57.7624 10.209L56.84 9.82286C56.6361 10.3099 56.5644 10.8839 56.5644 11.485H57.5644H58.5644C58.5644 11.0154 58.6248 10.7388 58.6849 10.5951L57.7624 10.209ZM57.5644 11.485H56.5644V11.716H57.5644H58.5644V11.485H57.5644ZM57.5644 11.716H56.5644C56.5644 12.1983 56.6095 12.6528 56.7212 13.0592L57.6854 12.794L58.6496 12.5288C58.6001 12.3485 58.5644 12.0844 58.5644 11.716H57.5644ZM57.6854 12.794L56.7212 13.0592C56.8256 13.4386 56.9848 13.8072 57.2314 14.1187L58.0154 13.498L58.7995 12.8773C58.7674 12.8368 58.7066 12.736 58.6496 12.5288L57.6854 12.794ZM58.0154 13.498L57.2472 14.1382C57.4785 14.4158 57.7638 14.647 58.1077 14.7983L58.5104 13.883L58.9132 12.9677C58.8904 12.9577 58.8457 12.9322 58.7837 12.8578L58.0154 13.498ZM58.5104 13.883L58.139 14.8115C58.4452 14.9339 58.766 14.993 59.0934 14.993V13.993V12.993C59.0102 12.993 58.9423 12.9787 58.8818 12.9545L58.5104 13.883ZM59.0934 13.993V14.993C59.62 14.993 60.1613 14.8682 60.6091 14.5099L59.9844 13.729L59.3597 12.9481C59.3591 12.9486 59.3565 12.9507 59.3502 12.9539C59.3438 12.9572 59.3319 12.9625 59.3126 12.9682C59.2731 12.9799 59.2035 12.993 59.0934 12.993V13.993ZM59.9844 13.729L60.6122 14.5074C61.1105 14.1055 61.323 13.5309 61.3853 12.9704L60.3914 12.86L59.3976 12.7496C59.3848 12.8645 59.3628 12.9252 59.3511 12.9501C59.3415 12.9706 59.3411 12.9632 59.3567 12.9506L59.9844 13.729ZM60.3914 12.86V13.86H62.4484V12.86V11.86H60.3914V12.86ZM62.4484 12.86L61.4501 12.8029C61.4266 13.2144 61.3442 13.5077 61.2387 13.7145L62.1294 14.169L63.0202 14.6235C63.2814 14.1116 63.4117 13.5323 63.4468 12.917L62.4484 12.86ZM62.1294 14.169L61.235 13.7218C61.1261 13.9396 60.9888 14.0993 60.8239 14.22L61.4144 15.027L62.0049 15.834C62.4414 15.5147 62.7808 15.1024 63.0239 14.6162L62.1294 14.169ZM61.4144 15.027L60.8275 14.2174C60.6475 14.3479 60.4201 14.4567 60.1295 14.532L60.3804 15.5L60.6314 16.468C61.1328 16.338 61.5947 16.1314 62.0014 15.8366L61.4144 15.027ZM60.3804 15.5L60.1464 14.5278C59.8365 14.6024 59.4869 14.643 59.0934 14.643V15.643V16.643C59.6239 16.643 60.1324 16.5883 60.6145 16.4722L60.3804 15.5ZM63.603 15.5H62.603V16.5H63.603V15.5ZM63.603 7.8V6.8H62.603V7.8H63.603ZM65.583 7.8H66.583V6.8H65.583V7.8ZM65.583 10.726H64.583V11.726H65.583V10.726ZM68.443 10.726V11.726H69.443V10.726H68.443ZM68.443 7.8V6.8H67.443V7.8H68.443ZM70.423 7.8H71.423V6.8H70.423V7.8ZM70.423 15.5V16.5H71.423V15.5H70.423ZM68.443 15.5H67.443V16.5H68.443V15.5ZM68.443 12.354H69.443V11.354H68.443V12.354ZM65.583 12.354V11.354H64.583V12.354H65.583ZM65.583 15.5V16.5H66.583V15.5H65.583ZM63.603 15.5H64.603V7.8H63.603H62.603V15.5H63.603ZM63.603 7.8V8.8H65.583V7.8V6.8H63.603V7.8ZM65.583 7.8H64.583V10.726H65.583H66.583V7.8H65.583ZM65.583 10.726V11.726H68.443V10.726V9.726H65.583V10.726ZM68.443 10.726H69.443V7.8H68.443H67.443V10.726H68.443ZM68.443 7.8V8.8H70.423V7.8V6.8H68.443V7.8ZM70.423 7.8H69.423V15.5H70.423H71.423V7.8H70.423ZM70.423 15.5V14.5H68.443V15.5V16.5H70.423V15.5ZM68.443 15.5H69.443V12.354H68.443H67.443V15.5H68.443ZM68.443 12.354V11.354H65.583V12.354V13.354H68.443V12.354ZM65.583 12.354H64.583V15.5H65.583H66.583V12.354H65.583ZM65.583 15.5V14.5H63.603V15.5V16.5H65.583V15.5ZM71.9604 15.5H70.9604V16.5H71.9604V15.5ZM71.9604 7.8V6.8H70.9604V7.8H71.9604ZM77.5704 7.8H78.5704V6.8H77.5704V7.8ZM77.5704 9.318V10.318H78.5704V9.318H77.5704ZM73.9404 9.318V8.318H72.9404V9.318H73.9404ZM73.9404 10.825H72.9404V11.825H73.9404V10.825ZM77.2404 10.825H78.2404V9.825H77.2404V10.825ZM77.2404 12.255V13.255H78.2404V12.255H77.2404ZM73.9404 12.255V11.255H72.9404V12.255H73.9404ZM73.9404 13.982H72.9404V14.982H73.9404V13.982ZM77.5704 13.982H78.5704V12.982H77.5704V13.982ZM77.5704 15.5V16.5H78.5704V15.5H77.5704ZM71.9604 15.5H72.9604V7.8H71.9604H70.9604V15.5H71.9604ZM71.9604 7.8V8.8H77.5704V7.8V6.8H71.9604V7.8ZM77.5704 7.8H76.5704V9.318H77.5704H78.5704V7.8H77.5704ZM77.5704 9.318V8.318H73.9404V9.318V10.318H77.5704V9.318ZM73.9404 9.318H72.9404V10.825H73.9404H74.9404V9.318H73.9404ZM73.9404 10.825V11.825H77.2404V10.825V9.825H73.9404V10.825ZM77.2404 10.825H76.2404V12.255H77.2404H78.2404V10.825H77.2404ZM77.2404 12.255V11.255H73.9404V12.255V13.255H77.2404V12.255ZM73.9404 12.255H72.9404V13.982H73.9404H74.9404V12.255H73.9404ZM73.9404 13.982V14.982H77.5704V13.982V12.982H73.9404V13.982ZM77.5704 13.982H76.5704V15.5H77.5704H78.5704V13.982H77.5704ZM77.5704 15.5V14.5H71.9604V15.5V16.5H77.5704V15.5ZM79.9467 15.357L79.5753 16.2855V16.2855L79.9467 15.357ZM78.8687 14.554L78.0366 15.1087L78.0433 15.1187L78.0503 15.1286L78.8687 14.554ZM78.4947 13.3V12.3H77.4639L77.4951 13.3303L78.4947 13.3ZM80.4747 13.3L81.4532 13.094L81.2861 12.3H80.4747V13.3ZM80.8597 13.916L80.305 14.7481L80.3158 14.7553L80.3269 14.7622L80.8597 13.916ZM82.6747 13.927L82.1916 13.0514L82.1851 13.055L82.1786 13.0588L82.6747 13.927ZM82.7847 12.915L82.1203 13.6624L82.1303 13.6713L82.1406 13.6799L82.7847 12.915ZM82.1687 12.618L82.4467 11.6574V11.6574L82.1687 12.618ZM81.1677 12.365L80.9418 13.3392L80.9469 13.3403L81.1677 12.365ZM79.8587 11.914L79.3973 12.8012L79.4044 12.8049L79.4115 12.8084L79.8587 11.914ZM79.0117 11.155L78.1648 11.6868V11.6868L79.0117 11.155ZM79.0777 8.702L78.2735 8.10761L78.2693 8.11332L78.2651 8.11909L79.0777 8.702ZM80.1337 7.932L80.4947 8.86466L80.5077 8.85944L80.1337 7.932ZM83.4117 7.921L83.0403 8.84949L83.0456 8.85157L83.4117 7.921ZM84.4237 8.68L83.6002 9.24731L83.6044 9.25345L83.6087 9.25952L84.4237 8.68ZM84.8197 9.89V10.89H85.8831L85.8178 9.82858L84.8197 9.89ZM82.8397 9.89L81.8568 10.0743L82.0098 10.89H82.8397V9.89ZM82.5207 9.373L81.9496 10.1939L81.9619 10.2024L81.9744 10.2106L82.5207 9.373ZM80.9257 9.384L80.2965 8.60675V8.60675L80.9257 9.384ZM81.1127 10.462L80.7043 11.3749L80.7131 11.3787L81.1127 10.462ZM82.3447 10.803L82.5443 9.82306L82.533 9.8209L82.3447 10.803ZM83.4227 11.1L83.0809 12.0398L83.0877 12.0422L83.4227 11.1ZM84.2587 11.551L83.6309 12.3294L83.637 12.3343L83.643 12.339L84.2587 11.551ZM84.7977 12.233L83.889 12.6505L83.8934 12.66L84.7977 12.233ZM84.5997 14.521L85.4135 15.1023L85.4189 15.0945L84.5997 14.521ZM83.4887 15.357L83.8552 16.2875L83.8673 16.2825L83.4887 15.357ZM81.7397 15.643V14.643C81.1011 14.643 80.6396 14.5571 80.3181 14.4285L79.9467 15.357L79.5753 16.2855C80.2071 16.5382 80.941 16.643 81.7397 16.643V15.643ZM79.9467 15.357L80.3181 14.4285C79.9818 14.294 79.7953 14.1335 79.6871 13.9794L78.8687 14.554L78.0503 15.1286C78.4261 15.6639 78.9582 16.0386 79.5753 16.2855L79.9467 15.357ZM78.8687 14.554L79.7007 13.9993C79.5842 13.8245 79.5041 13.5943 79.4942 13.2697L78.4947 13.3L77.4951 13.3303C77.5146 13.9737 77.6838 14.5795 78.0366 15.1087L78.8687 14.554ZM78.4947 13.3V14.3H80.4747V13.3V12.3H78.4947V13.3ZM80.4747 13.3L79.4961 13.506C79.5974 13.987 79.8474 14.443 80.305 14.7481L80.8597 13.916L81.4144 13.0839C81.4235 13.09 81.4334 13.0981 81.443 13.108C81.4525 13.1178 81.459 13.1267 81.4629 13.133C81.4708 13.1456 81.4626 13.1383 81.4532 13.094L80.4747 13.3ZM80.8597 13.916L80.3269 14.7622C80.758 15.0337 81.274 15.103 81.7397 15.103V14.103V13.103C81.5959 13.103 81.4978 13.0912 81.436 13.0781C81.3737 13.0648 81.3682 13.0544 81.3925 13.0698L80.8597 13.916ZM81.7397 14.103V15.103C82.2164 15.103 82.7386 15.0422 83.1708 14.7952L82.6747 13.927L82.1786 13.0588C82.1992 13.047 82.1833 13.0609 82.102 13.0763C82.0228 13.0912 81.9049 13.103 81.7397 13.103V14.103ZM82.6747 13.927L83.1578 14.8026C83.3945 14.672 83.6165 14.4805 83.7745 14.2136C83.9326 13.9464 83.9937 13.6593 83.9937 13.388H82.9937H81.9937C81.9937 13.3587 82.0016 13.2824 82.0534 13.1949C82.105 13.1076 82.1675 13.0647 82.1916 13.0514L82.6747 13.927ZM82.9937 13.388H83.9937C83.9937 12.9241 83.8151 12.4754 83.4288 12.1501L82.7847 12.915L82.1406 13.6799C82.1005 13.6462 82.0569 13.5937 82.0268 13.5254C81.9976 13.4594 81.9937 13.4076 81.9937 13.388H82.9937ZM82.7847 12.915L83.4491 12.1676C83.1565 11.9075 82.7876 11.7561 82.4467 11.6574L82.1687 12.618L81.8906 13.5786C81.99 13.6073 82.0564 13.6338 82.0974 13.6535C82.1395 13.6738 82.1402 13.6801 82.1203 13.6624L82.7847 12.915ZM82.1687 12.618L82.4467 11.6574C82.1437 11.5697 81.7899 11.4806 81.3885 11.3897L81.1677 12.365L80.9469 13.3403C81.3228 13.4254 81.6364 13.505 81.8906 13.5786L82.1687 12.618ZM81.1677 12.365L81.3936 11.3908C80.9449 11.2868 80.5864 11.1598 80.3059 11.0196L79.8587 11.914L79.4115 12.8084C79.8643 13.0348 80.3785 13.2085 80.9418 13.3392L81.1677 12.365ZM79.8587 11.914L80.32 11.0268C80.0934 10.9089 79.9518 10.7718 79.8586 10.6232L79.0117 11.155L78.1648 11.6868C78.4675 12.1689 78.8906 12.5377 79.3973 12.8012L79.8587 11.914ZM79.0117 11.155L79.8586 10.6232C79.7892 10.5127 79.7147 10.3066 79.7147 9.934H78.7147H77.7147C77.7147 10.5587 77.8382 11.1666 78.1648 11.6868L79.0117 11.155ZM78.7147 9.934H79.7147C79.7147 9.62333 79.7895 9.42538 79.8902 9.28491L79.0777 8.702L78.2651 8.11909C77.8819 8.65329 77.7147 9.27667 77.7147 9.934H78.7147ZM79.0777 8.702L79.8819 9.29639C80.0012 9.13491 80.1876 8.98345 80.4947 8.86457L80.1337 7.932L79.7727 6.99943C79.1705 7.23255 78.6528 7.59442 78.2735 8.10761L79.0777 8.702ZM80.1337 7.932L80.5077 8.85944C80.8173 8.7346 81.2202 8.657 81.7397 8.657V7.657V6.657C81.0272 6.657 80.3594 6.76274 79.7597 7.00456L80.1337 7.932ZM81.7397 7.657V8.657C82.3368 8.657 82.7571 8.73621 83.0403 8.84948L83.4117 7.921L83.7831 6.99252C83.1862 6.75379 82.4919 6.657 81.7397 6.657V7.657ZM83.4117 7.921L83.0456 8.85157C83.3452 8.96947 83.5067 9.11157 83.6002 9.24731L84.4237 8.68L85.2472 8.11269C84.886 7.58843 84.3728 7.22453 83.7778 6.99043L83.4117 7.921ZM84.4237 8.68L83.6087 9.25952C83.717 9.41184 83.8016 9.62729 83.8216 9.95142L84.8197 9.89L85.8178 9.82858C85.7791 9.19938 85.5997 8.60816 85.2386 8.10048L84.4237 8.68ZM84.8197 9.89V8.89H82.8397V9.89V10.89H84.8197V9.89ZM82.8397 9.89L83.8226 9.70571C83.7384 9.2567 83.5064 8.82197 83.067 8.53539L82.5207 9.373L81.9744 10.2106C81.9347 10.1847 81.8996 10.1483 81.8759 10.1099C81.8541 10.0746 81.8535 10.0565 81.8568 10.0743L82.8397 9.89ZM82.5207 9.373L83.0918 8.55209C82.6736 8.26121 82.166 8.197 81.7397 8.197V9.197V10.197C81.8637 10.197 81.9397 10.2077 81.9791 10.2165C82.0192 10.2256 81.9978 10.2274 81.9496 10.1939L82.5207 9.373ZM81.7397 9.197V8.197C81.3096 8.197 80.7338 8.25278 80.2965 8.60675L80.9257 9.384L81.5549 10.1612C81.5136 10.1947 81.4803 10.2112 81.4657 10.2176C81.4513 10.2239 81.4504 10.2225 81.4686 10.2184C81.5083 10.2092 81.5935 10.197 81.7397 10.197V9.197ZM80.9257 9.384L80.2965 8.60675C79.9081 8.92113 79.6947 9.368 79.6947 9.868H80.6947H81.6947C81.6947 9.90185 81.6873 9.96149 81.6549 10.0292C81.6226 10.097 81.581 10.1401 81.5549 10.1612L80.9257 9.384ZM80.6947 9.868H79.6947C79.6947 10.1838 79.7791 10.508 79.9814 10.7955C80.1785 11.0756 80.443 11.2579 80.7043 11.3748L81.1127 10.462L81.5211 9.54918C81.5037 9.54142 81.5592 9.56244 81.617 9.64451C81.68 9.73401 81.6947 9.82356 81.6947 9.868H80.6947ZM81.1127 10.462L80.7131 11.3787C81.099 11.5469 81.5937 11.6772 82.1563 11.7851L82.3447 10.803L82.533 9.8209C82.0251 9.72348 81.6984 9.62642 81.5123 9.5453L81.1127 10.462ZM82.3447 10.803L82.1451 11.7829C82.501 11.8554 82.8119 11.9419 83.0809 12.0398L83.4227 11.1L83.7644 10.1602C83.3882 10.0234 82.9804 9.91196 82.5443 9.82312L82.3447 10.803ZM83.4227 11.1L83.0877 12.0422C83.3321 12.1291 83.5068 12.2293 83.6309 12.3294L84.2587 11.551L84.8864 10.7726C84.556 10.5061 84.1733 10.3055 83.7577 10.1578L83.4227 11.1ZM84.2587 11.551L83.643 12.339C83.7515 12.4237 83.8308 12.5239 83.889 12.6505L84.7977 12.233L85.7064 11.8155C85.5152 11.3994 85.2352 11.0449 84.8743 10.763L84.2587 11.551ZM84.7977 12.233L83.8934 12.66C83.9378 12.7539 83.9847 12.9244 83.9847 13.212H84.9847H85.9847C85.9847 12.7223 85.9069 12.2401 85.7019 11.806L84.7977 12.233ZM84.9847 13.212H83.9847C83.9847 13.5407 83.9045 13.7704 83.7805 13.9475L84.5997 14.521L85.4189 15.0945C85.8083 14.5383 85.9847 13.8953 85.9847 13.212H84.9847ZM84.5997 14.521L83.786 13.9398C83.6578 14.1192 83.452 14.2916 83.1101 14.4315L83.4887 15.357L83.8673 16.2825C84.4933 16.0264 85.0283 15.6414 85.4134 15.1022L84.5997 14.521ZM83.4887 15.357L83.1222 14.4266C82.785 14.5594 82.3332 14.643 81.7397 14.643V15.643V16.643C82.5101 16.643 83.2244 16.5359 83.8552 16.2874L83.4887 15.357Z" fill="black" fill-opacity="0.2" mask="url(#path-5-outside-1_4429_25187)"/>
</g>
<defs>
<filter id="filter0_d_4429_25187" x="0" y="0" width="94" height="23.14" filterUnits="userSpaceOnUse" color-interpolation-filters="sRGB">
<feFlood flood-opacity="0" result="BackgroundImageFix"/>
<feColorMatrix in="SourceAlpha" type="matrix" values="0 0 0 0 0 0 0 0 0 0 0 0 0 0 0 0 0 0 127 0" result="hardAlpha"/>
<feOffset dy="1.14"/>
<feComposite in2="hardAlpha" operator="out"/>
<feColorMatrix type="matrix" values="0 0 0 0 0.24 0 0 0 0 0 0 0 0 0 0 0 0 0 1 0"/>
<feBlend mode="normal" in2="BackgroundImageFix" result="effect1_dropShadow_4429_25187"/>
<feBlend mode="normal" in="SourceGraphic" in2="effect1_dropShadow_4429_25187" result="shape"/>
</filter>
<linearGradient id="paint0_linear_4429_25187" x1="47" y1="22" x2="47" y2="0" gradientUnits="userSpaceOnUse">
<stop stop-color="#6476F1"/>
<stop offset="1" stop-color="#0C3F82"/>
</linearGradient>
</defs>
</svg>
