<svg width="18" height="18" viewBox="0 0 18 18" fill="none" xmlns="http://www.w3.org/2000/svg">
<g>
<path d="M9.21466 2.08441C9.13595 2.03822 9.0966 2.01513 9.05532 2.00604C9.01876 1.99799 8.98124 1.99799 8.94468 2.00604C8.9034 2.01513 8.86405 2.03822 8.78534 2.08441L3 5.47922L8.78534 8.87404C8.86405 8.92022 8.9034 8.94332 8.94468 8.95241C8.98124 8.96046 9.01876 8.96046 9.05532 8.95241C9.0966 8.94332 9.13595 8.92022 9.21466 8.87404L15 5.47922L9.21466 2.08441Z" fill="black"/>
<path d="M3 9L8.78534 12.3948C8.86405 12.441 8.9034 12.4641 8.94468 12.4732C8.98124 12.4812 9.01876 12.4812 9.05532 12.4732C9.0966 12.4641 9.13595 12.441 9.21466 12.3948L15 9M3 12.5208L8.78534 15.9156C8.86405 15.9618 8.9034 15.9849 8.94468 15.994C8.98124 16.002 9.01876 16.002 9.05532 15.994C9.0966 15.9849 9.13595 15.9618 9.21466 15.9156L15 12.5208M3 5.47922L8.78534 2.08441C8.86405 2.03822 8.9034 2.01513 8.94468 2.00604C8.98124 1.99799 9.01876 1.99799 9.05532 2.00604C9.0966 2.01513 9.13595 2.03822 9.21466 2.08441L15 5.47922L9.21466 8.87404C9.13595 8.92022 9.0966 8.94332 9.05532 8.95241C9.01876 8.96046 8.98124 8.96046 8.94468 8.95241C8.9034 8.94332 8.86405 8.92022 8.78534 8.87404L3 5.47922Z" stroke="black" stroke-width="1.5" stroke-linecap="round" stroke-linejoin="round"/>
</g>
</svg>
