<svg width="24" height="24" viewBox="0 0 24 24" fill="none" xmlns="http://www.w3.org/2000/svg">
<path d="M16.5 13.7778H16.51M3 5.77778V18.2222C3 19.2041 3.89543 20 5 20H19C20.1046 20 21 19.2041 21 18.2222V9.33333C21 8.35149 20.1046 7.55556 19 7.55556L5 7.55556C3.89543 7.55556 3 6.75962 3 5.77778ZM3 5.77778C3 4.79594 3.89543 4 5 4H17M17 13.7778C17 14.0232 16.7761 14.2222 16.5 14.2222C16.2239 14.2222 16 14.0232 16 13.7778C16 13.5323 16.2239 13.3333 16.5 13.3333C16.7761 13.3333 17 13.5323 17 13.7778Z" stroke="#353140" stroke-width="1.5" stroke-linecap="round" stroke-linejoin="round"/>
</svg>
